<?xml version="1.0" ?><!-- Uploaded to: SVG Repo, www.svgrepo.com, Generator: SVG Repo Mixer Tools -->
<svg width="800px" height="800px" viewBox="0 0 512 512" data-name="Layer 1" id="Layer_1" xmlns="http://www.w3.org/2000/svg"><defs><style>.cls-1{fill:none;stroke:#083b43;stroke-linecap:round;stroke-linejoin:round;stroke-width:20px;}.cls-2{fill:#083b43;}</style></defs><title/><path class="cls-1" d="M285.27,339.5V313.27a17.92,17.92,0,0,0-17.92-17.92H158.74a17.91,17.91,0,0,1-17.91-17.91v-87a17.91,17.91,0,0,1,17.91-17.92H353.26a17.91,17.91,0,0,1,17.91,17.92v87a17.91,17.91,0,0,1-17.91,17.91H341.11a17.92,17.92,0,0,0-12,4.62Z"/><circle class="cls-2" cx="205.13" cy="231.68" r="15.36"/><circle class="cls-2" cx="256" cy="231.68" r="15.36"/><circle class="cls-2" cx="306.87" cy="231.68" r="15.36"/></svg>