<?xml version="1.0" encoding="utf-8"?>
<!-- Generator: Adobe Illustrator 28.4.1, SVG Export Plug-In . SVG Version: 6.00 Build 0)  -->
<svg version="1.1" id="Layer_1" xmlns="http://www.w3.org/2000/svg" xmlns:xlink="http://www.w3.org/1999/xlink" x="0px"
	y="0px" viewBox="0 0 298.4 274.3" style="enable-background:new 0 0 298.4 274.3;" xml:space="preserve"
	fill="#ffffff">
	<g transform="translate(0.000000,300.000000) scale(0.050000,-0.050000)">
		<path d="M224.8,3341.3C124,3285,95.3,3204.7,95.3,2981.1c0-140,4.9-172.8,23.2-160c6.4,4.5,3-6.1-6.9-24
		c-50.4-85.9-10.9-390.9,59.3-465c71.1-74.2,38-70.8,668-70.8h570.6v-272.1v-271.5l-73.1-102c-40-55.8-120.6-166.7-178.4-246.4
		c-122.5-167.3-247.5-339.6-315.2-433.2l-46.9-65.2L693.6,869c-115.6-1.7-144.3-15.6-175.9-85.9c-27.7-61.3-23.7-171.7,6.9-206.3
		l24.2-27.3h1028.6h1028.6l24.2,27.3c30.6,34.6,34.6,145,6.9,206.3c-31.1,68-59.3,82.5-177.4,89.2l-105.2,6.1l-117.6,161.7
		c-64.7,89.2-173.9,238.6-243.1,333.4c-68.7,94.2-152.7,209.6-186.3,256.5l-61.3,84.8L1746,1988l-0.5,273.2l544.9-2.8
		c794.5-5,761.8-26.8,767.8,518c4,439.4-8.9,497.9-128,564.8l-52.4,29.6H1577.5H277.1L224.8,3341.3z M2884.8,3277.2
		c83-40.1,105.7-99.8,105.7-280.5v-138.8h-182.3c-179.3,0-181.8,0.6-188.7,25.1c-45.9,162.3-248,182.9-325.6,32.9l-29.6-57.4h-179.8
		l-179.8-0.6l-11.4,47.4c-87.4,366.3-544,366.3-631.4,0l-11.4-47.4h-179.8l-179.8,0.6l-27.7,56.3c-73.6,151.1-283.6,131-327.6-31.8
		c-6.9-25.1-8.4-25.1-188.7-25.1H164.5v143.3c0,172.8,16.8,223,88.4,266l43,25.6h1278.6C2637.8,3292.8,2858.1,3290,2884.8,3277.2z
		 M1676.3,3079.8c262.8-133.8,170.5-568.7-117.1-549.8c-321.1,20.6-303.8,572.6,18.3,572.6
		C1611.1,3102.6,1649.2,3094.3,1676.3,3079.8z M783.1,2898c45.5-51.3,46.9-112.1,4.9-165.6c-64.2-80.8-188.7-29-188.7,78.6
		C599.3,2926.4,710.9,2979.4,783.1,2898z M2512.8,2916.4c51.9-48,58.3-128.2,14.3-184c-65.7-82.5-188.7-29-188.7,82
		C2338.4,2909.2,2449,2973.8,2512.8,2916.4z M542,2738.5c37.5-163.9,283.1-162.3,334,2.8l9.9,32.9h183.3h183.3l4.9-27.9
		c73.6-394.8,566.7-394.8,640.3,0l4.9,27.9l183.3,0.6l183.3,0.6l9.9-35.1c47.9-162.8,296.9-163.9,334-1.7l7.9,34.6l185.8,0.6
		l185.8,1.1l-3.5-157.2c-4-175.1-17.3-213.6-90.4-258.7c-48.9-30.1-2593.3-30.1-2642.2,0c-73.1,45.2-86.5,83.6-90.4,258.2
		l-3.5,157.2l185.8-0.6l185.8-0.6L542,2738.5z M1682.8,1973l-2-288.3l79.5-107.6c43.5-59.1,170-233.1,281.1-386.4
		c110.7-153.3,223.8-307.8,250.5-343.5l48.9-64.7l102.3,3.3c120.1,3.9,135.9-6.7,145.7-94.2l5.9-53H1587.4
		c-554.3,0-1011.3,1.1-1015.3,2.8c-15.3,5.6-1,103.2,18.3,125.5c17.3,20.1,30.6,21.7,122.5,19.5l102.8-3.3l132.9,181.8
		c73.1,99.8,220.8,302.8,329,451.1l196.1,269.3l-1.5,288.3l-1.5,287.7h106.7h107.2L1682.8,1973z" />
		<path d="M2042.4,3097.1c-34.6-40.1-60.3-74.7-58.3-77.5c2.5-2.8,33.1,27.3,67.7,66.9c34.6,39.6,60.8,74.7,57.8,77.5
		C2107.2,3167.3,2076.5,3137.2,2042.4,3097.1z" />
		<path d="M2130.9,3074.2c-46.4-53-75.1-90.9-64.2-84.8c26.2,15.6,170.5,180.7,157.6,180.7
		C2218.8,3170.1,2176.8,3126.6,2130.9,3074.2z" />
		<path
			d="M1136.8,3120.5c-21.2-21.2-34.1-39-28.2-39c5.9-0.6,25.7,17.3,44,38.5C1195.6,3170.1,1187.2,3170.1,1136.8,3120.5z" />
		<path d="M2248.9,3073.6c-40.5-46.3-64.7-79.2-53.9-73c23.2,13.9,137.3,146.6,131.4,153.3
		C2324.5,3156.2,2289.5,3120.5,2248.9,3073.6z" />
		<path d="M422.9,3108.2c-12.8-15.1-21.7-31.8-19.8-37.4c2-6.1,15.8,3.3,31.1,20.6c15.3,17.8,24.2,34.6,19.8,37.4
		C449.6,3132.2,435.2,3122.7,422.9,3108.2z" />
		<path d="M2709.9,3074.2c-19.8-22.9-35.6-46.8-35.6-53.5s18.8,8.9,41.5,35.1c22.7,25.6,39,49.6,35.6,53.5
		C2748.4,3112.7,2729.7,3097.1,2709.9,3074.2z" />
		<path
			d="M2797.8,3036.3c-21.2-24.5-35.1-44.6-31.1-44.6c11.9,0,80.5,76.4,74.6,83.1C2838.4,3077.5,2818.6,3060.3,2797.8,3036.3z" />
		<path d="M1063.7,3041.9c-12.8-15.1-20.8-30.1-18.3-33.5c2.5-2.8,17.8,9.5,33.1,27.9c15.8,18.4,23.7,33.5,18.3,33.5
		S1076.5,3057.5,1063.7,3041.9z" />
		<path
			d="M1631.4,2898c-26.7-26.8-46.4-51.9-43.5-55.2s26.7,18.4,53.4,49.1C1700.5,2960.5,1696.6,2962.7,1631.4,2898z" />
		<path d="M1529.6,2785.4c-42.5-54.6-39-63,4.9-12.8c20.3,22.3,34.1,43.5,31.1,46.8S1546.4,2807.1,1529.6,2785.4z" />
		<path d="M1609.1,2743c-69.7-79.7-65.2-92.6,5.4-15.1c31.1,34,53.9,64.1,50.9,67.5S1637.3,2775.3,1609.1,2743z" />
		<path d="M391.8,2551.2c-29.1-33.5-50.9-63.6-48.4-66.4c3-3.3,29.1,21.7,58.3,55.2c29.1,33.5,50.9,63.6,48.4,66.4
		C447.1,2609.7,420.9,2584.6,391.8,2551.2z" />
		<path d="M2029.1,2570.2c-20.3-23.4-36.6-49.1-36.6-56.9c0-8.4,20.3,7.2,44.5,35.1c24.7,27.3,44.5,53,44.5,56.9
		C2081.5,2622,2063.2,2609.7,2029.1,2570.2z" />
		<path
			d="M2121,2540c-18.3-21.2-30.6-41.3-27.7-44.6c5.9-7.2,67.2,60.8,67.2,74.7C2160.5,2584.6,2156.6,2581.3,2121,2540z" />
		<path
			d="M2710.9,2547.8c-31.6-36.8-36.1-59.7-5.9-29c19.3,19.5,43.5,60.2,35.6,60.2C2739.1,2579.1,2725.2,2565.1,2710.9,2547.8z" />
		<path
			d="M2797.8,2522.2c-21.7-24-34.1-43.5-27.2-43.5c16.8,0,74.6,63,70.2,76.4C2838.9,2560.7,2819.6,2545.6,2797.8,2522.2z" />
		<path
			d="M480.7,2517.7c-20.3-23.4-27.7-39-19.3-38.5c14.8,0.6,64.2,63.6,56.8,72.5C515.8,2554,499,2538.9,480.7,2517.7z" />
		<path
			d="M1068.6,2523.3c-15.8-18.4-23.7-33.5-18.3-33.5c12.8,0,57.8,54.1,51.4,61.3C1099.3,2554,1084,2541.7,1068.6,2523.3z" />
		<path d="M1681.3,1145.5V783.7l259.4,1.7c142.8,0.6,259.4,3.3,259.4,6.1c0,3.9-104.2,147.8-236.7,326.2
		c-24.7,32.9-55.8,76.4-69.7,95.9c-36.1,51.9-188.7,264.8-201.6,280.5C1684.2,1504.1,1681.3,1409.3,1681.3,1145.5z M1830.5,1185.1
		c37.1-51.9,98.3-136.6,136.9-187.9c38.5-51.3,75.1-101.5,81.5-111.5c10.9-16.7-1.5-18.4-145.7-18.4h-157.6v216.9
		c0,125.5,3.5,212.4,8.9,206.3C1758.8,1284.9,1793.4,1237.5,1830.5,1185.1z" />
		<path
			d="M1439.2,1461.1c-13.3-20.1-60.3-86.4-105.2-147.8C1009.3,869,955,794.3,955,791.5c0-2.2,116.6-5,259.4-6.1l259.4-2.2v357.4
		c0,196.3-2.5,356.8-5.4,356.8S1452,1481.2,1439.2,1461.1z M1409.5,1082V867.3h-157.1c-102.3,0-155.1,3.9-151.2,11.2
		c3.5,6.1,32.6,46.3,65.7,89.2c33.1,42.9,99.8,134.4,148.2,203.5c48.9,69.1,89.9,125.5,91.4,125.5S1409.5,1200.2,1409.5,1082z" />
	</g>
	<g transform="translate(0.000000,900.000000) scale(0.100000,-0.100000)">
		<path d="M2121.8,8979.9c0-2.6-2-5.4-4.5-6.1c-5.2-1.6-5,0.9-4.5-46.7l0.2-37.3l-149.7,0.5l-149.9,0.5l-9.7,17
		c-5.4,9.3-10.9,18.7-12,20.5c-1.1,1.9-4.3,7.7-7,12.8s-7.5,11.7-10.9,14.5l-5.9,5.1l-192.4,0.2h-192.4l-8.1-8.6
		c-11.1-11.2-10.6-17,1.8-36.7c5.7-8.9,10.2-16.6,10.2-17.3c0-0.7,1.4-3,3.2-4.9c1.6-2.1,6.3-10,10.4-17.7
		c4.1-7.7,11.8-20.8,17-29.2c5.2-8.4,10.2-16.8,10.9-18.7c0.9-1.9,3.4-6.3,5.7-9.6c3.4-5.4,14.7-25,21.9-37.6
		c2.3-4.2,26-43.7,33.7-56c4.3-6.8,4.3-6.8-1.4-13.1c-16.3-17.7-23.3-46.7-20.1-79.8c2.3-22.4,12.2-44.6,27.6-61.6
		c11.3-12.6,35.3-29.4,41.8-29.4c1.8,0,6.6-1.6,10.4-3.7c5.7-3,11.8-3.7,29.2-2.8c12.2,0.7,22.8,0.5,24-0.2c0.9-0.7,4.1-6.1,7-11.9
		s7.2-13.5,9.5-17.5c2.5-3.7,5.4-9.1,6.8-11.7c1.4-2.6,4.3-7.7,6.8-11.7c2.5-3.7,5.7-9.6,7.2-12.8c1.6-3.3,5-8.9,7.7-12.8
		c2.5-3.7,25.3-42.3,50.4-85.2c25.1-43,46.6-79.8,47.7-81.7c10.9-18.4,47.7-82.6,52.9-92c3.4-6.5,9.3-16.3,12.9-21.9
		c3.6-5.6,8.1-13.3,10.2-17.5c2-4.2,9.3-16.1,15.8-26.6c6.8-10.5,12.2-19.8,12.2-20.5c0-0.9,2.9-5.8,6.3-11.2
		c3.6-5.4,7.2-11.4,8.1-13.3c1.6-3.7,4.3-8.2,12.9-22.2c3.2-5.1,6.6-11,7.2-12.8c0.9-1.9,3.6-6.5,6.1-10.5c2.5-3.7,5.2-8.4,5.9-10.3
		c2.5-5.1,16.3-25.7,23.7-35.7c8.4-10.7,7.5-17.5-2-14.5c-3.4,0.9-116.9,2.3-252.5,3c-269.5,1.6-261.6,1.9-264.5-11.4
		c-0.7-3.7-1.6-25.4-1.6-48.3c-0.2-44.4,1.1-50.9,10.2-53.2c8.1-2.1,504.2,0,509.6,2.1c9,3.5,8.6-4.2-1.1-17
		c-5-6.3-13.6-19.8-19.4-29.9c-11.5-20.3-13.3-23.1-22.2-37.6c-3.6-5.6-6.3-10.5-6.3-11.4c0-0.7-2.9-5.8-6.8-11.7
		c-3.6-5.6-6.8-10.7-6.8-11.4c0-0.7-2.9-5.6-6.3-11c-3.6-5.4-7.2-11.4-7.9-13.3c-0.9-1.9-3.6-6.5-6.1-10.5
		c-2.5-3.7-5.4-9.1-6.8-11.7s-4.3-7.7-6.8-11.7c-2.5-3.7-5.2-8.6-6.1-10.5c-0.7-1.9-3.8-6.8-6.6-10.5c-2.7-4-6.3-9.6-7.7-12.8
		c-3.2-7.5-6.6-13.3-12.9-22.4c-2.7-4-6.1-9.8-7.5-12.8s-4.3-8.6-6.8-12.6c-2.5-3.7-5.2-8.6-5.9-10.5c-0.9-1.9-2.9-5.1-4.5-7.2
		c-1.8-1.9-5.4-7.7-8.1-13.1c-6.1-11-59-101.3-67.8-115.6c-3.4-5.6-7.2-12.1-8.4-14.7c-1.1-2.6-4.5-8.4-7.5-12.8
		c-2.9-4.4-6.1-9.8-7-11.7c-0.9-1.9-3.6-6.5-6.1-10.5c-2.5-3.7-5.4-9.1-6.8-11.7s-4.3-7.7-6.8-11.7c-2.5-3.7-5.2-8.6-6.1-10.5
		c-0.7-1.9-5.9-10.7-11.3-19.4c-5.2-8.6-9.7-16.3-9.7-17c0-0.7-4.5-8.4-10.2-17.3s-10.2-17.3-10.2-18.4c0-1.4-0.9-2.6-2-2.6
		c-1.1,0-2.9-2.1-3.6-4.9c-0.9-2.6-4.5-9.3-8.1-14.9c-3.6-5.6-6.6-10.7-6.6-11.7c0-0.7-2.9-6.1-6.8-11.7c-3.6-5.6-6.8-10.7-6.8-11.4
		c0-0.9-3.2-5.8-6.8-11.2c-3.8-5.1-6.8-10.7-6.8-11.9c0-1.4-1.6-4.2-3.4-6.3c-1.8-2.1-5.7-7.9-8.4-13.3c-2.9-5.1-14.2-25-25.5-43.9
		c-11.1-18.9-22.2-37.6-24.6-41.8c-17.9-30.8-50.6-87.1-53.8-92c-2.3-3.5-5-8.4-6.3-11c-4.1-7.7-7.7-13.8-12.9-21.2
		c-2.7-4-6.1-9.8-7.5-12.8c-2.3-5.6-3.2-7.5-13.6-24.3c-3.2-5.1-6.6-11-7.5-12.8c-2-4.2-5.2-9.3-13.6-22.6
		c-7.2-11.7-7.5-15.9-1.8-25c8.6-13.5-0.7-12.8,205.7-13.1h190.8l8.8,9.6c5,5.4,9.9,11.9,11.1,14.7c2,4.9,3.2,6.8,13.6,23.6
		c3.2,5.1,6.6,11,7.5,12.8c0.7,1.9,3.6,7.5,6.6,12.4l5,9.1h145.8l145.8-0.2l0.2-40.2c0.2-28.2,1.1-40.6,2.9-41.3
		c1.4-0.5,4.1-2.3,5.7-4.2c1.8-1.9,5.9-3.3,9.3-3.3c5.9,0,5.9,0,4.5,12.8c-1.8,14.5,0.5,16.3,9,8.2c2.7-2.8,8.8-5.4,13.3-6.3
		c8.6-1.4,34.6,3.3,36.6,6.5c0.7,1.2,2.7,2.1,4.7,2.1c2.7,0,3.2-2.1,1.8-11.7c-1.6-11.4-1.4-11.7,4.3-11.7c3.4,0,8.6,1.6,11.5,3.7
		l5.7,3.7v41.3v41.1l146.1-0.5c146.1-0.5,152.4-0.7,152.4-8.2c0-1.4,6.1-12.8,13.6-25.7c7.5-12.6,13.6-24,13.6-25
		c0-1.2,4.3-6.8,9.7-12.8l9.7-10.7h190.6c137,0,191.7,0.7,195.3,2.6c11.8,6.3,19.7,24.5,12.7,28.9c-1.1,0.9-3.4,4-4.5,6.5
		c-1.1,2.8-4.1,8.4-6.6,12.1c-2.5,4-5.4,9.1-6.8,11.7c-1.4,2.6-4.3,7.9-6.8,11.7c-2.5,4-5.4,9.1-6.8,11.7
		c-2.7,5.6-4.7,8.9-17.2,29.2c-5,8.4-9.9,16.8-10.9,18.7c-0.7,1.9-3.2,6.3-5.4,9.6c-3.2,5.1-33,56-42.3,72.6
		c-1.1,2.1-18.3,31.3-38,64.9c-19.4,33.4-35.5,61.4-35.5,62.1c0,0.9-2.7,5.4-6.1,10c-3.6,4.7-8.4,12.1-10.6,16.6
		c-2.3,4.4-7.2,12.6-10.9,18.2c-3.4,5.6-6.3,10.5-6.3,11.4c0,0.7-3.2,5.8-6.8,11.7c-3.6,5.6-6.8,10.7-6.8,11.4s-4.5,8.4-10.2,17.3
		s-10.2,16.8-10.2,17.5c0,0.9-2.9,5.8-6.3,11.2c-3.6,5.4-7.2,11.4-7.9,13.3c-0.9,1.9-3.6,6.8-6.1,10.5c-2.5,4-5.4,9.1-6.8,11.7
		c-1.4,2.6-3.6,6.8-5.2,9.3c-1.6,2.6-5.4,8.9-8.4,14c-3.2,5.4-6.8,11.7-8.4,14c-1.4,2.6-20.8,35.5-43,73.3
		c-22.2,37.6-42.5,72.8-45.4,78c-2.7,5.4-6.6,11.2-8.4,13.3s-3.4,4.9-3.4,6.3c0,1.2-2.9,6.8-6.8,11.9c-3.6,5.4-6.8,10.3-6.8,11
		c0,0.7-2.7,5.6-6.1,11.2c-9.5,15.2-11.5,18.7-14.2,25c-1.4,3.3-5,8.9-7.7,12.8c-2.7,3.7-5.9,8.6-6.6,10.5
		c-0.9,1.9-3.6,6.8-6.1,10.5c-2.5,4-5.7,9.6-6.8,12.8c-1.4,3-3.4,6.3-4.3,7c-1.8,1.2-9,13.5-18.3,30.8c-2.5,4.7-7.5,13.3-11.3,18.9
		c-3.6,5.8-6.8,11-6.8,11.7c0,0.9-2.9,6.1-6.8,11.7c-3.6,5.8-6.8,11-6.8,11.7c0,0.9-2.9,6.1-6.8,11.7c-3.6,5.8-6.8,11.2-6.8,12.1
		c0,0.9-2.9,5.6-6.8,10.5c-3.6,4.9-6.8,9.6-6.8,10.5c0,0.9-3.6,6.1-7.9,11.7c-8.8,11-9,19.4-0.2,16.1c5.4-2.1,501.5-4.2,509.6-2.1
		c2.7,0.7,6.1,4.2,7.5,7.7c2.5,6.5,2.9,85.9,0.7,95.2c-2.9,11.7,0.2,11.4-264.3,10c-135.4-0.7-249.2-2.1-252.5-3
		c-10.2-3-10.2,3.7,0,17c5,6.5,12.4,17.7,16.7,25c4.1,7.2,9.3,15.9,11.3,19.4c2.3,3.3,5,8.2,6.3,10.7c1.4,2.6,4.3,7.9,6.8,11.7
		c2.5,4,5.4,9.1,6.8,11.7c2.5,5.1,4.7,9.1,14.2,23.8c3.4,5.4,6.1,10.3,6.1,11.2c0,0.7,2.7,5.6,6.1,11.2c8.1,12.8,9.7,15.4,17.4,28.7
		c3.6,6.3,9.9,16.8,14.2,23.6c4.1,6.5,8.1,14,9,16.3c0.9,2.3,4.5,8.6,7.9,13.8c3.4,5.4,6.3,11,6.3,12.4s0.9,2.6,1.8,2.6
		c1.1,0,3.6,3.5,5.7,7.7c5.4,10.7,11.5,21.2,53.6,92.4c20.6,35,38.4,65.1,39.6,67.5c1.8,3.5,17.2,29.6,26.7,46
		c1.6,2.6,5.4,9.1,9,14.7c3.4,5.6,8.1,14,10.6,18.7s5.9,10.7,7.5,13.3c2.3,4,7.5,12.4,16.3,27.3c1.1,2.1,4.7,8.9,7.9,15.2
		c2.9,6.1,5.9,11.7,6.3,12.4c0.5,0.5,10.6,0.7,22.8,0.5c17.6-0.7,25.1,0.2,36.2,4.2c40.7,14,70.3,50.4,74.8,92
		c3.8,33.1-2.7,61.2-18.3,79.4l-7,8.4l4.3,6.8c13.1,21.5,31.9,53.2,36.4,61.6c2.7,5.1,6.3,11.2,8.1,13.1c1.6,2.1,3.6,5.4,4.5,7.2
		c0.7,1.9,3.4,6.8,5.9,10.5c2.5,4,5.4,9.1,6.8,11.7c1.4,2.6,4.3,7.9,6.8,11.7c2.5,4,5.2,8.6,6.1,10.5c0.7,1.9,4.1,7.7,7.5,12.8
		c3.2,5.1,7.7,13.3,10.2,18.2c2.5,4.7,5.2,8.6,6.1,8.6c0.7,0,2,2.1,2.9,4.4c0.7,2.6,5.9,11.7,11.3,20.3
		c12.4,19.4,12.7,25.4,2.3,36.7l-8.1,8.6h-192.2H2567l-6.6-5.1c-3.8-2.8-6.8-5.8-6.8-6.8c0-1.2-7.5-14.5-16.5-30.1l-16.5-28.2
		l-149.7-0.5l-149.9-0.5l0.5,40.9c0.2,39,0,40.9-4.5,44.1c-2.7,1.6-4.7,4.7-4.7,6.3c0,2.1-2.7,3.3-7.9,3.3c-8.8,0-8.8-0.2-5.9-11.2
		c1.4-4.2,1.6-9.3,0.9-11.2c-1.6-4.2-10.6-4.2-14.2,0.2c-4.3,5.4-27.4,4.7-38.9-1.2c-5.2-2.6-9.7-4.7-10.2-4.7c-0.2,0,0,6.3,0.5,14
		l1.1,14h-7.9C2123.4,8984.3,2121.8,8983.4,2121.8,8979.9z M2186.9,8946c1.4-0.9,1.8-14.9,1.1-39.7c-1.1-34.8-0.9-38.8,2.9-44.4
		l4.3-6.1l152.2,0.2c83.9,0,152.8-0.5,153.5-1.2s-2.5-5.8-7-11.7c-4.5-5.6-8.1-11.4-8.1-12.6s-2.9-5.6-6.8-9.8
		c-5.2-5.8-7.7-7-11.8-5.6c-2.7,0.9-64.9,1.6-138.1,1.9l-133.2,0.5l-4.3-5.8c-4.3-5.6-4.3-11.9-4.3-249.5
		c0.2-201-0.2-244.4-2.7-247.7c-3.4-4.2-7.2-12.1-10.9-22.2c-1.6-4.4-3.4-6.1-5.9-5.1c-2,0.7-4.3,1.4-5.4,1.4c-0.9,0-2.3,3-2.9,7
		c-0.9,3.7-4.1,11-7.2,16.3l-5.7,9.3v242.3c0,237.2,0,242.8-4.5,248.4l-4.3,5.8l-140.2-0.7l-140.2-0.7l-4.7,6.8
		c-2.5,3.5-4.5,7.5-4.5,8.6c0,1.2-3.6,6.3-7.9,11.4c-4.3,4.9-7.7,10-7.2,11c0.2,1.2,69.2,1.9,153.3,1.6c149.2-0.2,152.6,0,156.7,4.4
		c3.6,4,4.1,8.9,3.4,43.9c-0.5,21.5,0,40.4,0.7,41.6C2148.7,8948.4,2183.1,8948.6,2186.9,8946z M1431.8,8936.7
		c2.7-2.8,2.3-4.9-2.3-14.5c-8.4-18-9.5-19.6-13.1-19.6c-8.6,0-19.7,28.9-13.1,34.3C1410.3,8942.8,1426.1,8942.8,1431.8,8936.7z
		 M2919.9,8938.8c1.6-1.9,4.5-3.5,6.8-3.5c3.8,0,6.8-6.1,6.8-14.5c0-2.1-3.6-6.8-7.9-10.3l-7.9-6.3l-12.2,13.8l-12.4,13.8l5,4
		c4.5,3.5,9,5.4,16.5,6.3C2915.9,8942.1,2918.4,8940.7,2919.9,8938.8z M1747,8912c2,0,4.5-2.3,5.2-5.1c1.4-4.4,10.6-21.7,23.7-43.9
		c0.9-1.9,18.5-31.7,38.7-66.5c20.3-34.5,40.5-68.9,45-75.9c10.9-17.5,12.7-20.5,19.2-32.7c3.2-5.8,7.7-13.5,10.2-17.5
		c2.5-3.7,5.4-9.1,6.6-11.7c1.1-2.6,4.5-8.4,7.5-12.8s6.1-9.8,7-11.7c0.9-1.9,3.6-6.5,6.1-10.5c2.5-3.7,5.7-9.6,6.8-12.8
		c1.4-3,3.4-6.3,4.3-7s5.4-7.5,9.7-15.2c25.1-43.9,81.8-140.5,84.6-143.8c1.8-1.9,3.2-4.9,3.2-6.3c0-1.4,2.9-7.2,6.8-12.8
		c3.6-5.8,6.8-11.2,6.8-12.1s2.7-5.6,6.3-10.3c3.4-4.7,8.1-12.1,10.4-16.6c2.3-4.4,7.2-12.6,10.9-18.2c3.4-5.6,6.3-10.5,6.3-11.4
		c0-0.7,2.9-5.8,6.8-11.7c3.6-5.6,6.8-10.7,6.8-11.4s3.4-6.8,7.7-13.3c9.9-15.9,26.2-43.4,26.2-44.8c0-0.5,2.7-5.4,6.3-11
		c9.9-16.1,11.5-19.1,14-24c9.9-20.1,16.5-25.2,30.1-23.6c8.4,0.9,17.4,6.8,17.4,11.2c0,1.2,5.7,11,12.7,21.9
		c6.8,11,13.1,21.7,13.8,23.8c0.9,2.3,3.6,7.2,6.3,11c2.7,4,7.9,12.4,11.5,18.9c6.3,11.7,90.9,156.4,98.6,168.8
		c2,3.3,5.2,8.6,6.8,11.9c2.9,5.4,19.9,34.3,37.3,63.7c4.1,6.5,8.4,14.2,9.5,16.8c1.1,2.6,4.7,8.2,7.9,12.6s5.9,9.1,5.9,10.3
		c0,0.9,2.5,5.4,5.4,9.3c3.2,4.2,6.8,10,7.9,13.3c1.4,3.3,4.5,9.1,7,12.8c2.5,4,5.4,9.1,6.8,11.7c2.7,5.6,5.9,10.7,14.2,22.9
		c3.4,5.1,6.1,10.3,6.1,11.2s2.9,6.3,6.6,11.9c3.6,5.6,8.8,14.2,11.5,19.4c2.7,5.1,6.6,12.1,8.6,15.6c5.4,8.6,57.7,96.9,60.4,101.8
		c2,3.5,17.9,30.8,26.7,46c1.6,2.6,5.2,8.9,8.4,14s8.1,14.5,11.1,20.5c2.9,6.3,6.6,11.7,7.9,12.4c1.4,0.5,73,1.2,159.2,1.4
		c146.1,0.7,156.5,0.5,156.5-3.3c0-2.1-1.4-4.9-2.9-5.8c-2.9-1.9-17.4-24-29.6-45.1c-3.4-5.8-7-12.1-8.1-14
		c-11.8-19.4-48.4-84-50-88.2c-2.7-7.5-8.4-8.9-16.1-4.4c-3.8,2.1-9,4-12,4c-2.7,0-6.1,1.4-7.2,3s-1.4,16.1-0.7,34.3
		c1.8,34.5,0.5,39-11.5,43.7c-7.9,3-19-1.6-21.5-9.1c-1.1-2.8-2-20.1-2-38.1v-32.7l-6.8-0.7c-8.8-0.9-33.7-12.1-37.3-16.8
		c-0.7-0.7-5-4.4-9.7-8.2c-9-7-31-39.2-31-45.5c0-2.1-1.1-4.9-2.7-6.5c-2.9-3-4.1-45.5-1.4-58.4c4.1-20.8,22.8-50.7,36.2-57.9
		c7-3.7,6.6-9.8-1.6-19.8c-4.1-5.1-15.8-24.5-29.4-48.3c-1.1-2.3-7.2-12.8-13.6-23.6c-6.1-10.5-13.8-23.8-16.7-28.9
		c-2.9-5.4-8.1-14-11.3-19.1s-7.7-13.1-9.9-17.5c-2.5-4.4-7.2-12.6-10.9-18.2s-6.6-10.5-6.6-11.2c0-0.5-2.7-5.4-6.1-11
		c-9-14.2-11.5-18.7-14-23.8c-1.1-2.6-4.7-8.6-7.9-13.5s-5.9-9.3-5.9-10c0-0.5-2.9-5.4-6.8-10.7c-3.6-5.1-6.8-10.5-6.8-11.4
		c0-0.9-4.1-8.2-9.3-16.1c-5.2-7.9-12-19.6-15.4-25.9c-7-13.8-8.8-16.8-16.1-28.9c-3.2-5.1-7-11.4-8.6-14
		c-1.4-2.6-20.6-35-42.3-72.4c-21.9-37.1-41.1-69.8-42.5-72.4c-1.6-2.6-5.4-9.1-9-14.7c-3.4-5.6-6.1-10.5-6.1-11.4
		c0-0.7-3.2-5.8-6.8-11.7c-3.8-5.6-6.8-10.7-6.8-11.7c0-0.7-3.2-5.8-6.8-11.7c-3.8-5.6-6.8-11-6.8-11.7c0-0.9-1.6-3.3-3.4-5.4
		c-1.8-2.1-5.7-8.2-8.4-13.3c-2.9-5.1-9.3-16.1-14.2-24.3c-12-20.1-12-28.5,0-48.3c5-8.2,11.3-19.1,14.2-24.5
		c2.9-5.4,6.6-11.4,8.1-13.3c1.6-1.9,3.6-5.1,4.5-7c0.7-1.9,3.2-6.3,5.4-9.8c3.2-5.1,21.7-36.6,28.7-49c1.4-2.1,7.5-12.6,13.6-23.3
		c16.7-28.7,16.7-28.5,18.3-32.2c0.9-1.9,2.9-5.1,4.5-7.2c1.8-1.9,5.4-7.9,8.1-13.1c4.1-7.7,35.7-61.6,47-80.1
		c4.5-7.5,46.6-80.3,51.8-89.4c2.9-5.4,8.4-14.2,11.8-19.8c3.6-5.6,6.6-10.5,6.6-11.2c0-0.5,2.7-5.4,6.1-11
		c9.5-15.2,11.5-18.7,14.2-25c1.4-3.3,5-8.9,7.7-12.8c2.9-3.7,5.9-9.3,6.8-12.1c0.9-3,2.5-5.4,3.6-5.4c0.9,0,2.5-1.9,3.2-4
		c0.7-2.3,2.7-6.3,4.3-8.9c3.6-6.1,13.3-22.4,16.7-28c1.4-2.6,21.5-36.9,44.5-76.3c23.1-39.5,42.1-72.4,42.1-73.3
		c0-0.7,2.9-5.4,6.8-10.3c3.8-4.9,6.8-9.8,6.8-11s4.5-9.3,10.2-18c5.7-8.9,10.2-16.8,10.2-17.7s3.2-6.1,6.8-11.2
		c3.8-5.4,6.8-10.5,6.8-11.7c0-0.9,2.7-5.8,6.1-11c7.5-11.2,34.6-57,34.6-58.4c0-0.5,2.7-4.9,5.9-9.8c3.2-4.9,6.8-11,7.9-13.5
		c1.1-2.6,4.1-7.7,6.6-11.7c2.5-3.7,5.2-8.6,6.1-10.5c0.9-1.9,4.1-7.2,7-11.7c2.9-4.4,6.3-10.3,7.5-12.8c2.5-5.1,5-9.6,14-23.8
		c3.4-5.6,6.1-10.5,6.1-11c0-0.7,2.9-5.8,6.8-11.4c3.6-5.8,6.8-11,6.8-11.7c0-1.9,20.1-32.4,25.3-38.3c2.5-2.6,4.1-6.8,3.6-8.9
		c-0.7-3.5-13.1-3.7-156.7-3.5c-140.4,0.2-156.2,0.5-159.8,4c-2.3,2.1-4.1,4.7-4.1,5.8c0,1.9-7.9,15.9-32.3,56.7
		c-10.6,17.5-14.5,24.5-19.4,33.8c-2.9,5.8-6.1,11-7,11.7c-0.7,0.7-2,2.8-2.9,4.7c-0.9,1.9-2.5,5.1-3.6,7c-1.1,1.9-12,20.3-24,40.9
		c-23.3,40.4-22.8,39.5-36.4,61.9c-5,8.4-9.7,16.8-10.6,18.7c-0.9,1.9-3.6,6.8-6.1,10.5c-2.5,4-5.2,8.6-6.1,10.5
		c-0.9,1.9-4.1,7.2-7,11.7c-2.9,4.4-6.3,10.3-7.5,12.8c-1.1,2.6-4.1,7.9-6.6,11.7c-2.5,4-5.4,9.1-6.8,11.7
		c-1.4,2.6-4.3,7.9-6.8,11.7c-2.5,4-5.2,8.6-6.1,10.5c-0.9,1.9-4.5,7.9-7.9,13.1c-3.4,5.4-6.3,10.7-6.3,11.9c0,1.2-2.9,6.3-6.8,11.4
		c-3.6,4.9-6.8,9.8-6.8,10.7c0,0.9-2.7,6.1-6.1,11.7c-3.6,5.6-7.5,12.1-9,14.7c-1.4,2.6-16.1,27.3-32.3,54.9
		c-16.3,27.5-30.7,52.3-32.3,54.9c-1.4,2.6-5.2,8.9-8.4,14c-9.3,15.4-11.1,18.4-13.3,23.6c-1.1,2.8-6.1,11.2-10.9,18.7
		c-10.2,16.3-11.5,18.7-18.5,31.7c-2.9,5.6-8.1,14.5-11.8,20.1c-3.6,5.6-6.6,11-6.6,11.9c0,0.9-2.9,6.1-6.3,11
		c-3.6,4.9-7,10.7-7.9,12.6c-7.9,16.6-19.7,32.2-26.7,35c-6.6,2.8-8.1,2.8-15.4-1.6c-7.5-4.4-13.1-11.4-18.1-22.9
		c-1.1-2.6-5.7-10.3-10.2-16.8c-4.5-6.8-8.1-13.1-8.1-13.8c0-0.9-3.8-7.5-8.4-14.7c-9.9-15.6-18.3-30.3-20.1-35.7
		c-0.9-2.3-2.3-4.2-3.2-4.2c-1.1,0-4.5-5.6-7.9-12.1c-3.2-6.8-7.9-15.4-10.2-19.4c-2.5-3.7-5.2-8.6-6.1-10.5
		c-0.9-1.9-4.3-7.7-7.9-12.6c-3.4-4.9-6.3-10-6.3-11c0-0.9-4.1-7.9-8.8-15.6c-5-7.5-11.8-18.9-15.4-25.4c-3.4-6.3-17-29.6-30.1-51.8
		c-13.1-22.2-25.5-43.7-28-47.6c-2.3-4-6.1-9.8-8.4-13.1c-2.3-3-4.3-6.3-4.3-7.5c0-0.9-2.7-5.8-5.9-10.7c-3.2-4.9-6.8-11-7.9-13.5
		s-4.1-7.7-6.6-11.7c-2.5-3.7-5.2-8.6-6.1-10.5c-0.9-1.9-4.1-7.2-7-11.7c-2.9-4.4-6.3-10.3-7.5-12.8c-1.1-2.6-4.1-7.7-6.6-11.7
		c-2.5-3.7-5.4-9.1-6.8-11.7s-4.3-7.7-6.8-11.7c-2.5-3.7-5.2-8.6-6.1-10.5c-0.9-1.9-4.3-7.7-7.5-12.8c-3.4-5.1-8.1-13.1-10.4-17.5
		c-2.3-4.4-7-12.1-10.4-17.3c-3.6-4.9-6.3-10.5-6.3-12.1c0-1.6-0.9-3.3-1.8-3.7c-1.8-0.7-38.9-63.7-38.9-65.8
		c0-0.5-3.6-6.5-8.1-13.3c-4.5-7-9.7-15.6-11.5-19.6c-3.6-7.7-5.9-11.9-14.9-26.1c-3.4-5.6-6.1-10.3-6.1-10.7c0-0.5-4.5-8.2-10.2-17
		c-5.7-8.6-10.2-17-10.2-18.4c0-1.6-1.8-4.4-4.1-6.5c-3.6-3.5-19.9-3.7-160.8-4c-86.1-0.2-157.1,0.2-157.8,0.9
		c-1.6,1.4,3.2,8.9,11.5,18.7c3.2,3.7,5.9,7.7,5.9,9.1c0,1.2,2.9,6.1,6.8,11c3.6,4.9,6.8,9.6,6.8,10.5c0,0.7,2.5,4.9,5.4,8.9
		c3.2,4.2,6.8,10,7.9,13.3c1.4,3.3,4.5,9.1,7,12.8c2.5,4,5.4,9.1,6.8,11.7c1.4,2.6,4.3,7.9,6.8,11.7c2.5,4,5.4,9.1,6.6,11.7
		c1.1,2.6,4.7,8.6,7.9,13.5c3.2,4.9,5.9,9.3,5.9,10c0,0.9,2.9,5.8,6.3,11.2c3.4,5.1,7,11.2,7.9,13.1c0.9,1.9,3.6,6.8,6.1,10.5
		c2.5,4,5.2,8.6,6.1,10.5c1.6,4,15.4,27.3,26.5,45.5c3.8,6.5,8.1,13.8,9.7,16.3s10.9,18.4,21,35.5c9.9,16.8,18.1,31.7,18.1,32.9
		c0,1.4,0.9,2.8,1.8,3.3c1.4,0.5,40,65.8,78,131.4c1.6,2.6,5.4,9.1,9,14.7c3.4,5.6,6.1,10.5,6.1,11.2s2.9,5.6,6.3,11
		c3.6,5.4,7.2,11.4,7.9,13.3c0.9,1.9,3.6,6.8,6.1,10.5c2.5,4,5.4,9.1,6.8,11.7s4.3,7.9,6.8,11.7c2.5,4,5.2,8.6,6.1,10.5
		c0.9,1.9,5.2,9.1,9.7,16.3c4.5,7,9.7,15.6,11.5,18.9c5.9,11.2,15.6,28.9,19.7,35.2c2,3.3,23.5,39.7,47.5,80.5
		c53.6,91,47.9,81.7,54.7,92.9c2.9,5.1,6.8,11.4,8.4,14s3.8,7.2,5.2,10.5s5,9.1,8.1,13.3c2.9,4,5.4,8.2,5.4,8.9
		c0,0.9,3.2,6.3,6.8,12.1c3.8,5.6,6.8,10.7,6.8,11.7c0,0.7,3.2,5.8,6.8,11.7c3.8,5.6,6.8,10.7,6.8,11.4c0,0.5,2.7,5.4,6.1,11
		c8.1,13.1,11.3,18.2,14.2,23.8c1.4,2.6,4.3,7.9,6.8,11.7c2.5,4,5.4,9.1,6.8,11.7c3.4,6.5,7,12.6,14.7,24.3
		c9.7,14.9,9.3,25.4-2.3,44.1c-5,8.2-11.3,19.1-14.2,24.3c-2.7,5.4-6.3,11.4-8.1,13.3c-1.6,2.1-3.8,6.1-4.5,9.1
		c-0.9,2.8-2.5,5.1-3.6,5.1c-0.9,0-2.5,1.9-3.2,4.2c-1.6,4.2-2.7,6.3-13.3,23.1c-3.4,5.6-6.1,10.5-6.1,11c0,0.7-2.7,5.6-6.1,11.2
		c-3.6,5.6-7.5,12.1-9,14.7c-1.4,2.6-18.5,31.7-37.8,64.7c-19.4,32.9-35.3,60.5-35.3,61.2s-4.5,7.9-10.2,16.3
		c-5.7,8.6-10.2,16.3-10.2,17.5c0,0.9-2.7,6.1-6.1,11c-3.6,5.1-8.8,14.2-12,20.3c-2.9,6.1-6.3,11-7.2,11c-1.1,0-1.8,1.4-1.8,3
		c0,1.9-2.9,7.5-6.3,12.4c-3.6,4.9-7,10.7-7.7,12.8c-0.7,1.9-5.2,9.8-9.9,17.5c-11.3,17.7-13.8,22.2-16.5,27.8
		c-1.1,2.6-4.5,8.4-7.5,12.8s-6.1,9.8-7,11.7c-2,4.2-5,9.3-13.6,22.9c-3.4,5.4-8.6,14.2-11.3,19.4c-6.1,11.4-7.9,14.7-15.8,27.1
		c-3.4,5.6-6.1,10.5-6.1,11.4c0,0.7-4.5,8.4-9.9,17c-5.4,8.4-12.2,19.8-15.1,25.2c-13.8,24.7-28,48.6-32.6,54.2
		c-8.6,10.5-9,15.9-1.8,19.8c9.3,4.9,22.6,22.6,30.7,40.6c6.8,14.7,7.2,17.3,7.2,42.7c0,14.9-1.1,29.6-2.5,32.7
		c-12.9,29.2-24,45.1-41.1,58.8c-8.1,6.5-32.3,17.7-40,18.4l-6.8,0.7v32.7c0,18-0.9,35.2-1.8,38.1c-2.7,7.5-14,12.4-22.2,9.3
		c-11.8-4.2-12.9-9.1-11.1-43.9c1.6-33.4,0.9-37.3-7.9-37.3c-2.9,0-8.1-1.9-12-4c-8.1-4.9-12.9-3-17.2,6.8
		c-4.1,8.9-11.3,22.2-20.1,36.2c-3.4,5.6-6.1,10.5-6.1,11c0,0.7-2.9,5.8-6.8,11.4c-3.6,5.8-6.8,11.2-6.8,12.4c0,0.9-1.6,3.5-3.4,5.6
		s-5.7,8.2-8.4,13.3c-12.2,22.4-20.8,36.4-29.2,47.4c-4.7,6.3-8.8,12.8-8.8,14.5c0,2.3,30.3,3,155.3,2.3
		C1673.3,8912.2,1744.9,8912,1747,8912z M1811.2,8873.7c9.3-9.1,10.4-11.2,9.3-17.3c-0.9-4.7-0.2-7.9,1.6-9.6
		c3.8-3.3,6.1-11.9,3.4-11.9c-1.4,0-3.4,3-4.5,6.8c-1.4,4-5,7.9-8.6,9.6c-6.6,2.8-11.5,10.7-11.5,18.4c0,2.3-1.6,5.6-3.4,7.2
		c-2.9,2.6-2.9,3.5-0.7,4.9c1.6,1.2,3.2,2.1,3.4,2.1S1805.3,8879.3,1811.2,8873.7z M2540.1,8881.4c0-1.4-2-5.1-4.5-8.4
		c-2.5-3.3-4.5-7.5-4.5-9.1c0-3.7-13.6-17.3-17.4-17.3c-9,0-3.4,18,8.1,25.9c4.5,3,9,6.8,9.9,8.4
		C2534,8884.6,2540.1,8884.9,2540.1,8881.4z M2508.5,8871.3c0-3.7-3.2-8.4-5.9-8.4c-3.2,0-4.3,5.1-1.6,7.7
		C2502.6,8872.5,2508.5,8873,2508.5,8871.3z M1851.9,8802.9c2.3-2.3,6.1-5.4,8.6-6.5c5.9-3,8.4-24.5,2.9-24.5
		c-5.7,0-12.4,7.7-15.8,17.5c-1.8,5.1-4.1,11.2-5,13.5C1840.3,8808.3,1846.7,8808.3,1851.9,8802.9z M2494.7,8804.1
		c0-1.6-2.9-8.2-6.1-14.7c-4.7-9.3-7.2-11.7-11.8-11.7c-5,0-5.7,0.9-5.7,7.9c0,5.4,1.4,8.6,4.5,10.5c2.5,1.4,5.9,4.4,7.5,6.8
		C2486.5,8807.6,2494.9,8808.3,2494.7,8804.1z M1875.4,8796.4c0-1.9-1.6-3.5-3.4-3.5c-1.8,0-3.4,1.6-3.4,3.5c0,1.9,1.6,3.5,3.4,3.5
		C1873.8,8799.9,1875.4,8798.3,1875.4,8796.4z M2465.5,8796.4c0-1.9-1.6-3.5-3.4-3.5s-3.4,1.6-3.4,3.5c0,1.9,1.6,3.5,3.4,3.5
		S2465.5,8798.3,2465.5,8796.4z M1885.8,8784.7c5.7-3,23.5-3.5,116.7-3.5h110.1l0.7-195.2l0.7-195.2l7.7-6.5c7-6.3,7.5-7.2,6.1-16.8
		c-2.5-15.2-2.7-25.4-0.9-35c1.1-7,0.7-8.6-2.9-9.6c-3.4-0.9-5.2,0.7-7.5,6.3c-1.8,4.2-6.3,10-10.2,12.8c-3.8,2.8-7,6.8-7,8.6
		c0,1.9-2,7.2-4.5,11.9c-4.5,8.9-5.7,15.2-3.2,17.7c2,2.1,12.7-3.3,18.3-9.3s7.5-6.8,7.5-2.3c0,1.9-2.7,5.6-5.9,8.9
		c-3.2,3-7.9,10.3-10.2,16.1c-6.1,14-15.6,32.9-19,37.3c-1.4,1.9-5,8.4-8.1,14.7c-2.9,6.1-6.1,11-7,11c-1.1,0-1.8,1.2-1.8,2.6
		s-2.9,7.2-6.8,12.8c-3.6,5.8-9.9,16.3-13.8,23.8c-4.1,7.2-10.2,17.7-13.6,23.3c-3.6,5.6-6.6,11-6.6,11.9s-2.9,6.3-6.8,11.4
		c-3.6,5.4-6.8,10.3-6.8,10.7c0,0.7-2.9,5.8-6.8,11.4c-3.6,5.8-6.8,11-6.8,11.9c0,0.7-2.7,5.1-5.9,10s-6.8,11-7.9,13.5
		c-1.1,2.6-3.4,6.8-4.7,9.3c-4.3,6.5-13.8,22.6-17,28c-1.6,2.6-6.8,11.4-12,19.8c-5,8.4-10.2,16.8-11.3,18.7
		c-1.1,1.9-10.2,17.7-20.3,35c-24.4,42.3-22.8,39.7-30.5,50.2c-8.1,11-12.4,19.1-12.4,23.6
		C1875.4,8789.2,1877.9,8789.2,1885.8,8784.7z M2458.7,8784.7c0-3.3-5.7-14.2-9-17.5c-2.7-2.6-11.3-16.3-11.3-17.7
		c0-0.9-1.6-3.5-3.4-5.6c-1.8-2.1-5.7-7.9-8.4-13.3c-4.5-8.2-79.8-136.8-90.4-154.3c-2-3.5-5.9-10.3-8.4-14.9
		c-2.5-4.9-7.5-13.3-10.9-18.7c-9-14.5-11.5-18.9-14-24c-1.1-2.6-4.7-8.6-7.9-13.5c-3.2-4.9-5.9-9.3-5.9-10c0-0.9-2.9-5.8-6.3-11.2
		c-3.4-5.1-7-11.2-7.9-13.1c-0.9-1.9-3.6-6.5-6.1-10.5c-2.5-3.7-5.2-8.6-6.1-10.5c-0.9-1.9-5.2-9.8-9.7-17.5
		c-4.5-7.7-11.8-21.2-16.1-30.3c-4.3-8.9-10.6-19.1-14-22.6c-3.6-3.7-6.1-8.9-6.1-12.6v-6.3l7.9,8.6c6.1,6.8,9.3,8.6,14,7.9
		c7.9-0.9,9-5.8,3.2-13.5c-7.7-10-15.6-21.7-22.2-33.1c-3.4-6.1-7.7-11.7-9-12.4c-5.2-1.9-5.7,9.3-0.9,21.7
		c6.1,15.6,5.9,19.1,0,19.1c-4.5,0-4.7,0.9-3.6,9.6c1.1,9.1,2.3,10.7,10.6,16.1c2.9,1.6,3.6,27.5,4.5,201.2
		c1.1,197.7,1.1,199.1,5.7,198c2.5-0.7,53.1-1.2,112.4-1.2c83.2,0,108.5,0.7,110.8,3C2454,8789.4,2458.7,8788.9,2458.7,8784.7z
		 M1523.8,8735.7c0-4.9-13.6-13.8-17.4-11.4c-4.1,2.6-1.6,10.3,4.5,13.5C1519.1,8742.2,1523.8,8741.3,1523.8,8735.7z M2827.9,8731.7
		c2.9-3.5,3.4-5.6,1.6-7.5c-1.6-1.6-2.9-1.6-4.1-0.2c-0.9,1.4-4.3,4.2-7.7,6.5c-3.6,2.3-6.3,5.1-6.3,6.5
		C2811.4,8741.3,2823.4,8737.3,2827.9,8731.7z M1607.5,8715.6c15.1-7.7,26.7-18.2,32.3-28.9c6.3-12.1,11.5-30.1,11.8-39.5
		c0-18.2-9.7-41.6-23.5-55.3c-14.7-14.9-26.7-20.8-45.4-22.4c-30.7-2.3-59.9,15.2-73.9,44.4c-6.3,12.6-7.2,16.8-7,33.1
		c0,14,1.4,21.5,5,30.1c5,11.7,29.4,38.8,35,38.8c1.6,0,4.3,1.6,5.9,3.5c2.3,2.6,7.9,3.5,24.6,3.5
		C1591.9,8722.9,1595.3,8722.2,1607.5,8715.6z M2786.5,8719.4c1.6-1.9,4.3-3.5,5.9-3.5c5.4,0,29.4-26.6,34.8-38.5
		c12.2-27.8,4.3-65.8-17.9-86.8c-19.7-18.4-49.7-25.9-72.8-18.2c-22.6,7.7-44.3,30.1-50.2,52.3c-5,18.9-4.5,29.9,1.8,47.4
		c7.7,21.2,25.8,40.9,43.2,46.9C2746.3,8723.8,2782.7,8724.3,2786.5,8719.4z M1629,8553.2c-0.2-9.3-7.9-14.5-16.7-11
		c-5.4,2.1-4.5,4.7,3.8,10C1624.9,8558.1,1629,8558.5,1629,8553.2z M2717.4,8552c8.8-6.1,10.2-8.9,4.1-8.9c-7,0-16.3,5.6-16.3,10
		C2705.2,8558.5,2707.6,8558.3,2717.4,8552z M2196.4,8291.2c0-4.9-16.7-34.3-21-36.9c-5.2-3-16.5-1.9-21.3,2.1
		c-1.4,1.2-3.8,7.2-5.2,13.5c-1.6,6.5-3.6,11.7-4.7,11.7c-1.1,0-2,1.6-2,3.7c0,2.8,1.6,2.3,7.2-2.6c6.3-5.6,8.8-6.3,18.3-5.1
		c8.6,0.7,12.7,2.6,18.1,8.4C2193.1,8293.3,2196.4,8295.2,2196.4,8291.2z M2397.7,7983.8c2-5.1,1.4-7.2-3.6-13.3
		c-5.4-6.8-16.5-14.5-18.1-12.6c-2.5,2.6,2.9,18.4,8.6,24.5C2392.5,7991.5,2395,7991.7,2397.7,7983.8z M1947.7,7985.2
		c5.2-2.8,17.4-27.3,14.9-29.6c-1.8-1.9-14.9,4.9-21.7,11.4c-5.7,5.4-6.3,20.5-0.9,20.5C1941.9,7987.5,1945.5,7986.4,1947.7,7985.2z
		 M1949.3,7939.2c4.1-4.9,7.5-10.7,7.5-12.8s-3.4-8.2-7.2-13.5l-7.5-9.6h-253.9c-139.7,0.2-254.8,0.7-255.7,1.2
		c-2.5,1.6-1.4,41.3,1.4,43c1.4,0.9,116.2,1.4,255.5,1.2l252.8-0.5L1949.3,7939.2z M2645.5,7947.9c135,0,246.2,0.5,247.3,1.2
		c1.1,0.7,4.1,0.5,6.3-0.9c3.4-1.9,4.1-4.9,3.6-22.4c-0.2-11-0.9-20.5-1.4-21.2c-0.7-0.5-115.5-0.9-255.3-0.9l-254.1-0.2l-7.2,8.9
		c-7.7,9.1-9,15.2-5.2,20.1c1.1,1.6,5,6.3,8.1,10.5c3.6,4.7,7.5,7.2,9.3,6.5C2398.8,7948.6,2510.5,7947.9,2645.5,7947.9z
		 M2392,7883.7c5-4.7,7.9-12.6,7.9-22.2v-9.6l-6.8,7.2c-3.6,4-6.8,8.2-6.8,9.3c0,1.4-2.3,4.7-5,7.7c-2.9,2.8-5.4,5.8-5.4,7
		c-0.2,0.9-0.5,2.8-0.7,4c0,1.4-1.8,2.3-3.6,2.3c-3.4,0-4.7,9.3-1.8,12.6c0.9,0.7,5.7-2.6,10.6-7.2
		C2385.5,7890,2390.7,7884.8,2392,7883.7z M1961.8,7892.8c-0.5-2.3-2.3-6.1-4.1-8.2c-1.8-1.9-3.2-5.4-3.2-7.5c0-4.9-10.9-18-14.9-18
		c-4.5,0-6.1,5.6-4.5,14.7c1.1,5.8,3.8,9.3,11.5,14.5c5.7,3.5,10.2,7.5,10.2,8.6c0,1.2,1.4,1.9,2.9,1.2
		C1961.1,7897.7,1962,7895.1,1961.8,7892.8z M2411.2,7878.8c0-4-5-3.3-6.3,0.9c-0.5,1.6,0.7,2.8,2.7,2.8
		C2409.7,7882.5,2411.2,7880.9,2411.2,7878.8z M2174.3,7598.4c2-2.3,5.9-8.4,8.6-13.5c2.5-5.1,5.9-11.2,7.5-13.3
		c3.8-6.1-0.5-8.4-4.7-2.3c-5.9,7.7-26.7,8.4-36.6,0.9c-3.8-3-7.7-4.9-8.4-4.4c-2.7,3,14.2,29.6,20.8,33.1
		C2170,7603.3,2170.2,7603.1,2174.3,7598.4z M2174.7,7556.6c0.9-3.3,4.1-10,7.2-15.2l5.7-9.1l-0.2-237.9c0-230.2,0-237.9,4.3-243.2
		l4.3-5.6l138.1,0.2c76,0.2,138.1-0.5,138.1-1.4s5-8.9,11.1-17.5s10.6-17,10.2-18.4c-0.7-1.9-40.9-2.3-149.9-1.9l-148.8,0.7
		l-4.1-6.3c-3.6-5.6-3.8-10.7-2.9-45.8c0.7-21.5,0.2-39.2-0.7-39.5c-9.7-0.7-38-0.2-39.8,0.9c-1.4,0.9-1.8,16.6-1.1,39.7
		c0.9,33.8,0.5,39-2.9,44.6l-4.1,6.3l-149.4-0.2c-94.3-0.2-149.7,0.5-150.1,1.9c-0.2,1.2,0.7,3.7,2.3,5.4c1.6,1.9,7,9.6,12,17.3
		c11.1,17.3,12,18,20.3,15.9c3.8-0.7,64.2-1.6,134.5-1.9c125-0.2,127.7-0.2,132.9,4.4l5,4.7v238.8l-0.2,238.6l5.7,9.3
		c3.2,5.1,6.3,11.9,7.2,15.2c1.1,4.7,2.7,6.1,7.7,6.1C2172,7562.7,2173.6,7561.3,2174.7,7556.6z M2214.5,7526.5c0-1.9,2-4.4,4.7-5.8
		c2.5-1.6,6.1-6.1,7.9-10c1.8-4.2,5.7-11.7,8.6-16.8s5.9-12.1,6.8-15.6c1.4-5.8,0.7-6.5-4.1-6.5c-2.9,0-6.6,1.6-8.1,3.7
		c-1.8,1.9-5,4.7-7.5,5.8c-3.8,2.3-4.1,1.9-2.7-3c0.9-2.8,3.2-6.1,4.7-7.2c1.6-0.9,7-10.3,12-21c5-10.5,12.2-24.3,16.1-30.8
		c3.6-6.3,7.9-14.2,9.3-17.5c1.1-3.3,4.7-8.9,7.5-12.8c2.7-3.7,5.9-8.6,6.6-10.5c0.9-1.9,3.6-6.5,6.1-10.5c2.5-3.7,5.2-8.6,6.1-10.5
		c0.9-1.9,4.1-7.2,7-11.7c2.9-4.4,6.3-10.3,7.5-12.8c2.5-5.1,5-9.6,14-23.8c3.4-5.6,6.1-10.5,6.1-11c0-0.7,2.7-5.6,6.3-11.2
		c3.4-5.6,7.2-12.1,8.8-14.7c1.4-2.6,19.2-32.9,39.6-67.5c20.3-34.5,39.3-67,42.1-72.4c5.7-10,21-34.5,23.1-36.4
		c3.4-3,9-14.2,9-17.5c0-4.4-3.8-4.4-11.3,0c-4.7,2.8-24.2,3.3-112.4,3.5h-106.7l-0.5,180.4c0,99-0.9,186-1.6,193.1
		c-1.4,10.3-2.3,12.6-5.4,12.1c-4.7-0.7-7.7,4.7-9.3,17.5c-1.4,11,0,13.5,4.7,9.6c2.7-2.3,2.9-0.9,1.6,11
		c-0.9,7.7-2.5,16.3-3.6,19.4c-1.6,4.2-1.1,5.1,2.5,5.1C2212.5,7530,2214.5,7528.4,2214.5,7526.5z M2124.1,7509.2
		c0-6.5,1.1-12.4,2.3-13.1c1.4-0.7,2.3-6.1,2.3-11.9c0-5.6-0.9-10.3-2.3-10.3c-1.1,0-2.3-2.1-2.3-4.4c0-3.3-1.1-4.2-4.1-3.3
		c-3.8,0.9-4.5-0.9-5.7-13.5c-0.9-7.9-1.6-94.8-1.6-192.6c0-141-0.7-178.3-2.7-178.6c-1.6,0-49.5,0-106.3,0.2
		c-92.9,0.2-104.2-0.2-111.5-3.7c-9.9-4.7-15.6-1.6-9.7,5.4c8.1,9.8,26.2,39.2,67.6,109.9c24.2,41.3,47,80.8,51.1,87.5
		c4.1,6.5,8.1,13.8,8.8,15.6c0.9,1.9,4.3,7.7,7.7,12.8c3.4,5.1,6.8,11,7.5,12.8c0.9,1.9,2.9,5.6,4.3,8.2
		c11.3,18.2,21.7,35.5,23.1,38.5c1.6,3.7,4.3,8.2,12.9,22.2c3.2,5.1,6.6,11,7.2,12.8c0.9,1.9,4.7,8.9,8.4,15.2
		c9.9,16.6,22.6,43.4,22.6,47.2c0,1.6,1.8,4,4.1,4.7c5.2,2.1,9.3,7.9,9.5,13.3c0,4-0.2,4-3.8-0.2c-6.8-7.7-25.8-22.4-27.1-20.8
		c-1.1,1.2,1.4,7.5,11.3,28.9c5.9,12.6,19,28.5,23.3,28.5C2123.2,7520.7,2124.1,7517.6,2124.1,7509.2z M2472.7,7087.2
		c5.4-6.5,16.5-30.8,14.7-32.4c-1.6-1.6-14.5,7.7-21.9,16.1c-4.3,4.7-6.1,15.6-2.9,18.7C2465,7092.3,2469.1,7091.4,2472.7,7087.2z
		 M1873.1,7081.6c0-6.1-3.8-13.8-9.9-18.9c-9.7-8.2-15.4-3-9.3,8.9c1.8,3.7,3.4,7.9,3.4,9.6c0,1.4,2.7,3.3,6.3,3.7
		c3.4,0.5,6.8,1.2,7.9,1.4C1872.5,7086.2,1873.1,7084.4,1873.1,7081.6z M2458.7,7069.2c0-4.2-3.6-6.8-6.8-4.9
		c-2.9,1.9-0.2,8.2,3.6,8.2C2457.4,7072.5,2458.7,7071.1,2458.7,7069.2z M1881.7,7067.6c-0.5-1.4-1.8-2.3-2.9-2.3s-2.5,0.9-2.9,2.3
		c-0.5,1.4,0.9,2.6,2.9,2.6S1882.2,7069,1881.7,7067.6z M1850.5,7055.2c0-0.5-1.6-2.1-3.4-3.7c-2.7-2.3-3.4-2.3-3.4,0.9
		c0,2.1,1.6,3.7,3.4,3.7C1848.9,7056.1,1850.5,7055.7,1850.5,7055.2z M1829.7,7011.8c-0.9-12.6-1.8-14.9-8.8-21
		c-4.3-3.7-9.3-6.5-11.1-6.3c-5.9,0.9-5.2,12.1,0.9,19.8c3.4,3.7,5.9,8.2,5.9,9.6c0,2.8,9,11.9,12,11.9
		C1829.7,7025.8,1830.2,7019.5,1829.7,7011.8z M2508.5,7016.7c0-1.2,3.4-3.7,7.5-5.8c7.5-3.5,12.9-14.5,12.9-25.7
		c0-5.1-1.6-4.7-9.5,2.1c-3.6,3.3-7.9,5.8-9.7,5.8c-1.6,0-3.4,2.3-4.3,5.4c-2,8.2-1.6,20.3,0.9,20.3
		C2507.5,7018.8,2508.5,7017.8,2508.5,7016.7z M1839.7,6996.6c0-1.2-1.1-2.6-2.5-3c-1.4-0.5-2.5,0.9-2.5,3s1.1,3.5,2.5,3
		C1838.5,6999.2,1839.7,6997.8,1839.7,6996.6z M2928.3,6939.9c5.4-4.9,7.2-8.4,7.7-16.3c0.9-12.1-0.9-13.8-19.9-15.9
		c-11.3-1.2-15.4-0.7-19.9,2.3c-7.5,5.1-7.2,8.6,1.1,14.2c3.8,2.6,9.5,8.6,12.9,13.5c3.2,4.7,7,8.6,8.4,8.6
		C2919.9,6946.2,2924.2,6943.4,2928.3,6939.9z M1425.9,6940.1c2.3-2.1,4.1-5.1,4.1-7c0-1.6,2.5-4.4,5.7-5.8
		c9-4.2,10.4-15.9,1.8-15.9c-2,0-7-1.2-10.9-2.6c-5.2-2.1-9.5-1.9-18.1,0.7l-11.3,3.3l0.9,10
		C1399.2,6939.9,1415.5,6949.9,1425.9,6940.1z M1757.8,6924.5c0-2.3-7.5-8.4-10.4-8.4c-4.7,0-3.8,3.7,2,6.5
		C1754.9,6925.4,1757.8,6925.9,1757.8,6924.5z M1475.2,6914.2c0-3-2.7-5.1-5-3.7c-2.3,1.4-0.2,5.6,2.9,5.6
		C1474.3,6916.1,1475.2,6915.1,1475.2,6914.2z" />
		<path
			d="M1664.7,7270.4l-6.8-7.5l1.6-33.1l1.6-33.1l-9.9-1.6c-30.5-5.1-64.9-36.4-76-69.1c-9.7-28.5-11.1-39.7-7-57.4
		c7.5-31.7,21-54.6,42.7-71.9c21.5-17,37.3-22.6,64.4-22.9c23.3,0,32.3,2.1,52.9,12.4c20.1,10.3,47.3,42.5,51.1,60.7
		c0.9,4.4,2.9,10.3,4.5,12.8c4.3,7.2,4.3,45.5-0.2,56.5c-10.6,26.1-18.5,39.2-31.2,51.4c-7.2,7-15.4,13.8-18.1,14.9
		c-2.7,1.4-7.2,3.7-10.4,5.6c-3.2,1.9-11.5,4.7-19,6.3l-13.1,2.8l1.6,32.2c0.9,17.5,0.9,34.1,0,36.6c-1.6,5.1-12,11.9-18.1,11.9
		C1673,7277.9,1668.3,7274.4,1664.7,7270.4z M1711.7,7154.2c33.5-19.4,47-55.1,35.9-94.5c-3.2-11.7-18.3-30.6-30.5-38.3
		c-16.5-10.5-45.2-17.5-50.4-12.1c-1.4,1.4-4.7,2.6-7.7,2.6c-5.2,0-23.5,8.9-30.1,14.5c-6.3,5.6-17.6,21.7-21.5,31
		c-5.7,13.3-5.7,43.2,0.2,57.7c6.8,17,18.8,30.1,35,38.5c20.1,10.3,19.2,10,38.9,9.1C1696.1,7161.9,1701.3,7160.2,1711.7,7154.2z" />
		<path
			d="M2649.3,7275.6c-9.3-4-10.4-10-8.6-45.5l1.6-33.1l-11.1-1.9c-5.9-0.9-16.3-4.7-23.1-8.2c-47.7-25.9-71.9-81.5-56.7-130
		c7.5-23.3,11.1-29.9,26.5-47.2c14.2-16.1,28.9-25.9,49.3-32.4c13.1-4.2,50.4-4.9,58.1-1.2c2.9,1.4,9.7,4.4,15.4,6.8
		c12.9,5.4,33.9,21.7,42.3,32.9c8.4,11,19.7,35.9,22.2,48.6c7.7,38.5-8.4,82.9-39.8,109.9c-12.2,10.5-17.6,13.1-36.9,18.7l-15.6,4.4
		l1.6,33.4l1.6,33.4l-6.8,6.8C2662.4,7278.1,2657.9,7279.1,2649.3,7275.6z M2693.6,7152.8c25.8-15.9,39.1-41.1,37.5-70
		c-0.9-14.7-6.1-31.7-11.8-38.5c-1.6-1.9-2.9-4.4-2.9-5.4c0-0.9-3.6-5.1-8.4-9.6c-12.9-12.1-42.3-23.8-54.3-21.5
		c-18.3,3.5-27.8,7.2-38,14.5c-12,8.4-28.3,28.2-28.3,34.5c0,2.1-1.1,4.4-2.5,5.1c-1.1,0.9-2,4-1.8,6.5c0.2,2.8-0.2,8.9-1.1,13.5
		c-1.1,5.6-0.5,12.8,2.3,22.2c6.3,22.9,17.2,37.1,36.6,49.3c13.6,8.4,21.5,10,41.4,8.9C2677.3,7161.4,2681.6,7160.2,2693.6,7152.8z" />
	</g>
</svg>