<?xml version="1.0" encoding="utf-8"?>
<!-- Generator: Adobe Illustrator 28.4.1, SVG Export Plug-In . SVG Version: 6.00 Build 0)  -->
<svg version="1.1" id="Layer_1" xmlns="http://www.w3.org/2000/svg" xmlns:xlink="http://www.w3.org/1999/xlink" x="0px" y="0px"
	 viewBox="0 0 2600 2600" style="enable-background:new 0 0 2600 2600;" xml:space="preserve">
<style type="text/css">
	.st0{fill:#FFFFFF;}
</style>
<g transform="translate(0.000000,2600.000000) scale(0.100000,-0.100000)">
	<path class="st0" d="M5301.5,25783.6c-157.8-26.7-338.1-102.9-461.4-193.8c-152.5-113.6-299.6-306-363.3-478.4
		c-80.9-213.8-75.6,231.2-71.6-5829.4c4-5280.2,5.3-5536.7,27.8-5612.9c37.1-125.6,133.9-312.7,208.2-403.6
		c128.6-160.4,320.9-287.3,530.3-354.1l99.4-30.7h7981.6h7981.6l99.4,30.7c358,113.6,613.9,370.2,725.2,731l37.1,120.3v5566.1
		c0,5324.3-1.3,5570.2-23.9,5653c-13.3,48.1-54.4,149.7-91.5,227.2c-59.7,124.3-80.9,153.7-194.9,267.3
		c-111.4,112.3-144.5,137.7-267.8,199.1c-98.1,48.1-176.3,77.5-265.2,94.9c-123.3,25.4-245.3,26.7-8006.8,25.4
		C8910.5,25794.3,5336,25788.9,5301.5,25783.6z M21087.1,24751.9c18.6-26.7,21.2-490.5,21.2-4657.4v-4626.6l-115.3,117.6
		c-153.8,155-241.3,197.8-483.9,235.2l-50.4,8V19727c0,4220.4,4,3966.5-67.6,4108.1c-38.4,77.5-145.8,187.1-221.4,228.5
		c-149.8,82.9,421.6,76.2-6917,76.2c-7259,0-6761.8,5.3-6903.7-68.2c-78.2-40.1-185.6-147-229.4-227.2
		c-76.9-144.3-72.9,132.3-72.9-4110.8V15830l-35.8-8c-21.2-2.7-66.3-10.7-103.4-14.7c-171-22.7-331.5-127-482.6-314.1l-26.5-33.4
		l-1.3,4640c0,4200.3,1.3,4641.3,21.2,4660.1c18.6,20,749.1,21.4,7834.5,21.4h7814.6L21087.1,24751.9z M19530.6,17451.1V17137
		h-148.5h-149.8l4-433c2.7-271.3-1.3-461.1-9.3-510.5c-17.2-89.5-74.2-220.5-135.2-306l-42.4-60.1h-1972.9h-1972.9l-63.6,97.6
		c-114,172.4-116.7,185.8-116.7,735v477.1h-148.5h-149.8v314.1v314.1h2452.8h2452.8V17451.1z M11375.2,16776.2
		c165.7-24.1,310.2-133.6,383.2-291.3c29.2-64.1,35.8-94.9,35.8-196.5c0-102.9-5.3-131-34.5-195.1
		c-42.4-90.9-116.7-176.4-196.2-228.5l-59.7-37.4h-1427.9H8648l-79.6,53.5c-310.2,209.8-278.4,684.2,57,848.6
		c39.8,20,103.4,41.4,141.9,46.8C8868.1,16790.9,11273.2,16790.9,11375.2,16776.2z M20528.9,15304.8
		c63.6-17.4,139.2-92.2,181.6-179.1c29.2-57.5,33.1-85.5,33.1-207.1c0-118.9-5.3-151-30.5-207.1c-33.1-73.5-95.5-145.7-151.1-175.1
		c-30.5-16-1064.7-18.7-7312.1-18.7H5973.7l-49.1,30.7c-55.7,33.4-86.2,70.8-131.3,156.4c-27.8,53.5-31.8,77.5-31.8,207.1
		c0,133.6,2.7,153.7,37.1,223.2c39.8,82.9,111.4,151,175,169.7C6033.4,15323.5,20465.3,15323.5,20528.9,15304.8z M5529.6,14222.3
		c95.5-97.6,229.4-171.1,355.3-197.8c99.4-21.4,14636.1-21.4,14735.5,0c163.1,33.4,354,164.4,458.7,312.7l27.8,40.1l1.3-220.5
		c0-179.1-4-227.2-21.2-251.2l-19.9-29.4h-7814.6H5438.1l-19.9,29.4c-17.2,24.1-21.2,72.2-19.9,251.2c0,208.5,1.3,219.2,21.2,187.1
		C5431.5,14325.2,5480.5,14270.4,5529.6,14222.3z"/>
	<path class="st0" d="M15615.3,17113c-57-62.8-62.3-106.9-62.3-473.1c0-312.7,2.7-356.8,25.2-406.3
		c29.2-62.8,78.2-106.9,145.8-125.6c31.8-10.7,480-13.4,1381.5-10.7l1332.5,4l55.7,36.1c99.4,66.8,102.1,77.5,106.1,478.4
		c5.3,368.8-1.3,421-51.7,486.5l-26.5,34.7h-1442.5C15710.8,17137,15635.2,17135.7,15615.3,17113z"/>
	<path class="st0" d="M5257.8,12158.9c-344.7-76.2-624.5-322.1-725.2-637.5l-27.8-89.5l-684.1-5.3c-745.1-6.7-751.8-6.7-997-89.5
		c-157.8-53.5-301-129.6-442.8-236.5c-78.2-60.1-354-338.1-936.1-946.2c-453.4-474.4-844.6-888.7-869.8-922.1
		c-66.3-88.2-119.3-209.8-137.9-318.1c-10.6-64.1-29.2-116.3-55.7-153.7c-21.2-32.1-55.7-96.2-76.9-144.3
		c-67.6-151-78.2-221.8-78.2-574.7c0-372.9,13.3-453,108.7-637.5c67.6-131,214.8-286,339.4-356.8l82.2-46.8V4093.7
		c0-2544.5,2.7-2917.4,19.9-2992.2c59.7-252.6,267.8-446.4,522.4-486.5c291.7-45.4,590,145.7,678.8,433
		c23.9,78.8,25.2,172.4,25.2,2973.5v2892h285.1h285.1V4712.4c0-2356.1-2.7-2261.2,65-2394.8c38.4-74.8,135.2-179.1,205.5-220.5
		c139.2-81.5,332.8-96.2,489.2-34.7c95.5,36.1,224.1,152.4,270.5,245.9c72.9,145.7,70.3,29.4,70.3,2404.2v2201.1h172.4
		c160.4,0,172.4-1.3,172.4-25.4c0-13.4-27.8-286-61-604.1c-68.9-660.2-70.3-769.8-14.6-932.8c18.6-53.5,54.4-131,78.2-172.4
		c59.7-101.6,210.8-252.6,315.6-314.1c177.7-104.2,330.1-129.6,773-129.6H5397v-233.9v-235.2l-71.6-102.9
		c-38.4-56.1-83.5-127-98.1-156.4c-14.6-29.4-311.6-765.8-660.3-1637.1L3933.2,786.1l-1.3-133.6c0-117.6,4-143,34.5-207.1
		c50.4-108.2,131.3-192.4,232-241.9c214.8-106.9,487.9-41.4,623.1,148.3c27.8,40.1,267.8,621.4,678.8,1650.5
		c590,1478.1,637.7,1593,678.8,1621.1l43.8,29.4h1410.7h1409.4l45.1-42.8c38.4-38.8,129.9-259.3,670.9-1614.4
		c343.4-863.3,636.4-1589,651-1611.7c39.8-65.5,139.2-151,221.4-189.8c65-30.7,92.8-36.1,201.5-36.1c111.4,0,135.2,4,209.5,38.8
		c200.2,93.5,326.2,334.1,282.4,541.2c-17.2,82.9-1259.6,3196.7-1316.6,3302.3c-22.5,40.1-63.6,104.2-91.5,143l-51.7,69.5v239.2
		v240.6l368.6,6.7c202.9,4,396.4,14.7,433.6,22.7c37.1,8,123.3,42.8,192.2,76.2c107.4,52.1,143.2,77.5,238.7,176.4
		c177.7,180.4,255.9,367.5,254.6,616.1c0,101.6-82.2,974.2-116.7,1226.8l-6.6,56.1h1750.1H14731v-36.1c0-20-27.8-298-61-618.8
		c-65-616.1-67.6-724.3-23.9-868.7c72.9-245.9,254.6-459.7,480-564c152.5-70.8,217.4-78.8,616.5-86.9l367.3-6.7v-237.9V4258
		l-41.1-52.1c-22.5-29.4-63.6-90.9-91.5-139c-47.7-81.5-1292.7-3178-1324.5-3294.2c-51.7-189.8,35.8-423.6,201.5-534.6
		c99.4-66.8,193.6-90.9,314.2-82.9c156.5,9.4,291.7,84.2,375.2,207.1c19.9,28.1,322.2,767.1,672.2,1641.1
		c588.7,1475.4,637.7,1590.3,677.5,1618.4l43.8,30.7h1409.4H19756l45.1-42.8c39.8-38.8,124.6-241.9,664.3-1594.3
		c339.4-852.6,633.8-1578.3,652.3-1614.4c129.9-237.9,465.4-324.7,693.4-176.4c181.6,117.6,275.8,350.1,220.1,543.9
		c-30.5,106.9-1256.9,3175.3-1306,3267.5c-22.5,42.8-65,109.6-94.1,148.3l-53,69.5v239.2v239.2l368.6,6.7
		c377.9,6.7,432.2,13.4,580.7,72.2c151.1,60.1,327.5,213.8,420.3,367.5c61,102.9,112.7,261.9,123.3,382.2
		c5.3,61.5-11.9,275.3-53,677.6c-33.1,323.4-63.6,608.1-67.6,632.1l-8,42.8h179h180.3l2.7-2241.2l4-2242.5l42.4-89.5
		c54.4-117.6,149.8-213.8,266.5-268.6c82.2-40.1,99.4-42.8,228-42.8s145.8,2.7,225.4,41.4c147.2,69.5,237.3,169.7,295.7,323.4
		l29.2,76.2l4,2222.4l2.7,2221.1h278.4h278.4V4050.9c0-3152.6-5.3-2949.5,82.2-3113.8c49.1-92.2,179-220.5,267.8-261.9
		c143.2-68.2,271.8-84.2,416.3-49.4c216.1,52.1,384.5,207.1,458.7,425l27.8,82.9l4,2934.8l2.7,2936.1l87.5,50.8
		c183,108.2,348.7,328.8,411,546.6c34.5,121.6,42.4,660.2,11.9,811.2c-23.9,123-82.2,261.9-148.5,355.5
		c-29.2,41.4-43.8,78.8-43.8,109.6c-1.3,65.5-51.7,207.1-106.1,299.4c-50.4,82.9-1543.3,1659.8-1738.2,1834.9
		c-221.4,200.5-444.2,314.1-754.4,386.2c-86.2,20-194.9,24.1-784.9,28.1l-685.5,5.3l-22.5,69.5c-80.9,251.2-255.9,455.7-489.2,570.6
		c-217.4,108.2,6.6,100.2-2618.6,100.2h-2340.1l-99.4-30.7c-314.2-98.9-551.6-324.7-652.3-621.4l-30.5-89.5l-2231.4,2.7l-2231.4,4
		l-31.8,92.2c-100.8,291.3-351.4,523.9-662.9,618.8c-75.6,22.7-209.5,24.1-2399.8,26.7
		C5769.6,12176.3,5322.7,12173.6,5257.8,12158.9z M9790.9,11120.5c8-62.8,551.6-5333.6,551.6-5356.3c0-8-83.5-13.4-238.7-13.4
		h-238.7v908.8c0,1034.4,0,1027.7-102.1,1242.9c-50.4,106.9-78.2,145.7-175,241.9c-96.8,97.6-133.9,124.3-240,176.4
		c-68.9,33.4-159.1,68.2-198.9,78.8c-58.3,13.4-355.3,17.4-1538,17.4H6146.1l-106.1-36.1c-314.2-108.2-537-346.1-617.8-661.5
		c-23.9-96.2-25.2-153.7-25.2-1035.7v-932.8h-246.6h-246.6l8,50.8c10.6,66.8,551.6,5314.9,551.6,5348.3
		c0,26.7,17.2,26.7,2159.8,26.7h2159.8L9790.9,11120.5z M20503.7,11147.2c8-36.1,551.6-5339,551.6-5372.4
		c0-22.7-19.9-24.1-238.7-24.1h-237.3l-4,959.5l-4,958.2l-37.1,106.9c-115.3,331.4-372.6,560-708,628.1
		c-91.5,18.7-277.1,20-1528.7,16c-1587-4-1475.7,2.7-1677.2-97.6c-221.4-109.6-379.2-294-472-553.3l-31.8-86.9l-4-964.9l-4-966.2
		h-242.6h-242.6l4,30.7c2.7,16,127.3,1229.5,278.4,2695.5c149.8,1466,274.5,2674.2,277.1,2683.5c5.3,12,448.1,16,2159.8,16h2155.8
		L20503.7,11147.2z M3851,10414.9h533l-63.6-617.4c-35.8-339.4-66.3-618.8-68.9-621.4c-1.3-2.7-531.7-2.7-1177.4-1.3l-1173.4,4
		L2435,9740c523.7,549.3,538.3,562.6,637.7,610.7c106.1,50.8,196.2,78.8,226.7,69.5C3310.1,10417.6,3558,10414.9,3851,10414.9z
		 M22753.7,10406.9c39.8-10.7,114-41.4,164.4-68.2c84.9-42.8,132.6-88.2,576.7-554.6c266.5-278,503.8-530.6,529-558.6l45.1-53.5
		h-1176h-1174.7l-6.6,30.7c-2.7,16-30.5,270-59.7,564c-29.2,294-57,560-61,590.7l-8,57.5l547.6,4c302.3,1.3,548.9,4,550.2,6.7
		C22680.8,10426.9,22713.9,10418.9,22753.7,10406.9z M15094.3,10372.1c-2.7-24.1-29.2-278-58.3-565.3
		c-29.2-286-55.7-546.6-59.7-577.3l-8-57.5h-1984.8h-1984.8l-58.3,565.3c-30.5,310-59.7,589.4-63.6,621.4l-8,56.1h2116.1h2116.1
		L15094.3,10372.1z M4144.1,8080.2c-4-50.8-11.9-106.9-14.6-127l-8-37.4H2671H1220.6v127v127h1466.4h1466.4L4144.1,8080.2z
		 M14856.9,8066.8c-5.3-57.5-11.9-114.9-14.6-127c-6.6-22.7-106.1-24.1-1861.5-24.1h-1853.5l-9.3,104.2
		c-5.3,56.1-11.9,113.6-14.6,127c-6.6,21.4,88.8,22.7,1877.4,22.7h1885.4L14856.9,8066.8z M24754.4,8042.8v-127h-1457.1h-1455.8
		l-8,90.9c-5.3,49.4-9.3,105.6-9.3,127v36.1h1465.1h1465.1V8042.8z M8857.5,6579.4v-828.6h-1233h-1233v828.6V7408h1233h1233V6579.4z
		 M19583.6,6579.4v-828.6h-1239.7h-1239.7v828.6V7408h1239.7h1239.7V6579.4z M8857.5,4701.7v-33.4h-1233h-1233v33.4v33.4h1233h1233
		V4701.7z M19583.6,4701.7v-33.4h-1239.7h-1239.7v33.4v33.4h1239.7h1239.7V4701.7z"/>
</g>
</svg>
