<?xml version="1.0" encoding="utf-8"?>
<!-- Generator: Adobe Illustrator 28.4.1, SVG Export Plug-In . SVG Version: 6.00 Build 0)  -->
<svg version="1.1" id="SvgjsSvg1001" xmlns:svgjs="http://svgjs.com/svgjs"
	 xmlns="http://www.w3.org/2000/svg" xmlns:xlink="http://www.w3.org/1999/xlink" x="0px" y="0px" viewBox="0 0 256 256"
	 style="enable-background:new 0 0 256 256;" xml:space="preserve">
<style type="text/css">
	.st0{fill:#FFFFFF;}
</style>
<g id="SvgjsG1008">
	<path class="st0" d="M197.5,141.1c-0.7-2.7-1.4-13-2.2-26.2h-2.8c0.8,13.4,1.6,24,2.3,26.8c1.6,6.4,10.9,14.7,17.6,19.9H94.3
		c-0.5,1-1.2,2-2.1,2.8h126.5v-1.5C213.3,159,199.3,148.2,197.5,141.1z M68.6,40.3h120.6c0.1,3.3,0.3,9.2,0.6,16.6h2.8
		c-0.5-11.5-0.7-19.4-0.7-19.4h-126c0,0-0.2,7-0.7,17.4c1,0.5,1.9,1.1,2.7,1.8C68.3,49.4,68.5,43.6,68.6,40.3z"/>
	<rect x="63.7" y="27.4" class="st0" width="130.4" height="6.6"/>
	<path class="st0" d="M181.9,62.6c4.9,24.1,0.3,46.5,0.3,46.5s12.4,0.6,24.1,5.3c7.9-5.1,11.5-17.3,12.7-21.8h1.6v73.2l-32.1,25.4
		c-0.6,0.5-0.7,1.4-0.3,2c0.5,0.6,1.4,0.7,2,0.3l30.4-24v9.6c0,0.8,0.6,1.4,1.4,1.4c0.8,0,1.4-0.6,1.4-1.4v-9.4l30.1,23.7
		c0.6,0.5,1.5,0.4,2-0.3c0.5-0.6,0.4-1.5-0.3-2L223.6,166V92.6h1c2.7,0,4.8-2.2,4.8-4.8v-0.5c0-2.7-2.2-4.8-4.8-4.8h-5.2
		C218.9,80.5,214,64.6,181.9,62.6z M14.6,108.3c4.2,5.6,9.8,10.1,16.7,11.3c1.1,0.2,2.3,0.3,3.6,0.3c0.3,0,0.5,0,0.8,0v15v13.7v71
		c0,4.9,4,9,9,9c4.9,0,9-4,9-9v-65.4H57v65.4c0,4.9,4,9,9,9c4.9,0,9-4,9-9v-71v-13.7V111c0.4,0.9,0.9,1.9,1.3,3.1
		c2,5.7,3.8,14.9,3.8,29.4c0,4-0.1,8.4-0.4,13.2c-0.2,3.2,2.3,5.9,5.4,6.1c0.1,0,0.2,0,0.3,0c3,0,5.6-2.4,5.8-5.5
		c0.3-5,0.4-9.6,0.4-13.9c0-21.9-3.5-34-8.3-41.2c-2.4-3.6-5.2-5.9-7.7-7.2c-2.5-1.2-4.6-1.5-6-1.5c-0.1,0-0.2,0-0.3,0h-7
		c-1.6,5-7,8.8-7,8.8s-5.3-3.7-7-8.8h-6c-1.5-1-2.7-2-3.9-3c-0.2-0.2-0.5-0.4-0.7-0.6c-1.8-1.8-3.2-3.5-4.2-4.8
		c-0.1-0.2-0.2-0.3-0.3-0.5c0.2-0.3,0.3-0.6,0.3-1v-11c0-1-0.8-1.8-1.8-1.8h-7.5v-4h0.2c1,0,1.8-0.8,1.8-1.8V53.9
		c0-1-0.8-1.8-1.8-1.8h-11c-1,0-1.8,0.8-1.8,1.8V65c0,1,0.8,1.8,1.8,1.8h0.2v4H6.1c-1,0-1.8,0.8-1.8,1.8v4.7c-2.1,0.7-3.7,2.5-4,4.9
		C0.1,83.9,0,85.5,0,87c0,3.8,0.6,7.2,1.8,10.2c1.8,4.5,5.2,7.8,8.9,9.6C12,107.5,13.3,107.9,14.6,108.3z M34.9,117.7
		c-1.2,0-2.4-0.1-3.6-0.3c-5.3-1-9.8-4.2-13.5-8.4c1.4,0.2,2.8,0.3,4.1,0.3c3.3,0,6.5-0.4,9.3-1c1.6-0.3,3-0.7,4.3-1.1v10.6
		C35.4,117.7,35.2,117.7,34.9,117.7z M35.7,90.9c0.4,0.4,0.8,0.8,1.2,1.2c0.6,0.6,1.3,1.2,2.1,1.7c-0.3,0.1-0.6,0.2-0.9,0.3h0
		c0,0,0,0,0,0c-0.4,0.2-2.9,1.2-6.2,2c-3,0.8-6.5,1.5-9.8,1.4c-3.4,0-6.1-0.8-7.6-2c-0.8-0.6-1.4-1.4-1.9-2.7
		c-0.5-1.3-0.9-3.2-0.9-5.8c0-0.5,0-1.1,0-1.6h19.5C32.1,86.8,33.6,88.8,35.7,90.9z M26.7,75.8c1.3,0,2.4,1.1,2.4,2.4
		c0,1.3-1.1,2.4-2.4,2.4c-1.3,0-2.4-1.1-2.4-2.4C24.3,76.9,25.4,75.8,26.7,75.8z"/>
	<circle class="st0" cx="55.3" cy="73.1" r="16.3"/>
</g>
</svg>
