<?xml version="1.0" encoding="utf-8"?>
<!-- Generator: Adobe Illustrator 28.4.1, SVG Export Plug-In . SVG Version: 6.00 Build 0)  -->
<svg version="1.1" id="Layer_1" xmlns="http://www.w3.org/2000/svg" xmlns:xlink="http://www.w3.org/1999/xlink" x="0px" y="0px"
	 viewBox="0 0 326 199" style="enable-background:new 0 0 326 199;" xml:space="preserve">
<style type="text/css">
	.st0{fill:#FFFFFF;}
</style>
<g>
	<path class="st0" d="M48.5,33.7c14.7-36.5-6.1-35.8-11.6-32c-5.5,3.8-4.2,9.2-4.2,9.2s-4.6-3-10.1,0.8
		C17.1,15.5,9.2,34.7,48.5,33.7z"/>
	<ellipse transform="matrix(0.457 -0.8895 0.8895 0.457 8.2922 100.9415)" class="st0" cx="86.8" cy="43.7" rx="22.5" ry="22.5"/>
	<path class="st0" d="M322,119.7h-1.4c0.1-0.8,0.2-1.5,0.2-2.3c0-3.5-1.2-6.8-3.9-9.1c-2.7-2.2-6.6-3.4-11.7-3.4c-0.5,0-1,0-1.5,0
		c-1.3,0.1-2.7,0.1-3.9,0.1c-16.6,0-29.3-4.4-42.7-11.6c-13.4-7.2-27.3-17.2-45.9-28c-5.8-3.4-11.9-4.9-18-4.9c-5,0-10.1,1-15.2,2.7
		c-9.4-7.9-18.8-13-32.3-18.4c-14.4-5.6-26,0.8-29.9,8.7c-2.8,5.6-0.2,12.7,5,17.7l7.3-14.4c1.7-3.4,5.1-5.5,8.9-5.5
		c1.6,0,3.1,0.4,4.5,1.1c2.4,1.2,4.1,3.3,5,5.8c0.8,2.5,0.6,5.3-0.6,7.6l-8,15.7c1.1,0.6,2.3,1.3,3.4,1.9c-1.9,1.3-3.9,2.7-5.8,4.1
		c-0.3,0.2-0.7,0.5-1,0.7c-1.2,0.8-2.3,1.7-3.5,2.5L144,65.2c2-3.9,0.4-8.8-3.5-10.8c-3.9-2-8.8-0.4-10.8,3.5l-26.3,51.7
		c-1.1,0.7-2.2,1.3-3.2,2l3.7-7.2c-0.6,0-1.3,0-1.9,0c0,0-0.1,0-0.1,0c-6.5,0-11.8,0.8-15.3,3c-3.5,2.3-5.7,6-6.1,13.2
		c0,0.3,0,0.7,0,1c-1,0.4-2,0.8-3,1.2c-1.2,0.4-2.3,0.9-3.5,1.2v-4.6c0-2.2-1.8-4-4-4H44.5c-2.2,0-4,1.8-4,4v14c0,2.2,1.8,4,4,4h9.8
		c0,0.1,0,0.2,0,0.2c0,1.7,0.7,3.3,1.7,4.8H32v-88c0-2.2-1.8-4-4-4H4c-2.2,0-4,1.8-4,4V195c0,2.2,1.8,4,4,4h24c2.2,0,4-1.8,4-4v-6
		h262v6c0,2.2,1.8,4,4,4h24c2.2,0,4-1.8,4-4v-71.3C326,121.5,324.2,119.7,322,119.7z M59.5,140.3c-0.9-1.1-1.2-2-1.2-2.7
		c0-1,0.6-2.3,2.8-3.9c2.2-1.6,5.9-3.3,11.2-4.9c23.5-7.2,45.2-23.4,65.4-37.7c20.2-14.3,38.9-26.6,55.3-26.5c5.5,0,10.8,1.3,16,4.4
		c18.4,10.8,32.4,20.7,46.1,28.1c13.7,7.4,27.3,12.1,44.6,12.1c1.3,0,2.7,0,4.1-0.1c0.5,0,0.9,0,1.4,0c4.5,0,7.5,1,9.2,2.4
		c1.7,1.4,2.5,3.3,2.5,6c0.1,6.7-6,17.5-15.4,26.3c-9.3,8.9-21.8,16-33.9,16.8c-0.5,0-1,0-1.5,0c-7.6,0-20.3-3.5-34.9-7.2
		c-14.6-3.6-31.2-7.3-47.2-7.3c-10.2,0-20.2,1.5-29.1,5.6c-7.6,3.5-18.6,5-30.4,5c-15.5,0-32.4-2.6-45.3-6.5
		c-6.4-1.9-11.9-4.2-15.6-6.5C61.8,142.5,60.4,141.4,59.5,140.3z"/>
	<ellipse transform="matrix(0.993 -0.1185 0.1185 0.993 -10.1031 8.1968)" class="st0" cx="63.9" cy="89" rx="22.5" ry="22.5"/>
	<path class="st0" d="M203.7,51.7c-2.6,0-4.4,1.5-4.5,1.6c-0.4,0.3-0.5,1-0.2,1.4c0.3,0.4,1,0.5,1.4,0.2v0c0,0,0.1,0,0.2-0.2
		c0.5-0.3,1.7-1,3-1c1.3,0,2.7,0.5,4.2,2.5c0.2,0.3,0.5,0.4,0.8,0.4c0.2,0,0.4-0.1,0.6-0.2c0.4-0.3,0.5-1,0.2-1.4
		C207.7,52.6,205.6,51.7,203.7,51.7z"/>
	<path class="st0" d="M197.9,48.7c-0.5,0.3-0.6,0.9-0.2,1.4c0.3,0.5,0.9,0.6,1.4,0.2l0,0c0,0,0.1-0.1,0.4-0.2
		c0.7-0.4,2.5-1.3,4.6-1.3c2.2,0,4.7,0.9,7.1,4.5c0.2,0.3,0.5,0.4,0.8,0.4c0.2,0,0.4-0.1,0.6-0.2c0.5-0.3,0.6-0.9,0.3-1.4
		c-2.7-4.1-6-5.4-8.8-5.3C200.5,46.8,198,48.6,197.9,48.7z"/>
	<path class="st0" d="M277.7,91.2c-2.6,0-4.4,1.5-4.5,1.6c-0.4,0.3-0.5,1-0.2,1.4c0.3,0.4,1,0.5,1.4,0.2c0,0,0.1-0.1,0.2-0.2
		c0.5-0.3,1.7-1,3-1c1.3,0,2.7,0.5,4.2,2.5c0.2,0.3,0.5,0.4,0.8,0.4c0.2,0,0.4-0.1,0.6-0.2c0.4-0.3,0.5-1,0.2-1.4
		C281.7,92.1,279.6,91.2,277.7,91.2z"/>
	<path class="st0" d="M286,93.2c0.2,0,0.4-0.1,0.6-0.2c0.5-0.3,0.6-0.9,0.3-1.4c-2.7-4.1-6-5.4-8.8-5.3c-3.5,0-6.1,1.9-6.1,1.9
		c-0.5,0.3-0.6,0.9-0.2,1.4s0.9,0.6,1.4,0.2h0c0,0,0.1-0.1,0.4-0.2c0.7-0.4,2.5-1.3,4.6-1.3c2.2,0,4.7,0.9,7.1,4.5
		C285.4,93,285.7,93.2,286,93.2z"/>
</g>
</svg>
