<?xml version="1.0" encoding="utf-8"?>
<!-- Generator: Adobe Illustrator 28.4.1, SVG Export Plug-In . SVG Version: 6.00 Build 0)  -->
<svg version="1.1" id="Layer_1" xmlns="http://www.w3.org/2000/svg" xmlns:xlink="http://www.w3.org/1999/xlink" x="0px"
	y="0px" viewBox="0 0 80.8 84.6" style="enable-background:new 0 0 80.8 84.6;" xml:space="preserve">
	<g>
		<path d="M40.1,30c-6.8-0.1-12.3,5.4-12.4,12.2s5.4,12.3,12.2,12.4c6.8,0.1,12.3-5.4,12.4-12.2c0,0,0-0.1,0-0.1
		C52.3,35.5,46.9,30.1,40.1,30z" fill="#ffffff" />
		<path
			d="M40.1,0c-6.8-0.1-12.3,5.4-12.4,12.2s5.4,12.3,12.2,12.4s12.3-5.4,12.4-12.2c0,0,0-0.1,0-0.1C52.3,5.5,46.9,0.1,40.1,0z"
			fill="#ffffff" />
		<path d="M40.1,60c-6.8-0.1-12.3,5.4-12.4,12.2s5.4,12.3,12.2,12.4s12.3-5.4,12.4-12.2c0,0,0-0.1,0-0.1C52.3,65.5,46.9,60.1,40.1,60
		z" fill="#ffffff" />
	</g>
</svg>