<?xml version="1.0" encoding="utf-8"?>
<!-- Generator: Adobe Illustrator 28.4.1, SVG Export Plug-In . SVG Version: 6.00 Build 0)  -->
<svg version="1.1" id="Layer_1" xmlns="http://www.w3.org/2000/svg" xmlns:xlink="http://www.w3.org/1999/xlink" x="0px" y="0px"
	 viewBox="0 0 800 800" style="enable-background:new 0 0 800 800;" xml:space="preserve">
<style type="text/css">
	.st0{fill:#FFFFFF;}
</style>
<path class="st0" d="M371.2,559.5l-45.4-45.4c-7.8-7.8-7.8-20.5,0-28.3s20.5-7.8,28.3,0l80,80c7.8,7.8,7.8,20.5,0,28.3l-80,80
	c-7.8,7.8-20.5,7.8-28.3,0s-7.8-20.5,0-28.3l46.3-46.3c-37.6-1.2-73.7-5-107.7-10.9C293.5,691.9,344.9,760,400,760
	c80.2,0,152.7-144.7,159.5-331.2l-45.4,45.4c-7.8,7.8-20.5,7.8-28.3,0s-7.8-20.5,0-28.3l80-80c7.8-7.8,20.5-7.8,28.3,0l80,80
	c7.8,7.8,7.8,20.5,0,28.3s-20.5,7.8-28.3,0l-46.3-46.3C592.7,634.6,509.7,800,400,800c-81,0-147.4-90.1-179.4-220.6
	C90.1,547.4,0,481,0,400s90.1-147.4,220.6-179.4C252.6,90.1,319,0,400,0c60.1,0,113.1,49.6,149.8,132.3c4.4,10.1-0.1,22-10.2,26.4
	c-10.1,4.4-22-0.1-26.4-10.2C482.2,78.6,440.9,40,400,40c-55.1,0-106.6,68.3-135.5,171.4c42.4-7.4,88.1-11.4,135.5-11.4
	c219.6,0,400,85.4,400,200.1c0,60.1-49.6,113.1-132.3,149.8c-10.1,4.4-22-0.1-26.4-10.2c-4.4-10.1,0.1-22,10.2-26.4
	C721.4,482.2,760,440.9,760,400c0-84.2-159.9-160-360-160c-52.1,0-101.4,5.2-145.8,14.2C245.2,298.7,240,348,240,400
	s5.2,101.4,14.2,145.8C290.3,553.3,329.8,557.9,371.2,559.5z M211.3,264.5C108.1,293.5,40,344.9,40,400s68.3,106.6,171.4,135.5
	c-7.4-42.4-11.4-88.1-11.4-135.5S204,306.9,211.3,264.5L211.3,264.5z"/>
</svg>
