<?xml version="1.0" encoding="utf-8"?>
<!-- Generator: Adobe Illustrator 28.4.1, SVG Export Plug-In . SVG Version: 6.00 Build 0)  -->
<svg version="1.1" id="Layer_1" xmlns="http://www.w3.org/2000/svg" xmlns:xlink="http://www.w3.org/1999/xlink" x="0px" y="0px"
	 viewBox="0 0 256 255.1" style="enable-background:new 0 0 256 255.1;" xml:space="preserve">
<style type="text/css">
	.st0{fill:#FFFFFF;}
</style>
<g>
	<g>
		<g>
			<g>
				<path class="st0" d="M255,124.3l-1.8-2.8l-34.1-34c-3.4-3.4-8.8-3.4-12,0c-3.4,3.4-3.4,8.8,0,12l19.5,19.5h-90.3V29l19.5,19.5
					c3.4,3.4,8.8,3.4,12,0c3.4-3.4,3.4-8.8,0-12L133.6,2.4h-0.1l-2.7-1.7L127.6,0l0,0l-3.3,0.6l-2.7,1.7h-0.1L87.7,36.4
					c-3.4,3.4-3.4,8.8,0,12c3.4,3.4,8.8,3.4,12,0L119.2,29v90.1H29l19.5-19.5c3.4-3.4,3.4-8.8,0-12c-3.4-3.4-8.8-3.4-12,0L2.4,121.7
					v0.1l-1.7,2.7L0,127.7l0,0l0.7,3.2l1.7,2.7v0.1l34.1,33.7c3.4,3.4,8.8,3.4,12,0c3.4-3.4,3.4-8.8,0-12L29,136.1h90.3v90.1
					l-19.5-19.5c-3.5-3.5-8.9-3.5-12.1-0.1c-3.3,3.4-3.4,8.8,0,12l34.1,34.1l2.8,1.8l3.3,0.6l0,0l3.3-0.6l2.8-1.8l34.1-34.1
					c3.4-3.4,3.4-8.8,0-12c-3.4-3.4-8.8-3.4-12,0l-19.5,19.5V136h90.3l-19.5,19.5c-3.4,3.4-3.4,8.8,0,12c3.4,3.2,8.8,3.4,12,0
					l34.1-34.1l1.8-2.8l0.7-3.2l0,0L255,124.3z"/>
			</g>
		</g>
	</g>
</g>
</svg>
