<?xml version="1.0" encoding="utf-8"?>
<!-- Generator: Adobe Illustrator 28.4.1, SVG Export Plug-In . SVG Version: 6.00 Build 0)  -->
<svg version="1.1" id="Layer_1" xmlns="http://www.w3.org/2000/svg" xmlns:xlink="http://www.w3.org/1999/xlink" x="0px" y="0px"
	 viewBox="0 0 800 800" style="enable-background:new 0 0 800 800;" xml:space="preserve">
<style type="text/css">
	.st0{fill:#FFFFFF;}
</style>
<g id="Layer_1_00000138540519261495787050000007598658495106383272_">
</g>
<g id="Layer_2_00000179612521424628440240000010424427889212956068_">
	<g>
		<path class="st0" d="M313.9,121.7c-13.8-13.8-36.1-13.8-49.9,0L10.8,374.9c-0.9,0.9-1.7,1.8-2.4,2.7c-0.2,0.3-0.4,0.6-0.7,0.9
			c-0.5,0.6-0.9,1.2-1.4,1.9c-0.3,0.5-0.6,0.9-0.9,1.4c-0.3,0.5-0.6,1-0.9,1.5c-0.3,0.5-0.5,1.1-0.8,1.6c-0.2,0.5-0.5,1-0.7,1.5
			c-0.2,0.6-0.4,1.1-0.6,1.7c-0.2,0.5-0.4,1-0.5,1.5c-0.2,0.6-0.3,1.3-0.5,1.9c-0.1,0.5-0.2,0.9-0.4,1.4c-0.2,0.8-0.3,1.7-0.4,2.5
			c0,0.3-0.1,0.6-0.1,0.9c-0.2,2.4-0.2,4.7,0,7.1c0,0.1,0,0.3,0.1,0.4c0.1,1,0.3,2,0.5,3c0.1,0.3,0.2,0.6,0.2,0.9
			c0.2,0.8,0.4,1.7,0.6,2.5c0.1,0.3,0.2,0.6,0.3,0.9c0.3,0.8,0.6,1.6,0.9,2.4c0.1,0.2,0.2,0.5,0.3,0.7c0.4,0.8,0.8,1.6,1.2,2.4
			c0.1,0.2,0.2,0.3,0.3,0.5c0.5,0.8,1,1.7,1.5,2.5c0,0.1,0.1,0.1,0.1,0.2c1.2,1.8,2.6,3.5,4.2,5.1L264,678.3
			c6.9,6.9,15.9,10.3,25,10.3c9,0,18.1-3.4,25-10.3c13.8-13.8,13.8-36.1,0-49.9L120.9,435.3h643.5c19.5,0,35.3-15.8,35.3-35.3
			s-15.8-35.3-35.3-35.3H120.9l193.1-193.1C327.7,157.8,327.7,135.5,313.9,121.7z"/>
	</g>
</g>
</svg>
