<?xml version="1.0" encoding="utf-8"?>
<!-- Svg Vector Icons : http://www.onlinewebfonts.com/icon -->
<!DOCTYPE svg PUBLIC "-//W3C//DTD SVG 1.1//EN" "http://www.w3.org/Graphics/SVG/1.1/DTD/svg11.dtd">
<svg version="1.1" xmlns="http://www.w3.org/2000/svg" xmlns:xlink="http://www.w3.org/1999/xlink" x="0px" y="0px"
    viewBox="0 0 256 256" enable-background="new 0 0 256 256" xml:space="preserve">
    <g>
        <g>
            <g>
                <path fill="#ffffff"
                    d="M60.3,48.3c-6.8,1.9-15.4,6-19.8,9.6c-5.4,4.2-12.7,17.8-17.6,32.6C18,105.2,12.4,131,10.6,146.9c-1,8.7-0.8,28,0.4,38c1.5,12.4,3.3,17.1,8.1,20.7c2.7,2.1,5.2,2.8,10.1,2.7c4.8,0,9.6-1.5,15.7-4.7c8.1-4.4,12.3-7.6,23.7-18.1c3.8-3.5,8.3-7.3,10-8.5c8-5.4,24-7.9,49.4-7.9s41.4,2.6,49.4,7.9c1.7,1.2,6.2,5,10,8.5c11.3,10.5,15.6,13.7,23.7,18.1c6.1,3.3,10.8,4.7,15.7,4.7c4.8,0.1,7.4-0.6,10.1-2.7c4.4-3.3,6.5-8.2,7.7-17.9c3.2-24.6,1.8-43.8-5.2-73.9c-4.8-20.8-7.9-29.9-13.8-41.4c-5.8-11.4-8.7-14.5-17.3-18.9c-7.1-3.7-12.3-5.3-17.4-5.6c-6.8-0.4-12.2,1.3-21.6,6.7c-10.5,6.1-16.2,7.1-41.2,7.1c-24.5,0-30.9-1-40.3-6.6c-5.2-3.1-8.3-4.6-12.5-6C71.3,47.7,63.8,47.4,60.3,48.3z M197.4,68.1c6.4,1.6,9.4,9.4,5.6,14.8c-4.4,6.2-13.4,5.6-16.8-1.1c-2.6-4.9,0.2-11.6,5.5-13.5C194.1,67.5,194.8,67.5,197.4,68.1z M68.6,75.1c3,1.3,5.9,4.1,7.4,7c1.8,3.5,2,8.5,0.6,12.2c-1.8,4.9-6.3,8.5-11.5,9.3c-5.1,0.8-9.5-0.6-13.1-4.2c-6.4-6.4-5.7-17.1,1.5-22.6C57.7,73.7,63.9,73,68.6,75.1z M181.6,87.1c5.1,2.6,6.6,9.7,3.1,14.3c-2,2.7-4.7,3.9-7.9,3.9c-3,0-4.8-0.9-7-3.1c-1.9-1.9-2.5-3.6-2.5-6.6c0-2.9,0.9-5,2.9-7C173.3,85.7,177.7,85.1,181.6,87.1z M216.9,86.6c1.8,0.7,4.1,3,5,5c3.3,7.3-3.3,15.4-11.1,13.5c-4.4-1-7.5-5-7.5-9.5C203.4,88.7,210.3,84.1,216.9,86.6z M199.8,105.2c5.8,3.3,6.6,11.2,1.7,15.7c-4.4,4-10.3,3.3-14.4-1.7c-1.1-1.4-1.5-2.4-1.7-4.4c-0.4-4.4,1.5-7.9,5.4-9.9C193,103.8,197.5,103.9,199.8,105.2z M102.3,117c0.6,0.3,0.8,1.7,0.9,6.2l0.2,5.7h5.4c6.8,0,6.9,0.1,6.9,5.3c0,5.7,0.1,5.6-6.6,5.6h-5.7v5.5c0,7-0.2,7.4-5.6,7.4c-5.6,0-5.8-0.2-5.8-7.2v-5.6h-5.6c-3.7,0-5.8-0.2-6.2-0.6c-0.4-0.4-0.6-2.1-0.6-4.7c0-5.6,0-5.6,6.9-5.6h5.4v-5.4c0-6.9,0-6.9,5.6-6.9C99.7,116.5,101.9,116.7,102.3,117z M160.3,120.9c1.4,0.7,3.4,2,4.4,3c4.4,4.4,5.6,11.5,2.9,16.9c-4.5,9.1-16.1,11.5-23.5,4.8c-6.5-5.8-6.8-15.7-0.7-21.7C148,119.4,154.4,118.2,160.3,120.9z" />
            </g>
        </g>
    </g>
</svg>