<svg preserveAspectRatio="none" fill="none" xmlns="http://www.w3.org/2000/svg">
<path fill-rule="evenodd" clip-rule="evenodd" d="M10.9256 11.7776C17.6675 11.7427 23.1675 17.1071 23.2378 23.8213C23.2388 23.8971 23.2391 23.9727 23.2387 24.0481H28.16C28.1606 23.9498 28.1604 23.8512 28.1594 23.7525C28.0664 14.3449 20.3379 6.82007 10.8799 6.89293L10.8329 2.40237C10.8251 1.65754 10.3672 0.999972 9.67436 0.72356C8.98147 0.447149 8.19007 0.620157 7.66862 1.15106L0.787712 8.15684C0.0727422 8.88479 0.0848315 10.0398 0.814828 10.7476L7.84036 17.5589C8.37276 18.0751 9.16756 18.2259 9.85445 17.9302C10.5413 17.6345 10.9853 16.9643 10.9775 16.2195L10.9256 11.7776Z" fill="white"/>
</svg>
