<svg width="152" height="111" viewBox="0 0 152 111" fill="none" xmlns="http://www.w3.org/2000/svg">
<path fill-rule="evenodd" clip-rule="evenodd" d="M152 41.4238C152 38.1101 149.314 35.4238 146 35.4238L48 35.4238C44.6863 35.4238 42 38.1101 42 41.4238L42 104.424C42 107.738 44.6863 110.424 48 110.424L146 110.424C149.314 110.424 152 107.738 152 104.424L152 41.4238ZM53.1864 106.674L140.814 106.674L140.814 39.1738L53.1864 39.1738L53.1864 106.674ZM47.5932 75.7363C46.0487 75.7363 44.7966 74.4771 44.7966 72.9238C44.7966 71.3705 46.0487 70.1113 47.5932 70.1113C49.1377 70.1113 50.3898 71.3705 50.3898 72.9238C50.3898 74.4771 49.1377 75.7363 47.5932 75.7363ZM144.542 72.9238C144.542 73.4416 144.96 73.8613 145.475 73.8613C145.989 73.8613 146.407 73.4416 146.407 72.9238C146.407 72.4061 145.989 71.9863 145.475 71.9863C144.96 71.9863 144.542 72.4061 144.542 72.9238Z" fill="white" fill-opacity="0.5"/>
<path fill-rule="evenodd" clip-rule="evenodd" d="M6 0C2.68629 0 0 2.68629 0 6V104C0 107.314 2.68629 110 6 110H69C72.3137 110 75 107.314 75 104V6C75 2.68629 72.3137 0 69 0H6ZM71.25 98.8135V11.1864H3.75V98.8135H71.25ZM40.3125 104.407C40.3125 105.951 39.0533 107.203 37.5 107.203C35.9467 107.203 34.6875 105.951 34.6875 104.407C34.6875 102.862 35.9467 101.61 37.5 101.61C39.0533 101.61 40.3125 102.862 40.3125 104.407ZM37.5 7.45767C38.0178 7.45767 38.4375 7.04031 38.4375 6.52547C38.4375 6.01062 38.0178 5.59326 37.5 5.59326C36.9822 5.59326 36.5625 6.01062 36.5625 6.52547C36.5625 7.04031 36.9822 7.45767 37.5 7.45767Z" fill="white"/>
</svg>
