<?xml version="1.0" encoding="UTF-8"?>
<svg id="Layer_1" data-name="Layer 1" xmlns="http://www.w3.org/2000/svg" viewBox="0 0 70.51 37.78">
  <defs>
    <style>
      .cls-1 {
        fill: #ffffff;
        stroke-width: 0px;
      }
    </style>
  </defs>
  <path class="cls-1"
    d="M6.34,37.68c-1.06-.03-1.98-.17-2.76-.41-.78-.24-1.44-.61-1.97-1.1-.53-.5-.93-1.14-1.2-1.92-.27-.78-.41-1.77-.41-2.95V.58c1.25-.23,1.87-.35,3.12-.58v31.2c0,.77.07,1.38.22,1.85.14.46.36.83.65,1.1.29.27.66.47,1.13.6.46.13,1.02.24,1.66.34-.17,1.04-.26,1.56-.43,2.59Z" />
  <path class="cls-1"
    d="M10.8,24.82c0-2.18.31-4.07.94-5.69.62-1.62,1.44-2.97,2.45-4.06,1.01-1.09,2.16-1.9,3.46-2.42,1.3-.53,2.63-.79,4.01-.79,3.04,0,5.46.99,7.27,2.98,1.81,1.98,2.71,5.04,2.71,9.17,0,.26,0,.51-.02.77-.02.26-.04.5-.07.72H14.11c.1,3.04.85,5.38,2.26,7.01,1.41,1.63,3.65,2.45,6.72,2.45,1.7,0,3.04-.16,4.03-.48.99-.32,1.71-.59,2.16-.82.23,1.08.35,1.61.58,2.69-.45.26-1.29.56-2.52.91s-2.68.53-4.34.53c-2.18,0-4.03-.32-5.57-.96-1.54-.64-2.8-1.54-3.79-2.69-.99-1.15-1.71-2.52-2.16-4.1-.45-1.58-.67-3.32-.67-5.21ZM28.42,22.85c-.06-2.59-.67-4.61-1.82-6.05-1.15-1.44-2.78-2.16-4.9-2.16-1.12,0-2.12.22-3,.67-.88.45-1.65,1.05-2.3,1.8-.66.75-1.17,1.62-1.54,2.62-.37.99-.58,2.03-.65,3.12h14.21Z" />
  <path class="cls-1"
    d="M47.71,0c1.34,0,2.44.1,3.29.31.85.21,1.4.39,1.66.55-.25,1.08-.37,1.61-.62,2.69-.35-.16-.87-.33-1.56-.5-.69-.18-1.56-.26-2.62-.26-2.21,0-3.78.56-4.73,1.68-.94,1.12-1.42,2.91-1.42,5.38v2.59h9.98v2.64h-9.98v22.18h-3.12V9.74c0-3.23.74-5.66,2.23-7.3,1.49-1.63,3.78-2.45,6.89-2.45Z" />
  <path class="cls-1"
    d="M59.57,12.43h9.89v2.64h-9.89v13.2c0,1.41.12,2.55.36,3.43.24.88.58,1.56,1.03,2.04.45.48.99.8,1.63.96.64.16,1.34.24,2.11.24,1.31,0,2.37-.15,3.17-.46.8-.3,1.42-.58,1.87-.84.31,1.04.46,1.56.77,2.59-.45.29-1.23.62-2.35.98-1.12.37-2.34.55-3.65.55-1.54,0-2.82-.2-3.86-.6-1.04-.4-1.87-1.01-2.5-1.82-.62-.82-1.06-1.83-1.32-3.05-.26-1.22-.38-2.66-.38-4.32V5.14l3.12-.58v7.87Z" />
</svg>