<?xml version="1.0" encoding="utf-8"?>
<!-- Generator: Adobe Illustrator 28.4.1, SVG Export Plug-In . SVG Version: 6.00 Build 0)  -->
<svg version="1.1" id="Layer_1" xmlns="http://www.w3.org/2000/svg" xmlns:xlink="http://www.w3.org/1999/xlink" x="0px"
	y="0px" viewBox="0 0 695.5 763.8" style="enable-background:new 0 0 695.5 763.8;" xml:space="preserve">
	<style type="text/css">
		.st0 {
			fill: #0e121b;
		}

		.st1 {
			fill: #ffffff;
		}

		.st2 {
			fill: #ffffff;
		}
	</style>
	<path class="st0" d="M372.8,1.7c1,0.1,1.9,0.2,2.9,0.4c2.6,0.4,5,1.2,7.5,2c1.8,0.5,3.5,1,5.3,1.5c9,2.6,17.5,5.6,26,9.8
	c1.4,0.7,2.9,1.4,4.4,2.1c6.9,3.3,13.2,7.2,19.5,11.4c0.6,0.4,1.3,0.8,1.9,1.2c7.3,4.7,14.2,10.2,20.7,16c1.2,1.1,2.5,2,3.7,3
	c0.5,0.4,1.1,0.9,1.6,1.4v1.6c0.5,0.2,0.9,0.4,1.4,0.7c1.7,0.9,3,1.9,4.5,3.2c0.4,0.4,0.9,0.8,1.3,1.2c1.1,1,2.2,2.1,3.3,3.2
	c2.6,2.6,5.4,4.9,8.2,7.3l1.8,1.5c4.5,3.7,9.1,7.2,13.8,10.6c14.2,10.6,26.9,21.4,37.6,35.6c0.8,1,0.8,1,1.6,2
	c4.3,5.9,7.8,12.3,11.3,18.7c0.6,1.1,0.6,1.1,1.2,2.2c2.4,4.7,4.2,9.5,5.9,14.5c0.9,2.6,0.9,2.6,2.2,5.4c1.3,3.1,2.1,6.3,2.8,9.5
	c0.4,1.5,0.8,3.1,1.2,4.6c1.7,5.9,2.9,11.8,4,17.9c0.3,1.6,0.6,3.3,0.9,4.9c2,10.5,3.5,21,3.8,31.6c0.2,3.9,0.6,7.2,1.9,10.9
	c1.9,1.3,3.5,2.2,5.6,3.2c6.5,3.3,12.6,6.8,18.4,11.2c0.5,0.3,1,0.7,1.4,1c4,2.9,7.5,6.1,11,9.6c0.5,0.5,1,1.1,1.6,1.6
	c3.8,3.9,7.1,7.9,10,12.6c0.4,0.7,0.8,1.3,1.3,2c7.9,12.8,12.6,25.4,12.6,40.5c0,1.6,0,3.2,0,4.8c0,17.3-5.7,31.4-16.2,44.9
	c-1.5,2-2.9,4-4,6.2c0.3,1.8,0.3,1.8,1.6,3.2c0.7,0.3,0.7,0.3,1.5,0.6c3.8,2.1,6.3,6.4,9,9.8c0.5,0.7,1.1,1.4,1.6,2.1
	c6.5,8.6,11.8,18.3,16,28.3c0.2,0.6,0.5,1.2,0.7,1.8c4.9,11.9,6.8,23.4,6.9,36.2c0,0.5,0,1.1,0,1.6c0,7.4-0.9,14.1-2.8,21.2
	c-0.3,1.4-0.6,2.8-1,4.2c-1.4,5.1-3.9,9.7-6.3,14.4c-0.3,0.5-0.5,1-0.8,1.5c-0.7,1.4-1.5,2.7-2.2,4.1c-1.2,2.2-1.2,2.2-0.2,4.6
	c2.1,1.3,2.1,1.3,4.6,2.5c8.4,4.3,17.4,9.7,23.4,17.1c1.4,1.7,2.9,3.3,4.4,4.9c3.7,3.7,6.2,7.7,8.7,12.2c0.3,0.6,0.6,1.1,0.9,1.7
	c7.3,13.1,11.7,27.4,12.2,42.4c0,0.8,0.1,1.6,0.1,2.4c0.3,14.5-1.9,28.4-9.7,40.8c-0.3,0.6-0.7,1.1-1,1.7c-2.1,3.4-4.3,6.6-7,9.5
	h-1.6c-0.3,0.7-0.3,0.7-0.6,1.4c-3.7,6.8-11.8,9.8-18.6,13c-0.8,0.4-1.6,0.8-2.4,1.3c-9.9,4.8-21.2,5.5-31.9,6.7
	c-1.4,3.1-1.7,5.1-1.4,8.5c0.1,0.8,0.2,1.5,0.2,2.3c0.3,2.1,0.3,2.1,1.1,4.4c0.8,22.2-5.1,41.7-20,58.4
	c-6.6,6.8-14.2,13.6-23.2,16.8c-0.8,0.4-1.6,0.8-2.4,1.2c-9.3,4-19.1,4.6-29,4.6c-1.4,0-1.4,0-2.9,0c-6.9,0-13.4-0.1-20-2.5
	c-0.6-0.1-1.1-0.3-1.7-0.4c-10.5-2.8-21.2-8.6-29.5-15.5v-1.6c-0.6-0.2-1.2-0.4-1.8-0.6c-2.7-1.3-4.2-2.9-6.2-5
	c-0.9-0.9-1.8-1.8-2.8-2.7c-0.6-0.6-0.6-0.6-1.3-1.3c-3-1.6-6-0.1-9.1,0.8c-1,0.3-2,0.7-3.1,1c-1.1,0.4-2.3,0.7-3.4,1.1
	c-0.6,0.2-1.2,0.4-1.8,0.6c-35.9,11.3-72.9,16.7-110.4,16.7c-1,0-1.9,0-2.9,0c-15.2,0-30.1-0.5-45.1-2.6c-1.1-0.1-2.2-0.3-3.3-0.4
	c-17.8-2.4-35.4-5.7-52.7-10.6c-2.8-0.8-5.6-1.5-8.4-2.2c-3.9-1-7.7-2.2-11.5-3.5c-1.8-0.6-3.6-1.2-5.4-1.8
	c-0.9-0.3-1.7-0.6-2.6-0.9c-2.6-0.6-3.9-0.6-6.4,0.3c-1.5,1-1.5,1-2.9,2.4c-0.5,0.5-1.1,1-1.7,1.5c-0.6,0.6-1.2,1.1-1.8,1.7
	c-5.1,4.8-10.1,9.1-16,12.8c-0.5,0.3-1,0.7-1.5,1c-16.9,11.4-39.2,15.4-59,11.5c-11.4-2.4-23.3-7.1-32.2-15v-1.6
	c-0.4-0.2-0.9-0.4-1.3-0.6c-4.7-2.6-7.9-6.3-11.1-10.5c-0.4-0.5-0.8-1-1.2-1.5c-8.3-10.9-12.7-23.5-13.8-37.1
	c-0.1-0.8-0.1-1.6-0.2-2.4c-0.5-7.1,0.1-13.8,1.1-20.8c0.3-2.4,0.2-4.8,0.2-7.2c-0.8,0-1.7-0.1-2.5-0.1c-11.5-0.6-21.6-2.4-31.9-7.9
	c-0.7-0.3-1.3-0.6-2-1c-15-7.6-27.7-21.5-33.2-37.4c-7.7-24.3-5.3-47.9,6.1-70.6c1.1-2.1,2.3-4.1,3.5-6.2c0.6-1.1,1.3-2.2,1.9-3.4
	c0.4-0.7,0.9-1.5,1.3-2.2h1.6c0.2-0.6,0.4-1.2,0.7-1.8c2.4-5.7,5.9-9.9,10.6-13.8c1.4-1.1,2.6-2.3,3.9-3.6
	c4.6-4.2,9.9-7.2,15.2-10.4l2.3-1.4c0.6-0.3,1.1-0.7,1.7-1c-0.4-3.9-1.6-6.7-3.4-10.1c-2.2-4.3-4.3-8.7-6.1-13.3
	c-0.7-1.6-1.4-3.2-2.1-4.8c-1.7-4-2.3-8.2-2.9-12.3c-0.1-0.9-0.3-1.7-0.4-2.6c-1-6.3-1.5-12.2-1-18.6c0.1-1,0.2-2.1,0.2-3.2
	c1-11.6,3.9-23,8.6-33.6c0.5-1.2,0.9-2.4,1.4-3.6c3.8-9.4,8.2-18.3,13.8-26.7c0.4-0.7,0.8-1.4,1.2-2.1c1.1-1.7,2.1-2.9,3.6-4.3
	c1-1.3,1.9-2.6,2.8-4c5.6-7.8,12.4-15.2,19.8-21.4c2.1-1.8,4.2-3.6,6.3-5.4c1.1-1,2.3-2,3.5-2.9c1.4-1.6,1.4-1.6,1-4.2
	c-0.6-3-1.6-5.5-2.9-8.2c-7.7-17.3-10.5-37.1-7.9-55.8l0.3-2.4c1.8-12.8,5.3-24.2,11.4-35.7c0.4-0.8,0.8-1.5,1.2-2.3
	c2.9-5.3,6.3-9.7,10.5-14.1c1.5-1.6,2.9-3.2,4.3-5c6.5-7.6,18.3-14.2,27.5-18.2c2.8-1.7,3.1-3.1,4.1-6.1c0.3-1,0.6-2,1-3
	c0.2-0.5,0.3-1.1,0.5-1.6c0.9-2.9,1.9-5.7,2.9-8.5c0.2-0.6,0.4-1.1,0.6-1.7c2.6-7.3,5.2-14.3,8.7-21.2c2.3-4.7,4.5-9.4,6.8-14.1
	c0.4-0.8,0.7-1.6,1.1-2.4c0.5-1,0.5-1,1-2.1c1-2.1,2.2-4,3.4-6c0.8-1.4,1.7-2.9,2.5-4.4c8.6-14.6,18.2-30.1,30.3-42.1
	c0.8-0.9,1.5-1.8,2.3-2.7c2.1-2.4,4.2-4.6,6.5-6.9c0.8-0.9,1.5-1.8,2.2-2.7c2.7-3.2,5.8-5.8,9-8.5c3.8-3.2,3.8-3.2,7.5-6.7
	c4.9-4.9,10.1-9.3,15.7-13.3c1.3-0.9,1.3-0.9,2.6-1.9c5.7-4.1,11.4-8,17.4-11.8c0.6-0.4,1.2-0.8,1.8-1.2c6.1-3.9,12.8-6.5,19.5-9.2
	c1.3-0.5,2.6-1.1,3.9-1.6c12.2-5,25-7.9,38-9.6c0.8-0.1,1.5-0.2,2.3-0.3c12.6-1.5,25.3-0.6,37.7,1.1L372.8,1.7z" />
	<path class="st1" d="M425.6,148.9c4.3,0.1,6.7,1.8,9.6,4.9c1.5,1.6,2.8,3.3,4.2,5c0.4,0.5,0.8,1,1.2,1.4c6.8,8.4,9.9,17.8,12.3,28
	c0.6,2.6,1.4,4.9,2.4,7.3c0.4,1.3,0.8,2.7,1.1,4c2.6,9.7,5.8,18.3,11.4,26.7c15.8,24.5,8.2,62.6,2.8,89.6c-0.8,3.6-1.6,7.2-2.5,10.7
	c-0.6,2.3-1.1,4.6-1.6,7c-0.7,3-0.7,3-1.4,5.2c-0.9,2.7-1.5,5.4-2.1,8.2c-1.6,7-3.4,13.9-5.6,20.8c-0.2,0.7-0.5,1.5-0.7,2.2
	c-5,15.3-12.6,29.4-23.6,41.1c-0.9,1-1.8,2.1-2.6,3.1c-7.3,8.3-15.6,17.2-25.4,22.5h-1.6c-0.3,0.8-0.5,1.6-0.8,2.4
	c-3.5,2.6-7.3,4.7-11,6.8c-0.6,0.3-1.1,0.6-1.7,1c-3.9,2.2-7.9,4.2-12,5.8c-0.5,0.2-1,0.4-1.5,0.7c-14,5.7-30.3,4.6-44.2-0.9
	c-14.2-6.2-28.1-15.3-39.9-25.4c-0.6-0.5-1.1-0.9-1.7-1.4c-3.1-2.6-5.8-5.4-8.4-8.5c-1-1.2-2.1-2.3-3.1-3.3c-2.1-2.1-4-4.4-6-6.8
	l-1.5-1.4c-9.4-9.8-15.4-23.4-19.3-36.2c-1-2.8-2-5.5-3.2-8.2c-0.9-2.4-1.4-4.8-2-7.3c-1.6-7.5-3.3-15-5.2-22.3
	c-0.6-2.3-1.1-4.6-1.7-6.8c-0.2-0.6-0.3-1.3-0.5-2c-12.4-50.7-12.4-50.7-5.9-63.7c0.2-2.7,0.3-5.4,0.4-8.1c0.1-3,0.3-5.4,2-8
	c1.5-0.8,1.5-0.8,3.4-1.2c0.7-0.2,1.4-0.4,2-0.6c0.7-0.2,1.4-0.4,2.2-0.6c1.5-0.4,2.9-0.8,4.4-1.2c0.7-0.2,1.4-0.4,2.1-0.6
	c2.2-0.7,4.3-1.5,6.4-2.5c8.2-3.4,15.7-0.3,23.5,2.7c1.8,0.8,3.6,1.6,5.4,2.4c6.8,3,14.1,4,21.4,5.1c1.8,0.3,3.6,0.5,5.3,0.8
	c5.1,0.8,9.9,1.4,15.1,1.3c0.4-4.7-0.4-7.5-3.2-11.2c-5.7-5.7-13.1-6.9-20.7-8.2c-3.9-0.7-7.6-1.6-11.4-2.5
	c-2.1-0.5-4.1-0.9-6.2-1.3v-2.4c3.4-2.4,3.4-2.4,5.6-2.4v-1.6c0.7-0.3,1.5-0.7,2.2-1c2.5-1.1,2.5-1.1,3.8-2.6c1.5-1.5,3.2-2,5.2-2.8
	c0.8-0.8,1.6-1.6,2.4-2.4c1.8-1.4,3.6-2.8,5.4-4.2c0.5-0.4,1-0.8,1.5-1.2c3.1-2.4,6.3-4.8,9.5-7.2c1.3-1,2.5-2.2,3.6-3.4
	c2.1-1.9,4.3-3.7,6.4-5.6c0.7-0.6,0.7-0.6,1.4-1.2c1.5-1.3,3-2.6,4.5-3.9c0.5-0.4,1-0.9,1.5-1.3c2.1-1.8,3.6-3.1,6.3-4
	c0.3-0.8,0.5-1.6,0.8-2.4c1.1-0.6,2.1-1.1,3.2-1.6c0.5-0.5,0.5-0.5,1.1-1.1c6.1-6,15.8-9.8,23.8-12.5c0.5-0.2,1-0.4,1.6-0.6
	c6.6-2.2,13.4-3,20.2-3.9c1.8-0.2,3.7-0.5,5.5-0.8c1.1-0.2,2.3-0.3,3.4-0.5c3.3-0.5,6.2-1.2,9.3-2.3c2.1-0.6,4.2-1.2,6.3-1.9
	c4.6-1.5,4.6-1.5,5.4-1.6L425.6,148.9z" />
	<path class="st2" d="M290.4,448.9c2.8,0.4,4.5,1.6,6.7,3.2c21.9,15.7,45.3,25,72.7,21.2c2.6-0.5,5.2-1.2,7.7-2
	c0.9-0.3,1.8-0.5,2.7-0.8c8.2-2.7,16-6.5,23.1-11.4c2.2-1.4,2.2-1.4,3.8-1.4v-1.6c1.3-0.9,1.3-0.9,3-1.9c2.5-1.5,4.2-2.7,5.8-5.3
	c1.6,0.4,1.6,0.4,3.2,0.8c0,0.8,0,1.5,0,2.3c0.4,18.2,0.4,18.2,1.4,36.2c0.1,0.7,0.1,1.4,0.2,2.1c0.4,4.6,1.5,8.6,3.1,13
	c0.4,1.1,0.4,1.1,0.8,2.2c1.6,4.1,3.4,7.8,5.6,11.5c0.8,1.4,0.8,1.4,0.8,3h1.6c0.8,0.9,1.6,1.9,2.4,2.8c5.7,6.7,13.1,10.3,21,14
	c8.8,4.3,8.8,4.3,11,7.1c0.3,1.6,0.3,1.6,0.4,3.4c0,0.7,0,1.3,0.1,2c0,0.7,0,1.4,0,2.1c0.2,5.7,0.6,11.1,1.6,16.7
	c0.7,4.4,0.7,7.1-2,10.9c-0.4,0.6-0.9,1.2-1.3,1.9c-0.4,0.5-0.8,0.9-1.2,1.4h-1.6c-0.2,0.6-0.4,1.1-0.6,1.7c-1.1,2.6-2.5,4.8-4,7.2
	c-4.5,7.2-7.4,14.6-9.3,22.9c-0.5,1.8-0.5,1.8-1.3,2.6c-0.3,2.3-0.6,4.6-0.8,6.8c-0.1,0.7-0.1,1.4-0.2,2.1
	c-0.6,6.4-1.1,12.7-1.4,19.1c-6.4,3.1-13,5.2-19.8,7.4c-1.7,0.6-3.4,1.1-5.1,1.7c-7.1,2.3-14.3,4.1-21.6,5.8c-2,0.5-4,1-6.1,1.6
	c-4.6,1.2-9.3,2-14,2.9c-0.7,0.1-1.5,0.3-2.2,0.4c-7.6,1.4-15,2-22.8,2c-0.8,0-1.7,0-2.5,0c-8.8-0.1-17.4-0.7-25.8-3
	c-3.2-0.8-6.4-1.3-9.7-1.9c-3.5-0.6-6.9-1.5-10.3-2.5c-1.4-0.4-2.9-0.8-4.3-1.1c-0.8-0.2-1.6-0.4-2.4-0.6c-1.6-0.4-3.2-0.8-4.8-1.2
	c-4.3-1.1-8.4-2.3-12.6-3.7c-1.8-0.6-3.6-1.1-5.4-1.6c-12-3.5-12-3.5-14.6-6.1c-0.1-1.1-0.1-2.3-0.2-3.4c0-1.1,0-1.1-0.1-2.2
	c0-0.8,0-1.5-0.1-2.3c-0.7-17-3.5-32.6-12.5-47.3c-0.4-0.7-0.9-1.5-1.4-2.2c-2.3-3.7-4.6-6.9-7.5-10.1c-1.5-2-2.3-3-2.4-5.6
	c0.3-1.5,0.6-3,1-4.5c0.6-2.6,0.8-5.2,1-7.9c0-0.9,0.1-1.7,0.1-2.6c0.1-1.7,0.2-3.5,0.2-5.2c0.4-6.1,0.4-6.1,3-8.6
	c2.8-1.2,5.5-2.3,8.3-3.3c8.6-3.3,16.2-8.4,22.3-15.4c0.6-0.7,1.3-1.4,1.9-2.2c2.2-2.6,3.8-5.4,5.3-8.5c0.3-0.6,0.5-1.1,0.8-1.7
	c5-10.5,6.3-21.8,6.7-33.3c0.1-1.7,0.1-3.4,0.2-5.1c0.1-2.6,0.2-5.3,0.3-7.9c0.1-2.6,0.2-5.1,0.3-7.7c0-1.2,0-1.2,0.1-2.4
	c0-0.7,0.1-1.5,0.1-2.2c0-0.6,0-1.3,0.1-2C289.6,449.8,289.6,449.8,290.4,448.9L290.4,448.9z" />
	<path class="st2" d="M386.4,96.1c0.7,0.2,1.3,0.3,2,0.5c9.7,2.6,18,8.4,23.3,17c0.4,0.8,0.7,1.6,1.1,2.4c-0.3,0.5-0.5,1.1-0.8,1.6
	c-0.5-0.3-1-0.5-1.6-0.8c-14.4-6.6-31.4-7.5-46.4-2.4c-3,1.3-5.9,2.8-8.7,4.4c-2.2,1.1-4,1.7-6.5,2c-0.3,0.8-0.5,1.6-0.8,2.4
	c-3.5,2.4-3.5,2.4-5.6,2.4c-0.3,0.8-0.5,1.6-0.8,2.4c-0.6,0.2-1.3,0.5-2,0.8c-2.2,0.7-2.2,0.7-3.1,2.6c-0.3,0.7-0.3,0.7-0.6,1.5
	h-1.6c-0.2,0.5-0.4,0.9-0.6,1.4c-1.2,2.2-2.7,3.8-4.4,5.6c-2.8,3.1-5.2,6.2-7.5,9.7c-1.5,2.4-3.2,4.6-5,6.8c-1,1.3-1,1.3-1.8,2.9
	h-1.6c-0.5,1.3-1.1,2.6-1.6,4h-1.6c-0.2,0.6-0.4,1.2-0.6,1.8c-2.7,6.2-8.2,11.3-12.7,16.2c-1.2,1.3-2.4,2.7-3.6,4.1
	c-10,11.4-10,11.4-14.7,13.2c-0.6,0.3-1.2,0.5-1.8,0.8c-0.3,0.8-0.5,1.6-0.8,2.4c-5.9,4.6-12.6,8.4-19.2,12c-0.6,0.4-1.3,0.7-2,1.1
	c-5.8,3.1-11.8,5-18.1,6.9c-1.2,0.4-1.2,0.4-2.3,0.7c-8.5,2.5-17.3,3.4-26.1,3.9c-1.9,0-1.9,0-2.8,1c-1.9,0.2-3.9,0.3-5.8,0.3
	c-1.2,0.1-2.5,0.1-3.7,0.2c-0.6,0-1.3,0.1-2,0.1c-26.6,0.7-26.6,0.7-51,9.8c-0.7,0.3-1.4,0.7-2.2,1c-8.6,4.6-16.5,10.6-21.6,19
	c-1.2,1.9-2.6,3.3-4.2,4.8c-2-9.2,4.1-18.7,8.8-26.4c2-2.8,4.1-5.4,6.4-8c0.5-0.6,1-1.1,1.5-1.7c12.6-13.4,30.2-19.4,47.9-21.7
	c2-0.3,4-0.5,6-0.8c0.9-0.1,1.7-0.2,2.6-0.3c1.9-0.1,1.9-0.1,2.8-1.1c1.6-0.3,3.2-0.5,4.8-0.8c1-0.1,1.9-0.3,2.9-0.4
	c2.1-0.3,4.1-0.6,6.2-0.9c1-0.1,1.9-0.3,2.9-0.4c0.9-0.1,1.8-0.2,2.7-0.4c2-0.2,2-0.2,2.9-1.2c1.7-0.3,3.4-0.6,5-0.9
	c5.2-1,10.2-2.5,15.3-4.2c0.7-0.2,1.3-0.5,2-0.7c11.9-4.3,23.6-9.8,33.7-17.4c1.3-0.9,2.7-1.9,4-2.8c4.7-3.3,9.4-6.6,13.4-10.6
	c1.8-1.8,1.8-1.8,3.5-2.6c1.9-1,2.2-2,3-4c2.2-2.9,4.6-5.4,7.2-8c4.5-4.7,8.5-9.7,12.2-15c3.2-4.5,6.6-8.8,10.2-13
	c0.5-0.6,1-1.3,1.6-1.9c0.5-0.6,1-1.2,1.5-1.7c0.4-0.5,0.8-1,1.3-1.5c1.3-1.2,1.3-1.2,2.8-2c2-1,3.2-2.4,4.8-4
	c4.8-3.4,9.8-6.4,15.2-8.8c0.6-0.3,1.2-0.6,1.8-0.8C362.8,93.9,375.6,92.7,386.4,96.1L386.4,96.1z" />
	<path class="st2" d="M384.8,32.9c0.8,0.4,1.7,0.7,2.6,1.1c23.3,9.9,23.3,9.9,27.3,16.7c0.3,0.7,0.3,0.7,0.5,1.4
	c-4.5-0.8-9-2.1-13.4-3.3c-29.8-7.9-59-3.7-85.6,11.3c-3.4,2-6.6,4.1-9.8,6.3c-1.3,0.8-2.5,1.6-3.8,2.5c-5.5,3.5-10.4,7.4-15.3,11.7
	c-5,4.3-5,4.3-7.8,4.3c0.3,0.8,0.5,1.6,0.8,2.4l-3.2,1.6c0.1-1.2,0.2-2.3,0.4-3.5c0.1-1,0.1-1,0.2-2c0.3-1.7,0.3-1.7,1.1-3.3
	c0.1-1.2,0.1-2.5,0-3.7c0-0.7,0-1.3,0-2c0-0.5,0-1,0-1.5c-2.7,0.3-4.6,1.1-7,2.4c-2.6,1.6-2.6,1.6-4.2,1.6c-0.4,1.2-0.4,1.2-0.8,2.4
	c-2.4,1-2.4,1-4.8,1.6v1.6c-1.4,1.2-1.4,1.2-3.4,2.4c-0.6,0.4-1.2,0.8-1.9,1.2c-2,1.2-2,1.2-4.2,2c-0.9,0.4-0.9,0.4-1.8,0.8
	c-0.4,1.2-0.4,1.2-0.8,2.4c-1.1,0.3-2.1,0.5-3.2,0.8c-0.4,1.2-0.4,1.2-0.8,2.4c-1.1,0.5-2.1,1.1-3.2,1.6c-1.3,1.3-2.7,2.7-4,4
	c-1.3,1.1-2.7,2.2-4,3.2c-4.1,3.3-7.9,6.8-11.8,10.4c-2,1.8-3.3,3.1-5.9,3.9c-0.3,0.8-0.5,1.6-0.8,2.4c-2.8,2.4-2.8,2.4-4.8,2.4
	c-0.2,0.5-0.4,0.9-0.6,1.4c-1.1,2-2.3,3.1-4,4.5l-1.7,1.5c-0.6,0.5-1.1,0.9-1.7,1.4c-0.5,0.4-0.9,0.8-1.4,1.2
	c-0.4,0.3-0.8,0.7-1.3,1.1c-2.1,1.7-2.1,1.7-3.7,3.4c0.9-6.2,3.3-11,7.2-16h1.6c0.2-0.6,0.4-1.2,0.6-1.7c3.1-7,9-13.1,13.8-19
	c0.3-0.4,0.7-0.8,1-1.3c1.1-1.3,2.2-2.7,3.3-4c0.7-0.8,1.3-1.6,2-2.5c0.6-0.6,1.1-1.2,1.7-1.8h1.6c0-0.4,0.1-0.9,0.2-1.4
	c0.9-2.6,2.6-4,4.6-5.8c0.6-0.6,1.3-1.3,1.9-2c2.1-2,4.2-3.9,6.4-5.7c1.4-1.2,1.4-1.2,3.2-3c1.4-1.3,1.4-1.3,3-1.3
	c0.2-0.5,0.4-0.9,0.5-1.4c1.4-2.4,3-3.6,5.2-5.3c0.8-0.6,1.6-1.3,2.4-1.9c0.8-0.6,1.5-1.2,2.3-1.8c0.5-0.4,1.1-0.8,1.6-1.3
	c1.6-1.2,3.2-2.4,4.8-3.5c0.7-0.5,1.5-1.1,2.2-1.6c10.6-7.6,21.8-14,33.8-19.2c0.7-0.3,1.4-0.6,2.1-0.9
	C328.7,23.9,360.1,21.4,384.8,32.9L384.8,32.9z" />
	<path class="st2"
		d="M469.6,174.5c3.9,0.4,6.7,3.1,9,6.1c1,1.4,1.9,2.9,2.9,4.3c0.3,0.5,0.7,1.1,1,1.6c2.7,4.1,5.2,8.3,7.8,12.6
	c4.4,7.1,9,14.1,14.2,20.5c1,1.4,1,1.4,1.8,3.8c1.6,1,1.6,1,3.2,1.6v1.6c0.5,0.2,0.9,0.4,1.4,0.6c2,1.1,3.4,2.4,5.1,3.9
	c10.1,9.1,22.2,15.1,34.3,21c2.8,1.4,5.6,2.8,8.4,4.2c1.9,1,3.8,1.9,5.7,2.8c9,4.4,17.1,9.4,25.1,15.4c1.2,0.9,1.2,0.9,2.5,1.8
	c10.2,9.5,18.1,22,20.7,35.8c0.3,0.3,0.5,0.5,0.8,0.8c1.2,11.9,1.7,23.4-6,33.5c-3.5,4.2-7.4,7.9-11.7,11.3h-0.8
	c0.3-3.4,0.7-6.4,2-9.5c4.1-10.5,2.9-23.7-1.5-33.8c-4.9-9.8-11.8-17.5-20.5-24.1c-0.5-0.5-1.1-0.9-1.6-1.4v-1.6
	c-0.6-0.2-1.1-0.4-1.7-0.6c-2.5-1.1-4.3-2.4-6.5-4c-3.2-2.4-6.3-4.4-9.8-6.3c-2.4-1.3-4.8-2.7-7.2-4.1c-3.1-1.8-6.1-3.5-9.2-5.2
	c-15.2-8.5-29.4-17.7-41.5-30.2c-0.5-0.4-0.9-0.9-1.4-1.3c-2.7-2.6-4.8-5-6.6-8.2c-0.4-0.4-0.8-0.8-1.2-1.2c-1.7-1.8-2.5-3.8-3.6-6
	c-0.3-0.5-0.6-1-0.9-1.6c-3.4-6.3-5.4-13.1-7.4-20c-0.4-1.4-0.9-2.8-1.4-4.2C473.1,188,471.3,181.3,469.6,174.5L469.6,174.5z" />
	<path class="st2"
		d="M156.8,468.9c0.8,0.3,1.6,0.5,2.4,0.8c4,8.1,3.5,19.4,1.2,27.9c-3.8,10.6-12.3,19.5-22,24.9
	c-0.6,0.4-1.2,0.8-1.9,1.2c-2.3,1.3-4.3,1.8-6.9,2.4c-3.4,0.8-3.4,0.8-6.6,1.9c-2.7,1-5.4,1.5-8.2,2c-1.2,0.2-2.4,0.4-3.6,0.7
	c-0.9,0.2-0.9,0.2-1.9,0.4c-14.7,2.8-28,6.3-41.3,13.4c-2.4,1.2-2.4,1.2-4,1.2v1.6c-1.5,1.2-1.5,1.2-3.4,2.4
	c-0.6,0.4-1.3,0.8-1.9,1.2c-1.9,1.2-1.9,1.2-3.7,2c-1.7,0.8-1.7,0.8-2.2,3.2c-0.9,0.9-1.8,1.8-2.8,2.7c-4.2,4.3-7.4,9.1-9.9,14.6
	c-0.9,1.9-0.9,1.9-2.1,3.7c-1.5,2.7-2,5.4-2.5,8.3c-0.2,0.9-0.2,0.9-0.3,1.7c-2.2,13.2,0.8,24.9,8.1,36.1c1,1.1,2.1,2.2,3.2,3.2
	c1,2.2,1,2.2,1.6,4c-4-1.1-7.4-2.8-10.4-5.6v-1.6c-0.4-0.1-0.9-0.3-1.4-0.4c-2.7-1.7-4.1-4.1-5.8-6.8c-0.4-0.6-0.8-1.2-1.2-1.9
	c-1.3-2.4-1.9-4.5-2.5-7.2c-0.2-0.9-0.4-1.7-0.6-2.6c-3.6-19.3-0.5-37.9,10.6-54.3c5.8-8.2,12.4-14.9,20.9-20.5
	c0.5-0.4,1.1-0.8,1.7-1.1c14.1-9.3,31.2-12.2,47.5-15.4c5.3-1.1,10.5-2.3,15.6-4.2c0.7-0.3,1.4-0.5,2.2-0.8c6-2.6,11.6-5.4,16.6-9.5
	c1.2-0.9,1.2-0.9,2.8-0.9c0.2-0.5,0.4-0.9,0.6-1.4c1-1.9,2.2-3.3,3.6-4.9C153.4,485,155.4,476.8,156.8,468.9L156.8,468.9z" />
	<path class="st2" d="M196.8,494.5c2.2,0.3,3.1,0.7,4.6,2.3c8.2,11.9,10.4,25.4,8.2,39.6c-1.4,6.5-4.3,11-8,16.5
	c-0.4,0.7-0.8,1.4-1.2,2.1c-2,3.1-4.8,5.1-7.6,7.5c-0.6,0.5-1.2,1-1.8,1.6c-4.8,4.1-9.8,6.7-15.4,9.2c-2.1,0.9-4.1,1.9-6.1,2.9
	c-2.5,1.3-5.1,2.2-7.8,3.2c-10.2,3.8-20.4,9.7-29,16.4c-1.5,1.1-1.5,1.1-3.1,1.1c-0.3,0.8-0.5,1.6-0.8,2.4c-1.2,1.2-1.2,1.2-2.8,2.4
	c-2,1.6-3,2.7-4.4,4.8h-1.6c-0.2,0.6-0.4,1.2-0.7,1.8c-0.9,2.2-2,4-3.2,6c-1.7,2.7-3.3,5.5-4.8,8.3c-0.3,0.6-0.6,1.2-0.9,1.8
	c-2.4,6-2.7,12.1-2.9,18.5c-0.1,4.7-0.3,9.1-1.2,13.7c-0.9,4.5-1,8.9-1,13.4c0,0.8,0,1.6,0,2.4c0.1,8.8,1,17,4.2,25.4
	c-0.5,0.3-1.1,0.5-1.6,0.8c-1.4-1-2.7-2.1-4-3.2v-1.6h-1.6c-3.5-5.3-5.1-10.6-6.6-16.7c-0.4-2.3-0.4-2.3-1.4-3.2
	c-1.1-9.1,1.3-15.8,4.8-24c1.4-3.6,1.8-6.7,1.9-10.6c0-0.5,0-1.1,0-1.6c0-1.7,0.1-3.4,0.1-5.2c0.3-19,0.3-19,4.5-27.6
	c0.4-0.9,0.9-1.8,1.3-2.7c0.3-0.6,0.7-1.3,1-2h1.6c0.2-0.7,0.4-1.4,0.6-2.2c2.5-6.7,10.6-14.6,17-17.8c1.6-0.7,1.6-0.7,2.7-1.9
	c6.8-6.8,18.6-10.5,27.4-14.5c3.8-1.8,7.6-3.5,11.3-5.4c0.8-0.4,1.5-0.7,2.3-1.1c1.8-1,2.9-2,4.3-3.5l2.5-0.8
	c0.8-0.3,1.5-0.5,2.3-0.8c0.4-1.2,0.4-1.2,0.8-2.4c1-0.8,2.1-1.6,3.2-2.3c7.7-5.8,13.5-15.4,15.2-24.9
	C199.9,513.1,199.7,503.7,196.8,494.5L196.8,494.5z" />
	<path class="st2" d="M400,73.7c1.3,1.1,2.6,2.3,3.9,3.5c-0.3,0.5-0.5,1.1-0.8,1.6c-0.4-0.2-0.8-0.4-1.2-0.6
	c-5.5-2.5-11-3.4-16.9-4.2c-5-0.7-5-0.7-5.9-1.6c-3.2-0.2-6.4-0.1-9.6,0c-0.7,0-1.4,0-2.1,0c-14.6,0.8-28.9,7-40.5,15.8
	c-1.5,1-1.5,1-3.1,1c-0.3,0.8-0.5,1.6-0.8,2.4c-1.1,0.5-2.1,1.1-3.2,1.6c-1.4,1.3-2.7,2.6-4,4c-1.3,1.4-2.6,2.7-4,4h-1.6
	c-0.2,0.4-0.4,0.9-0.6,1.4c-1.4,2.4-3.1,4-5,5.8c-3.1,3-5.7,6.1-8.3,9.4c-4.6,5.9-9,11.4-14.7,16.2c-2.7,2.3-5.3,4.8-7.9,7.2
	c-1.8,1.4-2.8,1.8-5,2.3c-0.2,0.5-0.5,1-0.7,1.4c-1.3,2.6-3.3,3.5-5.7,5c-0.7,0.5-1.5,0.9-2.2,1.4c-1.8,1-1.8,1-3.4,1v1.6
	c-8.6,5.1-17.4,9.5-26.5,13.5c-0.5,0.2-1,0.4-1.5,0.7c-3.2,1.4-6.4,2.8-9.6,4.2c-0.7,0.3-1.3,0.6-2,0.9c-2.9,1.2-4.6,1.7-7.6,0.7
	c10.7-9.6,10.7-9.6,16.7-13.5c2.7-1.8,5.2-3.9,7.7-6c1.3-1.1,2.6-2.2,3.9-3.3c0.9-0.8,1.8-1.5,2.6-2.3c3.3-2.8,3.3-2.8,5.1-2.8
	c0.2-0.5,0.4-1,0.6-1.5c1-1.8,1.9-2.7,3.5-3.9c2.7-2.2,4.8-4.6,7-7.2c1.9-2.2,4-4.1,6-6.2c3.3-3.3,6.2-6.6,9-10.4
	c0.4-0.4,0.7-0.8,1.1-1.3h1.6c0.2-0.4,0.4-0.9,0.6-1.4c2.1-3.9,5.1-6.8,8.2-9.8c4.6-4.5,4.6-4.5,8.9-9.3c1.8-2.3,3.9-4,6.1-5.9
	c1.2-1.1,2.4-2.2,3.6-3.3c23.9-22.6,70.2-34.2,98.4-12.2L400,73.7z" />
	<path class="st2"
		d="M536.8,493.7c2.6,1.1,4.4,2.6,6.5,4.5c9.4,8.6,20.5,13.7,32.7,17.1c0.6,0.2,1.2,0.3,1.8,0.5
	c7.5,2.1,15,3.9,22.6,5.6c2.9,0.7,5.6,1.5,8.4,2.7c1.3,0.4,2.7,0.8,4,1.1c20.3,5.5,37.8,14.5,48.7,33.3c8.2,15,11.9,34.6,7.2,51.2
	c-2.9,8-5.9,14.8-12.8,20c0.2-1.3,0.5-2.6,0.7-3.9c0.2-1.1,0.2-1.1,0.4-2.2c0.5-1.9,0.5-1.9,2.1-3.5c4.1-12.7,3.9-26.9-1.9-39
	c-1.2-2-2.4-3.9-3.7-5.8c-0.5-0.6-0.9-1.3-1.4-2c-7.1-9.4-15.4-15.8-25.8-21.3c-0.7-0.4-1.5-0.8-2.2-1.2c-4.5-2.3-9.1-4.2-13.8-6
	c-1.9-0.8-3.9-1.6-5.8-2.4c-6.4-2.4-13-4.3-19.4-6.2c-6.5-1.9-12.6-4.2-18.6-7.2c-0.6-0.3-1.1-0.6-1.7-0.8
	c-3.7-1.9-7.2-3.9-10.5-6.3c-1.6-1.2-1.6-1.2-3.9-2.4c-6.5-5-11.6-12.6-13.2-20.7C537.1,497.1,537,495.4,536.8,493.7L536.8,493.7z" />
	<path class="st0"
		d="M353.6,377.7c2.2,0.2,3.5,0.3,5.5-0.8c3.7-1.7,7.9-1.3,11.8-0.2c2,0.8,4,1.7,6,2.6c1.3,0.6,2.6,1.2,3.8,1.8
	c0.8,0.4,0.8,0.4,1.7,0.8c4.6,1.8,9.4,1.7,14.3,2c2.5,0.3,2.5,0.3,4.9,1.9c-1.6,1.7-3.1,2.9-5.1,4.1c-3.4,2.4-5,5.4-6.9,9
	c-2.5,4.8-5,8.6-9.6,11.7h-1.6c-0.3,0.8-0.5,1.6-0.8,2.4c-1.7,0.9-1.7,0.9-3.8,1.7c-0.7,0.3-1.4,0.5-2.1,0.8
	c-10.8,3.6-25.4,2.5-35.8-2c-4.5-2.3-8.3-5-11.9-8.6v-1.6h-1.6c-0.3-0.7-0.6-1.5-0.9-2.3c-3.1-7.2-6.2-11-13.5-14.6
	c0.5-0.8,1.1-1.6,1.6-2.4c2.4-0.3,2.4-0.3,5.4-0.4c7.9-0.3,14.7-2.6,21.9-5.8C342.8,375.5,347.9,375.1,353.6,377.7L353.6,377.7z" />
	<path class="st2" d="M505.6,360.9c3,1.2,4,2.6,5.6,5.4c11.8,19.1,32.1,29.7,52,38.6c0.7,0.3,1.4,0.7,2.2,1c2.2,1,4.5,2,6.7,2.9
	c15.8,6.9,30.1,15.7,38.8,31c1.1,1.9,1.1,1.9,2.4,3.4c1.5,2.2,2.1,4.3,2.9,6.8c0.4,1.3,0.4,1.3,0.8,2.7c3.4,12.8,2.3,27.2-4.1,38.9
	c-0.3,0.4-0.5,0.9-0.8,1.4h-1.6c-0.3,0.5-0.5,1.1-0.8,1.6c-0.5-3-0.8-5.6-0.7-8.7c0.2-13.4-4.3-27.5-12.7-37.9c-1-1.4-1-1.4-1.8-3.8
	h-1.6v-1.6h-1.6c-1-0.9-1.9-1.9-2.8-2.8c-8.4-8.6-19.3-13.6-30-18.8c-8.2-4-16.2-8.2-24-12.8c-0.9-0.5-1.8-1-2.8-1.5
	c-11-6.3-20.9-17-25.2-28.9c-1.2-5.3-1.8-10.6-1.6-16L505.6,360.9L505.6,360.9z" />
	<path class="st2" d="M188,346.5c0.3,0.8,0.5,1.6,0.8,2.4c-0.3,0.3-0.5,0.5-0.8,0.8c-0.2,1.5-0.5,2.9-0.7,4.4c-1,7-2.9,12.6-6.5,18.8
	c-0.3,0.6-0.7,1.2-1,1.8c-0.7,1.3-1.4,2.5-2.2,3.8H176c-0.2,0.6-0.4,1.2-0.6,1.8c-1.3,2.7-2.7,3.6-5,5.4c-0.6,0.6-1.2,1.2-1.8,1.8
	c-8,7.8-17.4,13.4-27,19c-6.7,3.9-13.3,7.7-19.8,11.8c-1.3,0.8-1.3,0.8-2.6,1.7c-2.4,1.7-4.3,3.6-6.4,5.7c-1,0.9-2,1.7-3,2.6
	c-10.8,9.4-18.9,23.2-21,37.4c-0.1,2.6-0.2,5.1-0.2,7.6c0,0.7,0,1.4,0,2.1c0,5.4,0.5,10.5,1.8,15.8c-6.1-2.7-8.6-7.1-11.2-13.1
	c-0.6-1.5-1.1-3-1.6-4.5c-0.3-0.3-0.5-0.5-0.8-0.8c-1.4-6.1-1.8-12.1-1.4-18.3c0-0.8,0-0.8,0.1-1.7c0.3-3.6,1-6.9,2.1-10.4
	c0.2-0.6,0.4-1.3,0.6-1.9c4-10.9,12.1-20.5,21-27.7c0.6-0.5,1.2-1,1.9-1.6c10.1-7.8,22.2-13.2,33.8-18.2c2.9-1.2,5.6-2.6,8.2-4.3
	c1-0.6,2-1.1,2.9-1.6c11-6.1,21.1-12.3,29-22.3c0.5-0.5,1-1,1.6-1.5c1.7-1.8,2.9-3.5,4.1-5.6c0.4-0.7,0.8-1.4,1.2-2.1
	c0.9-1.6,1.7-3.1,2.5-4.7c1-1.9,1.8-3.1,3.4-4.4L188,346.5z" />
	<path class="st2" d="M514.4,502.5c0.8,0.3,1.6,0.5,2.4,0.8c0.7,2.3,0.7,2.3,1.2,5.3c2.7,13.8,10.7,24,22.2,31.8
	c5.9,3.7,11.8,7.2,18.2,10.2c0.8,0.4,1.6,0.8,2.4,1.1c3.9,1.8,7.8,3.6,11.8,5.1c16.7,6.6,32.1,16.6,40,33.3c0.6,1.5,1.2,3,1.8,4.4
	c0.4,1,0.4,1,0.8,1.9c1.7,5.1,1.9,10.1,1.9,15.4c0,0.7,0,1.4,0,2.1c0,4.8-0.9,8.9-2.7,13.4c-1.2-2.2-1.9-4-2.2-6.4
	c-0.1-0.6-0.2-1.2-0.3-1.8c-0.2-1.2-0.4-2.5-0.6-3.7c-0.5-3.6-0.5-3.6-2.5-6.4c-0.3-0.9-0.7-1.9-1-2.8c-1.8-5-4.7-9.4-8.5-13.1
	c-0.6-0.5-1.1-1.1-1.7-1.6v-1.6h-1.6v-1.6c-0.5-0.2-0.9-0.4-1.4-0.6c-2-1-3.7-2.3-5.5-3.6c-9.7-6.8-21.7-10.6-32.8-14.3
	c-17.2-5.8-33-15.5-41.5-32.2c-4.1-8.8-5.9-18-3.6-27.7C512.2,507.2,513.3,504.9,514.4,502.5L514.4,502.5z" />
	<path class="st0" d="M268,252.9c1,0.4,1,0.4,2,0.8c3,0.9,4.8,0.7,7.8,0.2c10.8-1.2,21.4-0.4,30.4,6.1c6.2,5,11.6,10.8,14.2,18.5
	c0.2,2.4,0.2,2.4,0,4c-4.6-0.5-6.9-2.9-10.1-6.2c-1.8-2-1.8-2-4.3-2.6c0,0.5,0,1,0,1.6c-0.3,5.1-1.1,8.4-4.8,12.1
	c-4.2,3.4-8,3.7-13.4,3.6c-5.1-0.7-9.8-3.3-13-7.5c-1.9-4-2.5-8.6-3.2-12.9c-3.1,1.7-5,3.4-7.2,6.2c-2.9,3.4-2.9,3.4-5.8,3.6
	c-7.6-3.5-16.2-10.3-19.9-17.8c0.3-0.8,0.5-1.6,0.8-2.4h4.8v-1.6c0.5,0.1,1,0.2,1.5,0.4c4.6,1,9.2,2.1,13.7,0.4
	c1.5-1.3,2.7-2.7,3.8-4.3C266.4,253.8,266.4,253.8,268,252.9L268,252.9z" />
	<path class="st0" d="M430.4,252.9c1.6,0.1,3.3,0.2,4.9,0.3c0.7,0,1.4,0.1,2.2,0.1c1.9,0,3.4-0.3,5.2-0.8c0.3,0.4,0.5,0.8,0.8,1.2
	c0.3,0.5,0.7,1,1,1.5c0.3,0.5,0.7,1,1,1.5c1.8,2.1,3.5,2.9,6.3,3.1c0.7,0,1.4,0,2-0.1c0.7,0,1.5,0,2.2,0c0.8,0,1.5,0,2.3-0.1
	c1.5,0,3.1-0.1,4.6-0.1c1,0,1,0,2-0.1c1.7,0.2,1.7,0.2,3.3,1.8c-1.1,3.2-2.6,5.4-4.8,8c-0.6,0.8-1.2,1.5-1.8,2.3
	c-3.4,4-7.2,7.6-12.5,8.7c-3.3-0.8-4.4-2-6.6-4.6c-0.7-0.7-1.5-1.4-2.2-2.2c-1.8-1.8-1.8-1.8-1.8-3.4c-1.1,0.3-2.1,0.5-3.2,0.8
	c0,0.9,0,0.9-0.1,1.9c-0.3,5.3-0.5,9.1-3.9,13.3c-4.4,3.7-8.8,4.7-14.5,4.4c-4.4-0.7-7.8-2.4-10.8-5.8c-2.6-3.8-3.6-7.7-4.3-12.2
	h-2.4c-0.5,1.1-1.1,2.1-1.6,3.2h-1.6c-0.2,0.6-0.4,1.2-0.6,1.8c-1.1,2.4-1.8,3.3-4.2,4.6c-2.2-0.2-2.2-0.2-4-0.8
	c1.4-5.4,2.9-11.3,7.2-15.2c0.6-0.6,1.2-1.2,1.8-1.8c5.1-4.9,9.5-7.5,16.3-9.5c1.9-0.4,1.9-0.4,2.8-1.4
	C420.5,252.3,425.3,252.7,430.4,252.9L430.4,252.9z" />
	<path class="st2"
		d="M495.2,106.5c3.7,2.2,7.1,4.7,10.5,7.2c1.4,1,2.8,2,4.3,3v1.6h1.6c1.3,1.3,1.3,1.3,2.7,3c0.5,0.6,1,1.2,1.5,1.8
	c0.5,0.5,0.9,1.1,1.4,1.7c0.5,0.6,1.1,1.3,1.6,1.9c7.9,10.4,13.6,20.9,17.6,33.3c0.3,0.8,0.3,0.8,0.6,1.7c5.2,15,5.9,30.6,6.6,46.3
	c-3.1-2.4-4.5-3.8-5.6-7.6c-0.3-0.8-0.5-1.7-0.8-2.6c-0.3-0.9-0.5-1.8-0.8-2.7c-2.4-8.2-2.4-8.2-5.6-16c-0.4-0.9-0.4-0.9-0.8-1.8
	c-5.9-13.3-12.3-25.8-21.7-37.1c-1.5-1.9-3-3.8-4.5-5.7c-2.1-2.7-4.2-5-6.6-7.4c-0.5-0.5-1.1-1.1-1.6-1.6
	c-10.4-9.9-20.3-13.2-34.4-15.2V108c1.1-1.1,1.1-1.1,2.5-2c0.5-0.3,0.9-0.7,1.4-1C474.3,99.8,486.2,101.8,495.2,106.5L495.2,106.5z" />
	<path class="st2" d="M525.6,328.1c3.5,1.2,4.8,3.8,6.6,6.8c7,11.3,16.4,20.1,27.8,26.8c0.9,0.5,1.8,1.1,2.7,1.6
	c4.4,2.6,8.9,5,13.5,7.3c3.5,1.7,6.8,3.6,10,5.9c1.9,1.3,1.9,1.3,4.5,2.7c3,1.7,5.5,3.7,8.1,5.9c0.5,0.4,0.9,0.8,1.4,1.2
	c13.5,11.8,21.5,25.2,25.5,42.6c-3.3-1.7-4.8-3.3-6.6-6.4c-2.5-4.1-5.3-7.5-8.5-11c-1.4-1.5-2.7-3.1-4-4.7
	c-8.4-9.8-21.4-16.5-33.3-21.3c-5.7-2.3-11.1-5.1-16.6-7.9c-2-1-3.9-1.9-5.9-2.9c-5.1-2.6-9.3-5.7-13.1-9.8c-0.5-0.5-1-1.1-1.6-1.7
	c-3.3-3.5-5.8-6.9-8.1-11.1c-0.4-0.7-0.9-1.4-1.4-2.2c-1.6-2.8-2-5.2-2-8.4c0-0.6,0-1.3,0-1.9c0-0.6,0-1.3,0-2c0-0.7,0-1.3,0-2
	c0-0.6,0-1.3,0-1.9c0-0.6,0-1.1,0-1.7C524.9,330.6,524.9,330.6,525.6,328.1L525.6,328.1z" />
	<path class="st0"
		d="M451.2,220.9c1,0.5,1,0.5,2,1c2.3,1.6,3.5,3.1,5,5.4c0.5,0.7,0.9,1.4,1.4,2.1c0.4,0.6,0.8,1.3,1.2,1.9
	c0.8,1.2,0.8,1.2,1.6,2.4c0.3,1.6,0.6,3.2,0.8,4.8c-4.4-1.4-4.4-1.4-6.3-2.2c-8.2-3.5-15.9-1.5-24.2,1.4c-1.4,0.8-2.7,1.6-4,2.4
	c-9,3.8-18.6,5.7-28.2,7.4c-1.2,0.2-1.2,0.2-2.4,0.4c-13.4,2.2-13.4,2.2-17.4,0.2c-0.5-4.4,0.4-6.8,2.7-10.5c3-3.6,6.1-5.2,10.5-6.7
	c0.5-0.2,1-0.3,1.5-0.5c5.1-1.6,10.3-2.9,15.5-4.1c4.4-1,8.6-2.3,12.9-3.8C442.4,216.2,442.4,216.2,451.2,220.9L451.2,220.9z" />
	<path class="st2" d="M176,308.9l1.6,1.6c-1.5,5.8-3.6,11.4-6.4,16.8h-1.6c-0.2,0.6-0.4,1.3-0.6,2c-0.3,0.7-0.6,1.4-1,2
	c-1.2,0.4-1.2,0.4-2.4,0.8c-0.3,0.5-0.5,1.1-0.8,1.6c-0.3,0.5-0.5,1.1-0.8,1.6c-1.2,0.4-1.2,0.4-2.4,0.8c-0.5,1.1-1.1,2.1-1.6,3.2
	c-7.2,6.8-16.9,11.1-25.8,15c-15.1,6.7-28.5,14.5-41.4,25l-2.1,1.6c-2,1.5-2,1.5-3.5,4h-1.6c-0.5,1.1-1.1,2.1-1.6,3.2
	c-0.3-0.8-0.5-1.6-0.8-2.4h1.6c-0.3-0.8-0.5-1.6-0.8-2.4c0.9-2.2,0.9-2.2,2.2-4.7c0.4-0.8,0.8-1.6,1.3-2.5
	c3.3-6.1,7.4-10.2,12.6-14.7c1.5-1.3,1.5-1.3,2.6-2.5c2.3-2.3,5.1-4,7.7-5.8c0.6-0.4,1.2-0.8,1.8-1.2c0.6-0.4,1.1-0.8,1.7-1.2
	c0.5-0.4,1-0.7,1.6-1.1c1.3-0.8,1.3-0.8,2.9-0.8v-1.6c0.8-0.4,1.7-0.8,2.5-1.3c6.5-3.2,12.9-6.4,19-10.1c3.8-2.2,3.8-2.2,5.6-2.2
	v-1.6c0.9-0.4,1.7-0.8,2.6-1.2c9-4.5,17.5-12,24.3-19.5c1.1-1,1.1-1,3.5-1L176,308.9L176,308.9z" />
	<path class="st2" d="M475.2,133.7c4.9,2.7,8.8,6.1,12.7,10.1c0.8,0.7,0.8,0.7,1.6,1.5c13.8,14.2,21.1,35.4,27.2,53.7
	c0.2,0.6,0.4,1.3,0.7,2c0.2,0.6,0.4,1.2,0.6,1.8c0.3,0.9,0.3,0.9,0.6,1.8c0.5,1.6,0.5,1.6,0.5,4c-4.4-1-6.4-3-9-6.6
	c-0.3-0.4-0.7-0.9-1-1.4c-2.1-2.8-3.7-5.7-5.2-8.9c-1.1-1.8-2.1-3.6-3.2-5.4c-3.1-5.1-6.1-10.2-9.1-15.4c-1.6-2.8-3.3-5.5-4.9-8.2
	c-0.3-0.5-0.6-1-1-1.6c-1.4-2.1-3.1-3.7-4.9-5.4c-0.6-0.8-1.2-1.5-1.8-2.3c-5.3-6.5-12-9.6-19.8-12.1c-1.3-0.4-2.6-0.9-3.9-1.3
	c-0.6-0.2-1.2-0.4-1.9-0.6l-1.4-0.5c1.5-3.3,3.3-4.6,6.4-6.4C464,130.7,469.7,131.2,475.2,133.7L475.2,133.7z" />
	<path class="st2" d="M176,701.7c0.8,0.4,0.8,0.4,1.6,0.8c0.8,9-1.7,15.9-7.4,23c-7,7.2-16.2,11.3-26.2,11.6c-1.5,0-3,0-4.6,0
	c-0.8,0-1.5,0-2.3,0c-11,0.1-19.4-4.6-28.3-10.6c-0.5-0.5-1.1-1.1-1.6-1.6v-2.4c5.4-0.1,5.4-0.1,7.2,0.8c3.6,0.2,7.2,0.1,10.9,0.2
	c1,0,2,0,3,0c5.5,0,10.5-0.3,15.7-1.8c0.7-0.2,1.4-0.3,2.1-0.5c10.3-2.7,20.2-9.4,27.5-17.1l2.4-2.4L176,701.7z" />
	<path class="st2" d="M505.6,704.1c3.6,0.2,5.2,1.8,7.8,4.1c14.1,11.6,29.4,16.1,47.4,16c1.6,0,1.6,0,3.1,0c7,0,13.9-0.2,20.9-0.9
	c-2.6,2.6-4.8,4.6-8,6.4c-0.5,0.3-1,0.6-1.6,1c-3.9,2.3-7.7,3.8-12.1,5c-1.6,0.3-1.6,0.3-2.4,1.3c-14,1.8-28.9,1-40.7-7.5
	c-7.6-6-12.5-13.4-14.5-22.9V704.1L505.6,704.1z" />
	<path class="st2" d="M354.4,391.3c2.6,0,5.2,0,7.8,0c1.7,0,3.3,0,5,0c0.8,0,1.5,0,2.3,0c3.6,0,7.3,0.1,11,0.3c1,0.1,1,0.1,2,0.1
	c1.6,0.5,1.6,0.5,2.6,2.1c0.2,0.5,0.4,1,0.6,1.6c-4.7,5.4-10.9,8.1-17.8,9.3c-1.4,0.2-1.4,0.2-2.2,1.1c-3.4,0.2-6.8,0.1-10.2,0.2
	c-1,0-1.9,0-2.9,0c-1.4,0-1.4,0-2.8,0c-0.8,0-1.7,0-2.6,0c-2.6-0.2-4.8-0.9-7.2-1.8c-1-0.3-1-0.3-2-0.7c-4.7-1.8-9.4-3.9-13.2-7.3
	c-0.6-1.8-0.6-1.8-0.8-3.2C333.3,389.9,344.9,391.3,354.4,391.3L354.4,391.3z" />
	<path class="st2" d="M183.2,650.5c0.9,1,0.9,1,1.8,2.1c0.4,0.4,0.8,0.8,1.1,1.2c5,5.4,8.8,12.2,9.3,19.7c0.3,1.3,0.5,2.7,0.8,4
	c-3.6-2.8-6.4-5.6-9.1-9.2c-5.8-7.2-12.9-12.2-22.1-13.8c-11-1.2-21.8,0.4-32.7,2.1c1.6-5.1,5.1-7,9.6-9.6
	c13.8-6.5,29.4-7.1,41.4,3.5L183.2,650.5z" />
	<path class="st2" d="M172,271.3c-0.3,0.8-0.5,1.6-0.8,2.4c-1.7,0.7-1.7,0.7-4,1.4c-6.8,2.3-11.9,6.3-16.9,11.4
	c-0.8,0.3-1.6,0.5-2.4,0.8c-0.6,1.3-1.1,2.6-1.6,4c-0.8,1.2-1.6,2.4-2.4,3.6c-2.6,4.2-3.5,8.2-4.3,13c-0.7,3.7-1.6,6.7-3.7,9.8
	c-2.5,0.6-2.5,0.6-4.8,0.8c-2.1-2.1-2.4-3.2-2.7-6.3c0-1.2,0-2.4,0-3.6c0-0.6,0-1.2,0-1.8c0.1-5.7,1.4-10.3,4.2-15.3
	c0.4-0.7,0.8-1.4,1.2-2.2c0.6-1,0.6-1,1.2-2.1c0.4-0.7,0.8-1.4,1.2-2.1c1.2-1.8,2.2-3,3.9-4.3c0.5-0.4,1-0.8,1.5-1.2
	c0.5-0.4,0.9-0.7,1.4-1.1c1-0.8,1-0.8,2-1.7C151.9,271.9,163.9,267.2,172,271.3L172,271.3z" />
	<path class="st2" d="M572.8,653.7c1.4,1.5,2.2,2.9,3,4.8c-2.7,0-4.6-0.8-7-1.8c-2.8-1-5.6-1.3-8.5-1.6c-0.6-0.1-1.2-0.1-1.8-0.2
	c-4.4-0.4-8-0.2-12.2,1.3c-1.2,0.3-2.4,0.6-3.6,0.9c-0.9,0.2-1.8,0.5-2.8,0.7v1.6c-1.3,0.9-1.3,0.9-3,1.8c-2.9,1.7-4.6,3.4-6.6,6.2
	c-0.6,0.6-1.3,1.2-1.9,1.8c-2.6,2.7-4.7,5.5-6.9,8.6c-2.3-3.4-1.9-6.4-1.6-10.4c0.6-2,0.6-2,1.6-4c0.2-0.5,0.5-1,0.7-1.6
	c3.6-7.3,9.8-12.6,17.1-16.1C551.7,641.6,563.5,645.3,572.8,653.7L572.8,653.7z" />
	<path class="st2"
		d="M173.6,620.1c0.8,0.4,0.8,0.4,1.6,0.7c11.7,5.5,19,13.8,23.9,25.7c2.7,7.9,2.7,7.9,1.6,11.2
	c-2.9-2.8-5.4-5.6-7.8-8.9c-0.6-0.8-1.2-1.6-1.9-2.5c-1.6-2.3-1.6-2.3-2.4-4.1c-1-1.8-2.1-2.1-4-3c-0.9-0.8-1.9-1.7-2.8-2.6
	c-8-7.1-17.5-10.1-27.7-12.6c-0.6-0.2-1.2-0.3-1.9-0.5c-3.6-0.9-7.3-1.8-11-2.7v-2.4C151,613.3,164.3,616,173.6,620.1L173.6,620.1z" />
	<path class="st2" d="M208.8,281.7c3,1.1,5.3,2.4,7.8,4.4c0.6,0.5,1.2,1,1.9,1.4c2.5,2.2,3.4,4.2,4.1,7.4c0.2,0.7,0.3,1.4,0.5,2.2
	c0.2,0.8,0.3,1.5,0.5,2.3c0.2,0.8,0.3,1.6,0.5,2.4c0.4,1.6,0.7,3.2,1.1,4.8c0.5,2.2,1,4.4,1.5,6.6c0.1,0.7,0.3,1.3,0.5,2
	c0.3,1.2,0.6,2.4,0.8,3.7c0.6,2.7,0.9,5,0.9,7.7c-6.2-0.9-10.5-5.3-14.3-10c-5.7-7.8-7.4-16.7-7.4-26.2c0-0.7,0-1.3,0-2
	c0-1.7,0.1-3.4,0.2-5.1L208.8,281.7L208.8,281.7z" />
	<path class="st2" d="M496,281.7c1.1,0.3,2.1,0.5,3.2,0.8c0.3,13.8,0.3,28.3-9.6,39.2c-1.8,1.4-1.8,1.4-3.6,2.6
	c-0.6,0.4-1.2,0.8-1.9,1.2c-1.7,0.9-1.7,0.9-4.1,0.9c-1-5-1-5-0.1-7.6c1.5-4.6,2.1-9.4,2.8-14.2c1-6,2.2-11.9,5.3-17.4
	c1.5-0.9,1.5-0.9,3.2-1.6C493.9,284.5,494.4,284.2,496,281.7L496,281.7z" />
	<path class="st2" d="M144.8,434.5c-1,1.3-2.1,2.7-3.1,4c-0.6,0.7-1.2,1.5-1.7,2.2c-0.5,0.6-1,1.2-1.6,1.8h-1.6
	c-0.2,0.5-0.4,1.1-0.6,1.6c-0.9,2-1.8,3.6-3,5.4c-2.2,3.4-3.8,6.9-5.3,10.6c-0.2,0.6-0.5,1.1-0.7,1.7c-2.9,7.7-2.6,15.9-2.4,24.1
	c0,2.2,0,2.2-0.8,3c-1.8,0.3-1.8,0.3-4,0c-4-3.3-4.3-8-4.8-12.8c-1-11.5,3.6-21.2,10.6-30.2C129.3,441.8,138.7,431.4,144.8,434.5
	L144.8,434.5z" />
	<path class="st2"
		d="M545.6,616.1c1,0,1,0,2,0c5.3,0,9.9,0.9,14.8,3.3c0.5,0.2,1,0.5,1.6,0.7c1.7,1.2,2.2,2.3,3,4.2
	c-0.5-0.1-0.9-0.3-1.4-0.4c-12.6-2.8-27.4-0.3-38.6,6h-1.6c-0.3,0.8-0.5,1.6-0.8,2.4c-2.4,1.8-4.4,3.1-7.2,4
	c-0.3,0.8-0.5,1.6-0.8,2.4H515c-0.2,0.5-0.4,1.1-0.6,1.6c-1.3,2.9-2.9,5.6-5,8h-1.6c-0.3,0.8-0.5,1.6-0.8,2.4
	c-0.6-6.4,0.8-10.5,4-16c0.4-0.8,0.4-0.8,0.8-1.6c4.4-8.5,14.6-13,23.2-16C538.6,616.1,542,616.2,545.6,616.1L545.6,616.1z" />
	<path class="st2"
		d="M507.2,567.3c2.4,1.2,3.4,2.6,4.8,4.8c0.2,2,0.2,2-0.8,4c-1.4,1.3-2.9,2.3-4.5,3.4c-5.1,3.7-9.8,8.1-13.7,13
	c-1,1.2-1,1.2-2.2,2.4c-1.4,1.3-1.4,1.3-2.8,3.6h-1.6c-0.2,0.6-0.4,1.2-0.6,1.8c-1,2.3-2.2,4.2-3.7,6.2c-2.1,2.9-3.7,5.7-5.2,8.9
	c-1.8,3-3.7,5.9-5.6,8.8c-1-3.3-0.3-5.6,0.8-8.8c0.2-0.7,0.4-1.4,0.7-2.1c2.3-6.8,5.7-12.7,9.5-18.7c0.7-1.1,1.4-2.3,2.1-3.4
	c0.4-0.6,0.7-1.2,1.1-1.8c0.3-0.5,0.6-1.1,1-1.6c0.4-0.6,0.4-0.6,0.9-1.2h1.6c0.2-0.6,0.4-1.2,0.6-1.8c1.1-2.4,2.2-3.7,4.1-5.5
	c1.7-1.6,3.2-3.1,4.6-4.9c0.4-0.5,0.7-0.9,1.1-1.4h1.6c0.2-0.5,0.4-1,0.6-1.4C502.9,569.1,504.3,567.4,507.2,567.3L507.2,567.3z" />
	<path class="st2" d="M592,636.9c5.5,2.5,7.4,7.2,9.4,12.6c3.8,11.4,2.8,23.8-2.2,34.6c-2.4,4.5-5.7,9.6-10.4,12
	c0.3-4.9,1-9.4,2.6-14c1.3-4.6,1.5-9.2,1.5-13.9c0-0.6,0-1.2,0-1.8c0-1.2,0-2.5,0-3.7c0-1.9,0-3.7,0-5.6
	C592.9,650.3,592.8,643.6,592,636.9L592,636.9z" />
	<path class="st2" d="M534.4,296.9c4.9,0.2,7.6,2.6,11.2,5.6c0.5,0.3,0.9,0.7,1.4,1c8.2,6.3,14.4,17,15.9,27.1c0.6,5.1,0.5,10-0.6,15
	c-2.7,0.1-2.7,0.1-5.6,0c-1.9-1.9-1.9-2.6-2.3-5.1c-0.1-0.7-0.2-1.4-0.4-2.1c-0.1-0.8-0.2-1.5-0.4-2.3c-2.3-13-7.6-22.8-15.5-33.3
	C536.8,301,535.6,299,534.4,296.9L534.4,296.9z" />
	<path class="st2" d="M209.6,576.1c12.9,6.2,20.8,23.7,25.5,36.4c1,3,1.9,6,2.4,9.2c-2.4-0.8-2.4-0.8-3.4-2.7
	c-0.5-0.9-0.9-1.9-1.4-2.9c-1.8-2.8-3.6-5.6-5.5-8.3c-0.7-1.1-0.7-1.1-1.5-2.2c-5.6-8.3-5.6-8.3-12.2-15.8c-1.1-1.3-2.1-2.7-3.2-4
	c-0.7-0.7-1.5-1.4-2.2-2c-1.8-2-1.8-2-1.8-5.2C208,577.2,208,577.2,209.6,576.1L209.6,576.1z" />
	<path class="st0" d="M343.2,343.3c2.9,1.6,4.5,2.8,6.4,5.6v2.4c-1.8,0.1-3.6,0.1-5.4,0.2c-1.5,0.1-1.5,0.1-3,0.1
	c-2.8-0.3-2.8-0.3-4.7-1.9c-0.4-0.5-0.8-1-1.2-1.6C336.9,343.5,338.3,342.9,343.2,343.3L343.2,343.3z" />
	<path class="st0" d="M372,343.3c1.2,2.4,0.9,4.6,0.8,7.2c-0.8,0.8-0.8,0.8-3.3,0.9c-1.5,0-1.5,0-3.1,0c-1,0-2.1,0-3.1,0
	c-0.8,0-1.6,0-2.4,0c-0.3-0.8-0.5-1.6-0.8-2.4C364.1,344.7,366.1,343.1,372,343.3L372,343.3z" />
	<path class="st2" d="M415.2,268.1c0.6,0,1.3,0.1,1.9,0.1c1.2,2.4,0.8,4.6,0.8,7.2c-1.8,0.6-1.8,0.6-4,0.8c-1.8-1.2-1.8-1.2-3.2-2.4
	C411.6,268.3,411.6,268.3,415.2,268.1L415.2,268.1z" />
	<path class="st2" d="M290.4,268.9c0.3,1.9,0.6,3.7,0.8,5.6c-0.8,0.8-0.8,0.8-3.6,0.8c-0.9,0-1.8,0-2.8,0c-0.3-1.3-0.5-2.6-0.8-4
	C286.5,269.2,287,268.9,290.4,268.9L290.4,268.9z" />
</svg>