<?xml version="1.0" encoding="utf-8"?>
<!-- Generator: Adobe Illustrator 28.4.1, SVG Export Plug-In . SVG Version: 6.00 Build 0)  -->
<svg version="1.1" id="Layer_1" xmlns="http://www.w3.org/2000/svg" xmlns:xlink="http://www.w3.org/1999/xlink" x="0px" y="0px"
	 viewBox="0 0 800 800" style="enable-background:new 0 0 800 800;" xml:space="preserve">
<style type="text/css">
	.st0{fill:#FFFFFF;}
	.st1{enable-background:new    ;}
</style>
<path class="st0" d="M459.2,787.5H339.3c-79.5,0-143.8-68.7-143.8-153.3V404.3h145.4v51.1c0,28.2,20,51.1,46.4,51.1h23.9
	c26.5,0,47.9-22.9,47.9-51.1v-51.1h145.3v229.9C604.6,718.9,538.6,787.5,459.2,787.5z M459.2,353.3c0-28.2-21.5-51.1-47.9-51.1l0,0
	V150.5c0,0-31.5-1.6,46.4-1.6s146.8,54.2,146.8,153.3c0,50.8,0,69.1,0,75H459.2V353.3z M435.2,366v76.6c0,21.2-16.1,38.3-36,38.3
	c-19.8,0-36-17.1-36-38.3V366c0-21.2,16.1-38.4,36-38.4C419.2,327.7,435.2,344.8,435.2,366L435.2,366z M340.8,148.9
	c77.9,0,47.9,1.6,47.9,1.6v151.6c-26.5,0-47.9,22.9-47.9,51.1v23.9H195.4c0-5.9,0-24.2,0-75C195.4,203.2,262.9,148.9,340.8,148.9
	L340.8,148.9z"/>
<g class="st1">
	<path class="st0" d="M104.8,159c7.3,0,10.9-2.5,10.9-7.5c0-1.5-0.3-2.8-1-3.9s-1.5-2-2.6-2.8c-1.1-0.8-2.4-1.5-3.8-2.1
		c-1.4-0.6-2.9-1.2-4.5-1.7c-1.8-0.6-3.6-1.3-5.2-2.1c-1.6-0.8-3-1.7-4.2-2.8c-1.2-1.1-2.1-2.4-2.8-3.9c-0.7-1.5-1-3.3-1-5.4
		c0-4.4,1.5-7.8,4.5-10.2c3-2.4,7.1-3.7,12.3-3.7c3,0,5.8,0.3,8.2,1c2.5,0.6,4.3,1.4,5.4,2.1l-2.2,5.7c-1-0.6-2.5-1.2-4.5-1.8
		c-2-0.6-4.3-0.9-6.9-0.9c-1.3,0-2.6,0.1-3.7,0.4s-2.2,0.7-3,1.3c-0.9,0.6-1.5,1.3-2.1,2.2c-0.5,0.9-0.8,1.9-0.8,3.1
		c0,1.3,0.3,2.5,0.8,3.4c0.5,0.9,1.3,1.7,2.2,2.4c1,0.7,2.1,1.3,3.3,1.9c1.3,0.6,2.7,1.2,4.2,1.7c2.2,0.9,4.1,1.7,5.9,2.6
		s3.4,1.9,4.7,3.1c1.3,1.2,2.3,2.6,3.1,4.3c0.7,1.7,1.1,3.7,1.1,6c0,4.4-1.6,7.7-4.8,10.1c-3.2,2.4-7.7,3.5-13.5,3.5
		c-2,0-3.8-0.1-5.4-0.4c-1.7-0.3-3.1-0.6-4.4-0.9s-2.4-0.7-3.3-1.2c-0.9-0.4-1.7-0.8-2.2-1l2.1-5.8c1.1,0.6,2.8,1.3,5,2.1
		C98.8,158.6,101.6,159,104.8,159z"/>
	<path class="st0" d="M144.8,113.6c7,0,12.4,1.3,16.2,4c3.8,2.7,5.7,6.6,5.7,11.9c0,2.9-0.5,5.3-1.5,7.4c-1,2-2.5,3.7-4.5,5
		c-1.9,1.3-4.3,2.2-7.1,2.8c-2.8,0.6-5.9,0.9-9.4,0.9h-5.5V164h-7v-49.2c2-0.5,4.2-0.8,6.6-1C140.5,113.6,142.8,113.6,144.8,113.6z
		 M145.4,119.7c-3,0-5.3,0.1-6.8,0.2v19.6h5.3c2.4,0,4.6-0.2,6.5-0.5c1.9-0.3,3.5-0.8,4.9-1.6c1.3-0.7,2.3-1.8,3.1-3.1
		c0.7-1.3,1.1-3,1.1-5c0-1.9-0.4-3.5-1.1-4.8c-0.7-1.2-1.8-2.2-3-3c-1.3-0.7-2.7-1.3-4.4-1.5C149,119.8,147.2,119.7,145.4,119.7z"/>
	<path class="st0" d="M175.3,114.1h7V164h-7V114.1z"/>
	<path class="st0" d="M228.9,164c-1.1-1.8-2.3-3.8-3.6-6c-1.4-2.2-2.8-4.5-4.4-6.9s-3.2-4.8-4.9-7.2c-1.7-2.4-3.4-4.8-5.1-7.1
		c-1.7-2.3-3.3-4.4-4.9-6.4s-3-3.8-4.4-5.3v39h-6.8v-49.9h5.5c2.3,2.4,4.7,5.2,7.2,8.4c2.6,3.2,5.1,6.5,7.6,9.9
		c2.5,3.4,4.9,6.7,7.1,10c2.2,3.3,4.1,6.2,5.7,8.7v-36.9h6.8V164H228.9z"/>
</g>
<g class="st1">
	<path class="st0" d="M331.2,16.8c-1.1,1.2-2.4,2.7-3.9,4.5c-1.5,1.8-3,3.7-4.6,5.8c-1.6,2.1-3.3,4.4-5,6.8s-3.4,4.8-5.1,7.2
		c-1.7,2.4-3.2,4.8-4.7,7.2c-1.5,2.4-2.8,4.7-4,6.8h28.1v6h-36.2v-4.7c1-1.9,2.2-4,3.6-6.3c1.4-2.3,2.8-4.7,4.4-7.1
		c1.6-2.4,3.2-4.8,4.9-7.3c1.7-2.4,3.3-4.8,5-7.1c1.7-2.3,3.3-4.4,4.8-6.3c1.6-2,3-3.7,4.3-5.2H297v-6h34.2V16.8z"/>
	<path class="st0" d="M336.1,36.2c0-4.3,0.6-8,1.9-11.3c1.3-3.3,3-6,5.2-8.2c2.2-2.2,4.7-3.8,7.6-4.9c2.9-1.1,6-1.7,9.3-1.7
		c3.2,0,6.3,0.6,9.1,1.7c2.9,1.1,5.4,2.7,7.5,4.9c2.2,2.2,3.9,4.9,5.1,8.2c1.3,3.3,1.9,7,1.9,11.3c0,4.3-0.6,8-1.9,11.3
		c-1.3,3.3-3,6-5.1,8.2c-2.2,2.2-4.7,3.8-7.5,4.9c-2.9,1.1-5.9,1.7-9.1,1.7c-3.3,0-6.3-0.6-9.3-1.7c-2.9-1.1-5.4-2.7-7.6-4.9
		c-2.2-2.2-3.9-4.9-5.2-8.2C336.8,44.2,336.1,40.4,336.1,36.2z M343.5,36.2c0,3,0.4,5.8,1.2,8.2c0.8,2.5,1.9,4.6,3.3,6.3
		c1.4,1.7,3.1,3.1,5.2,4c2,0.9,4.3,1.4,6.9,1.4c2.5,0,4.8-0.5,6.8-1.4c2-0.9,3.7-2.3,5.1-4c1.4-1.7,2.5-3.8,3.3-6.3
		c0.8-2.5,1.2-5.2,1.2-8.2c0-3-0.4-5.8-1.2-8.2c-0.8-2.5-1.9-4.6-3.3-6.3c-1.4-1.7-3.1-3.1-5.1-4c-2-0.9-4.3-1.4-6.8-1.4
		c-2.5,0-4.8,0.5-6.9,1.4c-2,0.9-3.8,2.3-5.2,4c-1.4,1.7-2.5,3.8-3.3,6.3C343.9,30.4,343.5,33.1,343.5,36.2z"/>
	<path class="st0" d="M392.2,36.2c0-4.3,0.6-8,1.9-11.3c1.3-3.3,3-6,5.2-8.2c2.2-2.2,4.7-3.8,7.6-4.9c2.9-1.1,6-1.7,9.3-1.7
		c3.2,0,6.3,0.6,9.1,1.7s5.4,2.7,7.5,4.9c2.2,2.2,3.9,4.9,5.1,8.2c1.3,3.3,1.9,7,1.9,11.3c0,4.3-0.6,8-1.9,11.3
		c-1.3,3.3-3,6-5.1,8.2c-2.2,2.2-4.7,3.8-7.5,4.9s-5.9,1.7-9.1,1.7c-3.3,0-6.3-0.6-9.3-1.7c-2.9-1.1-5.4-2.7-7.6-4.9
		c-2.2-2.2-3.9-4.9-5.2-8.2C392.8,44.2,392.2,40.4,392.2,36.2z M399.5,36.2c0,3,0.4,5.8,1.2,8.2c0.8,2.5,1.9,4.6,3.3,6.3
		c1.4,1.7,3.1,3.1,5.2,4c2,0.9,4.3,1.4,6.9,1.4c2.5,0,4.8-0.5,6.8-1.4c2-0.9,3.7-2.3,5.1-4c1.4-1.7,2.5-3.8,3.3-6.3
		c0.8-2.5,1.2-5.2,1.2-8.2c0-3-0.4-5.8-1.2-8.2c-0.8-2.5-1.9-4.6-3.3-6.3c-1.4-1.7-3.1-3.1-5.1-4c-2-0.9-4.3-1.4-6.8-1.4
		c-2.5,0-4.8,0.5-6.9,1.4c-2,0.9-3.8,2.3-5.2,4c-1.4,1.7-2.5,3.8-3.3,6.3C399.9,30.4,399.5,33.1,399.5,36.2z"/>
	<path class="st0" d="M472.6,54.2c-0.5-1.2-1.1-2.6-1.9-4.4c-0.8-1.8-1.6-3.7-2.6-5.8c-0.9-2.1-1.9-4.2-2.9-6.4
		c-1-2.2-2-4.2-2.9-6.2c-0.9-1.9-1.8-3.7-2.6-5.2s-1.4-2.7-1.9-3.5c-0.5,5.7-1,11.8-1.3,18.4c-0.3,6.6-0.6,13.3-0.9,20h-6.8
		c0.2-4.3,0.4-8.7,0.6-13.1c0.2-4.4,0.5-8.7,0.8-13c0.3-4.2,0.6-8.4,1-12.4s0.8-7.8,1.2-11.4h6.1c1.3,2.1,2.7,4.6,4.2,7.5
		c1.5,2.9,3,5.9,4.5,9c1.5,3.1,2.9,6.3,4.3,9.4c1.4,3.1,2.7,6,3.8,8.6c1.2-2.6,2.4-5.5,3.8-8.6c1.4-3.1,2.8-6.3,4.3-9.4
		c1.5-3.1,3-6.2,4.5-9s2.9-5.4,4.2-7.5h6.1c1.6,16.1,2.9,32.7,3.7,49.9h-6.8c-0.2-6.7-0.5-13.4-0.9-20c-0.3-6.6-0.8-12.7-1.3-18.4
		c-0.5,0.8-1.1,2-1.9,3.5c-0.8,1.5-1.6,3.3-2.6,5.2s-1.9,4-2.9,6.2c-1,2.2-2,4.3-2.9,6.4c-0.9,2.1-1.8,4-2.6,5.8
		c-0.8,1.8-1.4,3.2-1.9,4.4H472.6z"/>
</g>
<g class="st1">
	<path class="st0" d="M577.9,157c-0.5-1.2-1.1-2.6-1.9-4.4c-0.8-1.8-1.6-3.7-2.6-5.8c-0.9-2.1-1.9-4.2-2.9-6.4c-1-2.2-2-4.2-2.9-6.2
		c-0.9-1.9-1.8-3.7-2.6-5.2s-1.4-2.7-1.9-3.5c-0.5,5.7-1,11.8-1.3,18.4c-0.3,6.6-0.6,13.3-0.9,20h-6.8c0.2-4.3,0.4-8.7,0.6-13.1
		c0.2-4.4,0.5-8.7,0.8-13s0.6-8.4,1-12.4c0.4-4,0.8-7.8,1.2-11.4h6.1c1.3,2.1,2.7,4.6,4.2,7.5c1.5,2.9,3,5.9,4.5,9
		c1.5,3.1,2.9,6.3,4.3,9.4c1.4,3.1,2.7,6,3.8,8.6c1.2-2.6,2.4-5.5,3.8-8.6c1.4-3.1,2.8-6.3,4.3-9.4c1.5-3.1,3-6.2,4.5-9
		c1.5-2.9,2.9-5.4,4.2-7.5h6.1c1.6,16.1,2.9,32.7,3.7,49.9h-6.8c-0.2-6.7-0.5-13.4-0.9-20c-0.3-6.6-0.8-12.7-1.3-18.4
		c-0.5,0.8-1.1,2-1.9,3.5c-0.8,1.5-1.6,3.3-2.6,5.2c-0.9,1.9-1.9,4-2.9,6.2c-1,2.2-2,4.3-2.9,6.4c-0.9,2.1-1.8,4-2.6,5.8
		c-0.8,1.8-1.4,3.2-1.9,4.4H577.9z"/>
	<path class="st0" d="M616.2,139c0-4.3,0.6-8,1.9-11.3c1.3-3.3,3-6,5.2-8.2c2.2-2.2,4.7-3.8,7.6-4.9c2.9-1.1,6-1.7,9.3-1.7
		c3.2,0,6.3,0.6,9.1,1.7s5.4,2.7,7.5,4.9c2.2,2.2,3.9,4.9,5.1,8.2c1.3,3.3,1.9,7,1.9,11.3c0,4.3-0.6,8-1.9,11.3
		c-1.3,3.3-3,6-5.1,8.2c-2.2,2.2-4.7,3.8-7.5,4.9s-5.9,1.7-9.1,1.7c-3.3,0-6.3-0.6-9.3-1.7c-2.9-1.1-5.4-2.7-7.6-4.9
		c-2.2-2.2-3.9-4.9-5.2-8.2C616.8,147,616.2,143.2,616.2,139z M623.5,139c0,3,0.4,5.8,1.2,8.2c0.8,2.5,1.9,4.6,3.3,6.3
		c1.4,1.7,3.1,3.1,5.2,4c2,0.9,4.3,1.4,6.9,1.4s4.8-0.5,6.8-1.4c2-0.9,3.7-2.3,5.1-4c1.4-1.7,2.5-3.8,3.3-6.3
		c0.8-2.5,1.2-5.2,1.2-8.2c0-3-0.4-5.8-1.2-8.2c-0.8-2.5-1.9-4.6-3.3-6.3c-1.4-1.7-3.1-3.1-5.1-4c-2-0.9-4.3-1.4-6.8-1.4
		s-4.8,0.5-6.9,1.4c-2,0.9-3.8,2.3-5.2,4c-1.4,1.7-2.5,3.8-3.3,6.3C623.9,133.2,623.5,136,623.5,139z"/>
	<path class="st0" d="M713.3,114.1c-1.8,5.3-3.6,10.2-5.2,14.7c-1.7,4.5-3.3,8.7-4.9,12.8s-3.2,7.9-4.7,11.6s-3.2,7.3-4.8,10.9h-6.6
		c-1.6-3.6-3.2-7.2-4.8-10.9s-3.1-7.5-4.8-11.6s-3.3-8.3-4.9-12.8c-1.7-4.5-3.4-9.4-5.2-14.7h7.7c2.6,7.6,5.1,14.9,7.6,21.9
		c2.5,7,5.1,13.6,7.7,19.7c2.6-6.1,5.2-12.7,7.7-19.7c2.5-7,5-14.3,7.6-21.9H713.3z"/>
	<path class="st0" d="M720.2,164v-49.9h30.5v6h-23.5v14.8h20.9v5.8h-20.9V158h25.3v6H720.2z"/>
</g>
</svg>
