<?xml version="1.0" encoding="UTF-8"?>
<svg id="Layer_1" data-name="Layer 1" xmlns="http://www.w3.org/2000/svg" viewBox="0 0 102.72 50.04">
  <defs>
    <style>
      .cls-1 {
        fill: #ffffff;
        stroke-width: 0px;
      }
    </style>
  </defs>
  <path class="cls-1"
    d="M12.58,15.34c1.02,0,1.99.08,2.9.24.91.16,1.54.32,1.9.48-.25,1.08-.37,1.61-.62,2.69-.26-.13-.78-.26-1.56-.41-.78-.14-1.82-.22-3.1-.22-1.34,0-2.42.1-3.24.29s-1.35.35-1.61.48v21.74c-1.25,0-1.87,0-3.12,0,0-9.47,0-14.2,0-23.66.8-.35,1.9-.71,3.31-1.08,1.41-.37,3.12-.55,5.14-.55Z" />
  <path class="cls-1"
    d="M25.92,8.33c0,.74-.22,1.32-.67,1.75-.45.43-.99.65-1.63.65s-1.18-.22-1.63-.65c-.45-.43-.67-1.02-.67-1.75s.22-1.32.67-1.75c.45-.43.99-.65,1.63-.65s1.18.22,1.63.65c.45.43.67,1.02.67,1.75ZM25.2,40.63h-3.12V15.82h3.12v24.82Z" />
  <path class="cls-1"
    d="M49.63,37.75c-.19.16-.48.34-.86.55-.38.21-.86.42-1.42.65-.56.22-1.2.41-1.92.55s-1.53.22-2.42.22c-1.44,0-2.83-.22-4.18-.67-1.34-.45-2.52-1.15-3.53-2.11-1.01-.96-1.82-2.2-2.42-3.72-.61-1.52-.91-3.37-.91-5.54,0-1.76.27-3.39.82-4.9.54-1.5,1.32-2.81,2.33-3.91,1.01-1.1,2.24-1.97,3.7-2.59,1.46-.62,3.1-.94,4.92-.94,2.3,0,4.15.15,5.54.46,1.39.3,2.54.6,3.43.89v22.66c0,3.71-.96,6.36-2.88,7.94-1.92,1.58-4.82,2.38-8.69,2.38-1.6,0-3.05-.12-4.34-.36-1.3-.24-2.41-.52-3.34-.84.25-1.13.37-1.7.62-2.83.77.35,1.82.66,3.14.91,1.33.26,2.66.38,4.01.38,2.94,0,5.08-.57,6.41-1.7,1.33-1.14,1.99-3.08,1.99-5.83v-1.63ZM49.58,18.84c-.54-.16-1.25-.31-2.11-.46-.86-.14-2.1-.22-3.7-.22-1.34,0-2.54.23-3.58.7-1.04.46-1.93,1.12-2.66,1.97-.74.85-1.3,1.86-1.68,3.02-.38,1.17-.58,2.46-.58,3.86,0,1.63.22,3.03.67,4.2.45,1.17,1.03,2.12,1.75,2.86.72.74,1.54,1.27,2.47,1.61.93.34,1.87.5,2.83.5,1.41,0,2.7-.21,3.86-.62,1.17-.42,2.07-.9,2.71-1.44v-15.98Z" />
  <path class="cls-1"
    d="M60.96,40.63c0-12.22,0-24.45,0-36.67,1.25-.23,1.87-.35,3.12-.58,0,5.26,0,7.89,0,13.15,1.02-.38,2.06-.68,3.12-.89,1.06-.21,2.11-.31,3.17-.31,1.92,0,3.52.27,4.8.82,1.28.54,2.3,1.32,3.07,2.33.77,1.01,1.3,2.22,1.61,3.62.3,1.41.46,2.96.46,4.66v13.87h-3.12c0-5.15,0-7.72,0-12.86,0-1.76-.12-3.25-.36-4.46-.24-1.22-.64-2.21-1.2-2.98-.56-.77-1.3-1.32-2.23-1.66s-2.1-.5-3.5-.5c-.54,0-1.13.05-1.75.14-.62.1-1.21.2-1.75.31-.54.11-1.03.23-1.46.36-.43.13-.71.22-.84.29,0,8.54,0,12.82,0,21.36-1.25,0-1.87,0-3.12,0Z" />
  <path class="cls-1"
    d="M91.2,15.82c3.96,0,5.93,0,9.89,0v2.64c-3.96,0-5.93,0-9.89,0v13.2c0,1.41.12,2.55.36,3.43.24.88.58,1.56,1.03,2.04.45.48.99.8,1.63.96.64.16,1.34.24,2.11.24,1.31,0,2.37-.15,3.17-.46.8-.3,1.42-.58,1.87-.84.31,1.04.46,1.56.77,2.59-.45.29-1.23.62-2.35.98-1.12.37-2.34.55-3.65.55-1.54,0-2.82-.2-3.86-.6-1.04-.4-1.87-1.01-2.5-1.82s-1.06-1.83-1.32-3.05c-.26-1.22-.38-2.66-.38-4.32V8.52l3.12-.58c0,3.15,0,4.72,0,7.87Z" />
</svg>