<?xml version="1.0" encoding="utf-8"?>
<!-- Generator: Adobe Illustrator 28.4.1, SVG Export Plug-In . SVG Version: 6.00 Build 0)  -->
<svg version="1.1" id="Layer_1" xmlns="http://www.w3.org/2000/svg" xmlns:xlink="http://www.w3.org/1999/xlink" x="0px" y="0px"
	 viewBox="0 0 11.5 12" style="enable-background:new 0 0 11.5 12;" xml:space="preserve">
<style type="text/css">
	.st0{fill:#FFFFFF;}
</style>
<path class="st0" d="M0,4.2C0.3,3.3,0.7,2.6,1.3,2c0.1-0.1,0.2-0.1,0.4-0.1L3,2.4c0.4,0.1,0.8-0.1,0.9-0.4c0,0,0-0.1,0-0.1l0.3-1.4
	c0-0.1,0.1-0.3,0.3-0.3C4.9,0,5.3,0,5.8,0C6.2,0,6.6,0,7,0.1c0.1,0,0.2,0.1,0.3,0.3l0.3,1.4C7.6,2.2,8,2.5,8.4,2.4c0,0,0.1,0,0.1,0
	l1.4-0.5c0.1,0,0.3,0,0.4,0.1c0.6,0.6,1,1.4,1.3,2.2c0,0.1,0,0.3-0.1,0.4l-1.1,0.9c-0.3,0.3-0.3,0.7-0.1,1c0,0,0.1,0.1,0.1,0.1
	l1.1,0.9c0.1,0.1,0.2,0.2,0.1,0.4c-0.3,0.8-0.7,1.5-1.3,2.2c-0.1,0.1-0.2,0.1-0.4,0.1L8.5,9.6c-0.4-0.1-0.8,0.1-0.9,0.4
	c0,0,0,0.1,0,0.1l-0.3,1.4c0,0.1-0.1,0.3-0.3,0.3C6.6,12,6.2,12,5.8,12c-0.4,0-0.8,0-1.3-0.1c-0.1,0-0.2-0.1-0.3-0.3L4,10.2
	C3.9,9.8,3.5,9.5,3.1,9.6c0,0-0.1,0-0.1,0l-1.4,0.5c-0.1,0-0.3,0-0.4-0.1C0.7,9.4,0.3,8.7,0,7.8c0-0.1,0-0.3,0.1-0.4l1.1-0.9
	c0.3-0.3,0.3-0.7,0.1-1c0,0-0.1-0.1-0.1-0.1L0.1,4.5C0,4.4,0,4.3,0,4.2z M4,6c0,1,0.8,1.8,1.7,1.8S7.5,7,7.5,6S6.7,4.2,5.7,4.2
	S4,5,4,6z"/>
</svg>
