<?xml version="1.0" encoding="utf-8"?>
<!-- Generator: Adobe Illustrator 28.4.1, SVG Export Plug-In . SVG Version: 6.00 Build 0)  -->
<svg version="1.1" id="Layer_1" xmlns="http://www.w3.org/2000/svg" xmlns:xlink="http://www.w3.org/1999/xlink" x="0px"
    y="0px" viewBox="0 0 58.3 95.5" style="enable-background:new 0 0 58.3 95.5;" xml:space="preserve">
    <path d="M40.4,84.5V19.8c0-3.4-1.2-8.3-3.1-12.2C35,2.7,32.1,0,29.2,0s-5.8,2.7-8.1,7.6c-1.9,3.9-3.1,8.8-3.1,12.2v64.8
	c-0.9,0.2-1.7,0.9-2.1,1.8h-0.2v1v5.1v2h0.8c0.5,0.6,1.3,1,2.2,1h21c0.9,0,1.7-0.4,2.2-1h0.8v-2v-5.1v-1h-0.2
	C42.2,85.5,41.4,84.8,40.4,84.5z M17.7,92.5v-5.1c0-0.6,0.4-1,1-1h0.6v7.1h-0.6C18.2,93.5,17.7,93,17.7,92.5z M35.6,93.5v-7.1h1.6
	v7.1H35.6z M21.3,86.4h1.6v7.1h-1.6V86.4z M24.8,86.4h1.6v7.1h-1.6V86.4z M28.4,86.4H30v7.1h-1.6V86.4z M32,86.4h1.6v7.1H32V86.4z
	 M39.1,86.4h0.6c0.6,0,1,0.4,1,1v5.1c0,0.6-0.4,1-1,1h-0.6V86.4z" fill="#ffffff" />
    <path d="M44.8,22.1c0.2,0.4,5.9,10.2,0,20.1l2.6,2.9c4.4-7.6,4.4-18.3,0-25.9L44.8,22.1z" fill="#ffffff" />
    <path d="M54.3,14.7l-2.8,2.7c0.3,0.6,7.7,15,0,29.6l2.8,2.7C63.4,32.3,54.4,14.9,54.3,14.7z" fill="#ffffff" />
    <path d="M12.2,20.6l-1.3-1.4c-4.4,7.6-4.4,18.3,0,25.9l2.6-2.9c-5.8-9.9-0.2-19.7,0-20.1L12.2,20.6z" fill="#ffffff" />
    <path d="M5.4,16l-1.4-1.3C4,14.8-5,32.3,4.1,49.6l2.8-2.7c-7.6-14.5-0.3-28.9,0-29.6L5.4,16z" fill="#ffffff" />
</svg>