<?xml version="1.0" encoding="utf-8"?>
<!-- Generator: Adobe Illustrator 28.4.1, SVG Export Plug-In . SVG Version: 6.00 Build 0)  -->
<svg version="1.1" id="Layer_1" xmlns="http://www.w3.org/2000/svg" xmlns:xlink="http://www.w3.org/1999/xlink" x="0px" y="0px"
	 viewBox="0 0 812.9 892.7" style="enable-background:new 0 0 812.9 892.7;" xml:space="preserve">
<style type="text/css">
	.st0{fill:#FFFFFF;}
</style>
<g transform="translate(0.000000,935.000000) scale(0.100000,-0.100000)">
	<path class="st0" d="M2689.7,9343.1c-88,15.2-159.7,5.7-248.9-31.1c-167.9-69.1-358.7-264.8-512.3-526.6
		c-66.9-113.7-154-323.9-184.1-443.9c-61.5-244.8-67.1-473.8-16.9-699.1c46-208.5,126.7-378,284.2-599.9
		c201.3-282.7,331-561.5,423.5-912c159.5-605.1,132.7-1391.7-75.6-2228.4c-77.6-312-144.7-528.7-302.8-984.3
		c-65.7-189.7-76-226.4-62.3-232c10-4.1,119,189,207.8,367.4c140.8,283.1,346.9,760.6,464.2,1074.8
		c337.7,904.9,553.6,1773.1,640.5,2571.2c19.4,180.5,40.2,551.6,41.1,720.2c0.1,393.9-31.4,732.5-99.4,1047
		c-79.2,370.8-204.7,637.2-364.6,774.6C2829.4,9287.8,2740.9,9334.3,2689.7,9343.1z"/>
	<path class="st0" d="M7695.9,9048.8c-158.9,20.9-263.9,13.9-425.7-25.4c-366.4-89.6-807.8-339-1305.3-737.5
		c-1134.3-908.3-2245.6-2411.3-3129.6-4234.6c-166.4-342.7-233.3-491.6-394.1-879.4c-169-407.4-260.9-655.8-288.3-778.4
		c-24.6-107.2,9-59.7,170.7,239.8c275.6,510.3,419.4,761.3,604.5,1050.1c879.7,1371.7,1857,2199.2,2911.1,2465.7
		c159.3,40.4,249.4,55.7,463.1,80.2c205.6,24.5,410.6,72.3,553.8,130.4c500.8,202.9,879.4,609,1101.6,1182
		c74.9,192.9,111.4,327,144.4,521.9c65.9,396.4,9.5,690.9-164.5,859.7c-34.2,32.8-65.7,52.5-134.5,83.2
		C7753.5,9028.2,7705.5,9047,7695.9,9048.8z"/>
	<path class="st0" d="M6945,5248.6c-515.9,154.2-1369.5-104.1-2186.8-662.3C3922.6,4015,3066.6,3065.2,2426.3,1997
		c-167.9-279.9-322.4-578.5-309.8-600.5c7.9-13.6,42.7,25.3,188.3,209.8c276.1,349.1,382.3,473.3,568.8,666
		c661.9,684.4,1366.7,1065.1,2069.3,1118.6c269.1,21.1,512.9-2.4,821.7-77.2c172.2-42.4,262.1-57.3,377.8-62.3
		c390.8-18.1,720.3,137.8,965.1,456.8c84.9,110.6,131.8,194.9,194.7,346.4c189.5,457,153.1,841.2-99.4,1059
		c-35.7,29.7-172.7,113.7-188.4,115.5C7011.9,5229.2,6981.2,5238.2,6945,5248.6z"/>
	<path class="st0" d="M829.9,6341.3c-196,41.9-376.3-6-525.3-140.2c-103.7-94-197.7-245.7-250.9-407.1
		c-33-99.1-45.5-159.3-51.7-250.7c-23.5-349.2,172.6-569.3,583.8-654.8c248.4-52,481.7-158.6,646.1-297.5
		c299.5-251.3,481.7-642.9,540.3-1158.7c18.7-168,24.1-292.9,22.2-552.6c-0.9-167,7.4-202.7,28.8-130.1
		c69.2,228.2,132.6,747.1,139.5,1132.8c4.4,255.1-17.3,570.3-55.5,812.6c-105.3,668.5-393.5,1223.1-783,1506.4
		C1056.2,6251,896.7,6327,829.9,6341.3z"/>
	<path class="st0" d="M808.3,4056.5c-212.1,72-405.7,14.4-545.3-162.9c-42.7-54.3-65.9-95.2-96.1-168.9
		c-102.9-250.8-104.2-533.8-2.4-680.4c53.2-77,129.1-126.1,225.3-145.6c70.3-13.8,108.1-14.6,249.9-3.1
		c152.8,12.5,260.4,1.9,387.7-38.2c147.9-47.1,284.3-144.3,391.3-279.3c157.5-199.4,262.7-474.4,326-852.9
		c44.9-269.8,49.4-282,58.6-163.3c12,158.2,5.7,397.1-17.2,631.4c-63.9,655.1-244.2,1182.1-519.9,1522.3
		c-92,112.9-211.7,217.5-319.6,278.7C893.1,4024.6,865.6,4037.1,808.3,4056.5z"/>
	<path class="st0" d="M4438.3,2345.8c-233.4,43.1-474.2-37.2-754.3-252.4c-227.1-175.2-553.5-551.4-690.6-796.7
		c-22.2-40-23.4-43.1-8.1-37.6c8.9,3.6,54.6,42,101.1,84.6c156.7,144.4,275.4,224.3,406,272.1c263.4,96.5,480-16.1,655.1-339
		c58.7-109.9,102.1-216.2,165.4-413.5c78.2-244.5,146-368.2,227.6-418.4c121.1-73.9,254,44.8,374.8,336
		c62.8,151.4,85.3,230.4,106.4,370.9c50.7,342.1-5.5,662.1-155.8,885.5c-46.1,68.3-129.2,157.4-185.9,198.1
		C4612.6,2283.5,4504.6,2332.8,4438.3,2345.8z"/>
</g>
</svg>
