<?xml version="1.0" encoding="utf-8"?>
<!-- Generator: Adobe Illustrator 28.4.1, SVG Export Plug-In . SVG Version: 6.00 Build 0)  -->
<svg version="1.1" id="Layer_1" xmlns="http://www.w3.org/2000/svg" xmlns:xlink="http://www.w3.org/1999/xlink" x="0px" y="0px"
	 viewBox="0 0 100 125" style="enable-background:new 0 0 100 125;" xml:space="preserve">
<style type="text/css">
	.st0{fill:#FFFFFF;}
	.st1{enable-background:new    ;}
</style>
<path class="st0" d="M59.5,38c-0.6,0-1.2,0.2-1.7,0.6c0-1.6-1.3-2.9-2.9-2.9c-0.6,0-1.2,0.2-1.7,0.6c0-1.6-1.3-2.9-2.9-2.9
	c-0.6,0-1.2,0.2-1.7,0.6v-5.8c0-1.6-1.3-2.9-2.9-2.9s-2.9,1.3-2.9,2.9l0,0v15.7c-1.6-2.8-3.4-3.6-4.4-3.8c-1.1-0.2-2,0-2.5,0.6
	c-1.5,1.7,0.3,4,0.9,4.8c1.6,2,2.2,3.9,2.9,5.8c0.8,2.4,1.6,4.8,4.3,7.2c2,1.8,4.7,2.8,7.4,2.8c6.8,0,11.2-5.9,11.2-15V41
	C62.4,39.3,61.1,38,59.5,38z M61.2,46.2c0,8.5-3.8,13.8-10,13.8c-2.4,0-4.8-0.9-6.6-2.5c-2.4-2.2-3.2-4.4-4-6.7
	c-0.7-2-1.4-4-3.1-6.1c-1.8-2.3-1.2-3-1-3.3c0.4-0.3,0.9-0.3,1.4-0.2c0.9,0.2,3.1,1.1,4.7,5.7l0,0c0,0.1,0.1,0.2,0.2,0.3
	c0,0,0.1,0,0.1,0.1H43h0.1l0,0c0.1,0,0.1,0,0.2,0l0,0c0,0,0.1,0,0.1-0.1c0,0,0.1,0,0.1-0.1c0,0,0-0.1,0.1-0.1c0,0,0-0.1,0.1-0.1
	c0-0.1,0-0.1,0.1-0.2l0,0V28.2c0-1,0.8-1.7,1.7-1.7c1,0,1.7,0.8,1.7,1.7l0,0v13.9c0,0.3,0.2,0.6,0.6,0.6s0.6-0.2,0.6-0.6l0,0v-5.8
	c0-1,0.8-1.7,1.7-1.7c1,0,1.7,0.8,1.7,1.7v5.8c0,0.3,0.2,0.6,0.6,0.6s0.6-0.2,0.6-0.6l0,0v-3.5c0-1,0.8-1.7,1.7-1.7
	c1,0,1.7,0.8,1.7,1.7l0,0v4.6c0,0.3,0.3,0.6,0.6,0.6s0.6-0.3,0.6-0.6v-2.3c0-1,0.8-1.7,1.8-1.7c0.9,0,1.7,0.8,1.7,1.7L61.2,46.2z"/>
<path class="st0" d="M41.1,32.1c0.3,0,0.6-0.3,0.6-0.6c0-0.1,0-0.2-0.1-0.4c-0.6-0.9-1-1.9-1-3c0-2.8,2.2-5.1,5-5.1s5.1,2.2,5.1,5
	v0.1c0,1.1-0.3,2.1-1,3c-0.2,0.3-0.1,0.6,0.1,0.8c0.3,0.2,0.6,0.1,0.8-0.1l0,0c2-2.8,1.5-6.7-1.3-8.7s-6.7-1.5-8.7,1.3
	c-1.6,2.2-1.6,5.2,0,7.4C40.7,32,40.9,32.1,41.1,32.1z"/>
<path class="st0" d="M36.7,47.6c-2.7-0.6-4.4-3.3-3.8-6c0.5-2.3,2.6-3.9,4.9-3.9c1.1,0,2.1,0.3,2.9,1c0.3,0.2,0.6,0.2,0.8-0.1
	s0.2-0.6-0.1-0.8l0,0c-2.8-2-6.7-1.4-8.7,1.4c-0.8,1.1-1.2,2.3-1.2,3.6c0,2.9,2,5.4,4.9,6.1c0.3,0.1,0.6-0.1,0.7-0.4
	S37,47.7,36.7,47.6L36.7,47.6z"/>
<path class="st0" d="M49.1,21.7c0.3,0.2,0.6,0,0.8-0.2l0,0l1.9-3.5l0.3,0.9c0.1,0.2,0.3,0.4,0.6,0.4c0.1,0,0.1,0,0.2,0
	c0.3-0.1,0.5-0.4,0.4-0.7l-0.7-2.3l0,0c-0.1-0.3-0.4-0.5-0.7-0.4l-2.3,0.7c-0.3,0.1-0.5,0.4-0.4,0.7s0.4,0.5,0.7,0.4l0,0l0.9-0.3
	l-1.9,3.5C48.7,21.2,48.8,21.5,49.1,21.7L49.1,21.7z"/>
<path class="st0" d="M34.3,49.2c-0.3-0.2-0.6,0-0.8,0.2l-1.9,3.5L31.4,52c-0.1-0.3-0.4-0.5-0.7-0.4c-0.3,0.1-0.5,0.4-0.4,0.7
	l0.7,2.3c0,0.1,0.1,0.1,0.1,0.2l0,0l0.1,0.1l0,0l0,0c0.1,0,0.2,0.1,0.2,0.1l0,0l0,0c0.1,0,0.1,0,0.2,0l0,0l2.3-0.7
	c0.3-0.1,0.5-0.4,0.4-0.7s-0.4-0.5-0.7-0.4l0,0l-0.9,0.3l1.9-3.5C34.7,49.7,34.6,49.4,34.3,49.2L34.3,49.2z"/>
<path class="st0" d="M88.3,100c-0.7,0-1.4,0.2-1.9,0.7v-0.1c0-1.7-1.3-3.1-3-3.1c-0.7,0-1.4,0.2-1.9,0.7v-8.7c0-1.7-1.4-3.1-3-3.1
	c-1.1,0-2.2,0.6-2.7,1.6c-1.1-1.3-3.1-1.4-4.3-0.2c-0.6,0.6-1,1.4-1,2.3v16.3c-1.7-3.1-3.6-4-4.8-4.2c-1.1-0.2-2.1,0-2.6,0.6
	c-1.6,1.8,0.4,4.2,1,5c1.7,2.1,2.4,4.2,3.1,6.2c0.9,2.5,1.7,5.1,4.6,7.7c2.2,1.9,5,2.9,7.8,2.9c7.2,0,11.9-6.3,11.9-16V103
	C91.4,101.4,90,100,88.3,100z M90.2,108.7c0,9.1-4.1,14.8-10.7,14.8c-2.6,0-5.1-0.9-7-2.6c-2.6-2.4-3.4-4.7-4.3-7.2
	c-0.7-2.1-1.4-4.2-3.3-6.5c-2-2.5-1.3-3.3-1-3.5c0.5-0.3,1-0.4,1.5-0.2c1,0.2,3.4,1.2,5.1,6.1l0,0c0,0,0,0.1,0.1,0.1
	c0,0,0,0.1,0.1,0.1c0,0,0.1,0,0.1,0.1c0,0,0.1,0,0.1,0.1H71h0.1l0,0h0.1h0.1l0,0c0,0,0.1,0,0.1-0.1c0,0,0.1,0,0.1-0.1
	c0,0,0-0.1,0.1-0.1c0.1-0.1,0.1-0.1,0.1-0.2v-0.1l0,0V90.1c0-1,0.8-1.9,1.9-1.9c1,0,1.9,0.8,1.9,1.9v14.2c0,0.3,0.3,0.6,0.6,0.6
	c0.3,0,0.6-0.3,0.6-0.6V89.5c0-1,0.8-1.9,1.9-1.9s1.9,0.8,1.9,1.9v14.8c0,0.3,0.3,0.6,0.6,0.6c0.3,0,0.6-0.3,0.6-0.6v-3.7
	c0-1,0.8-1.9,1.9-1.9s1.9,0.8,1.9,1.9v5c0,0.3,0.2,0.6,0.6,0.6c0.3,0,0.6-0.2,0.6-0.6l0,0v-2.5c0-1,0.8-1.9,1.9-1.9
	c1,0,1.9,0.8,1.9,1.9l0,0L90.2,108.7z"/>
<path class="st0" d="M68.3,101.7c0.3,0.2,0.6,0.2,0.8-0.1c0.2-0.2,0.2-0.6-0.1-0.8c-4.9-4-5.7-11.2-1.7-16.1S78.5,79,83.4,83
	c4.2,3.4,5.4,9.3,3,14.1c-0.1,0.3,0,0.6,0.3,0.8c0.3,0.1,0.6,0,0.8-0.2c0.9-1.8,1.4-3.7,1.4-5.7c0-7-5.6-12.6-12.6-12.6
	S63.7,85,63.7,92C63.6,95.8,65.4,99.4,68.3,101.7z"/>
<path class="st0" d="M98.1,92.2c0.1-0.2,0-0.5-0.1-0.6l0,0l-1.7-1.7c-0.2-0.2-0.6-0.2-0.8,0c-0.2,0.2-0.2,0.6,0,0.8l0.7,0.7h-5.5
	c-0.3,0-0.6,0.3-0.6,0.6c0,0.3,0.3,0.6,0.6,0.6h5.5l-0.7,0.7c-0.2,0.2-0.2,0.6,0,0.8c0.2,0.2,0.6,0.2,0.8,0l1.7-1.7l0,0
	C98.1,92.3,98.1,92.3,98.1,92.2z"/>
<path class="st0" d="M31.5,100c-0.7,0-1.4,0.2-1.9,0.7v-0.1c0-1.7-1.3-3.1-3-3.1c-0.7,0-1.4,0.2-1.9,0.7v-0.1c0-1.7-1.4-3.1-3.1-3.1
	c-0.7,0-1.3,0.2-1.9,0.7v-6.3c0-1.7-1.4-3.1-3.1-3.1s-3.1,1.4-3.1,3.1l0,0v16.9c-1.7-3.1-3.6-4-4.8-4.2c-1.1-0.2-2.1,0-2.6,0.6
	c-1.6,1.8,0.4,4.2,1,5c1.7,2.1,2.4,4.2,3.1,6.2c0.9,2.5,1.7,5.1,4.6,7.7c2.2,1.9,5,2.9,7.8,2.9c7.2,0,11.9-6.3,11.9-16v-5.6
	C34.5,101.4,33.1,100,31.5,100z M33.3,108.8c0,9.1-4.1,14.8-10.7,14.8c-2.6,0-5.1-0.9-7-2.6c-2.6-2.4-3.4-4.7-4.3-7.2
	c-0.7-2.1-1.4-4.2-3.3-6.5c-2-2.5-1.3-3.3-1-3.5c0.5-0.3,1-0.4,1.5-0.2c1,0.2,3.4,1.2,5.1,6.1l0,0c0,0,0,0.1,0.1,0.1
	c0,0,0,0.1,0.1,0.1c0,0,0.1,0,0.1,0.1c0,0,0.1,0,0.1,0.1h0.1h0.1l0,0h0.1h0.1l0,0c0,0,0.1,0,0.1-0.1c0,0,0.1,0,0.1-0.1
	c0,0,0-0.1,0.1-0.1c0,0,0-0.1,0.1-0.1v-0.1v-0.1l0,0v-20c0-1,0.8-1.9,1.9-1.9s1.9,0.8,1.9,1.9v14.8c0,0.3,0.3,0.6,0.6,0.6
	c0.3,0,0.6-0.3,0.6-0.6v-6.2c0-1,0.8-1.9,1.9-1.9s1.9,0.8,1.9,1.9v6.2c0,0.3,0.3,0.6,0.6,0.6c0.3,0,0.6-0.3,0.6-0.6v-3.7
	c0-1,0.8-1.9,1.9-1.9c1,0,1.9,0.8,1.9,1.9v5c0,0.3,0.2,0.6,0.6,0.6c0.3,0,0.6-0.2,0.6-0.6l0,0v-2.5c0-1,0.8-1.9,1.9-1.9
	s1.9,0.8,1.9,1.9l0,0L33.3,108.8z"/>
<path class="st0" d="M11.5,98.2c0.3,0.2,0.6,0.1,0.8-0.2c0.2-0.3,0.1-0.6-0.2-0.8l0,0c-4.3-2.5-5.7-8-3.2-12.3s8-5.7,12.3-3.2
	s5.7,8,3.2,12.3c0,0.1-0.1,0.1-0.1,0.2c-0.2,0.3-0.1,0.6,0.2,0.8c0.3,0.2,0.6,0.1,0.8-0.2l0,0c2.9-4.8,1.5-11-3.3-13.9
	s-11-1.5-13.9,3.3S6.6,95.2,11.5,98.2C11.3,98.1,11.4,98.2,11.5,98.2z"/>
<path class="st0" d="M36.1,89.5L36.1,89.5L36.1,89.5c0-0.1,0-0.2,0-0.2c0-0.1-0.1-0.1-0.1-0.2l-1.7-1.7c-0.2-0.2-0.6-0.3-0.8,0
	c-0.2,0.2-0.3,0.6,0,0.8l0,0l0.7,0.7h-5.6c-0.3,0-0.6,0.3-0.6,0.6c0,0.3,0.3,0.6,0.6,0.6h5.6l-0.7,0.7c-0.2,0.2-0.2,0.6,0,0.8
	c0.2,0.2,0.6,0.2,0.8,0l0,0l1.7-1.7l0,0c0-0.1,0.1-0.1,0.1-0.2C36.1,89.7,36.1,89.6,36.1,89.5z"/>
<g class="st1">
	<path class="st0" d="M39.3,2.7c-0.2,0.2-0.4,0.5-0.6,0.8s-0.5,0.6-0.8,1c-0.3,0.4-0.6,0.7-0.8,1.1c-0.3,0.4-0.6,0.8-0.8,1.2
		C36,7.2,35.7,7.6,35.5,8c-0.2,0.4-0.5,0.8-0.7,1.1h4.7v1h-6V9.3C33.6,9,33.8,8.7,34,8.3s0.5-0.8,0.7-1.2c0.3-0.4,0.5-0.8,0.8-1.2
		c0.3-0.4,0.6-0.8,0.8-1.2c0.3-0.4,0.5-0.7,0.8-1.1s0.5-0.6,0.7-0.9h-4.3v-1h5.7V2.7z"/>
	<path class="st0" d="M40.2,5.9c0-0.7,0.1-1.3,0.3-1.9s0.5-1,0.9-1.4c0.4-0.4,0.8-0.6,1.3-0.8c0.5-0.2,1-0.3,1.5-0.3
		c0.5,0,1,0.1,1.5,0.3c0.5,0.2,0.9,0.5,1.3,0.8s0.6,0.8,0.9,1.4s0.3,1.2,0.3,1.9S48,7.3,47.8,7.8s-0.5,1-0.9,1.4s-0.8,0.6-1.3,0.8
		c-0.5,0.2-1,0.3-1.5,0.3c-0.5,0-1.1-0.1-1.5-0.3c-0.5-0.2-0.9-0.5-1.3-0.8c-0.4-0.4-0.7-0.8-0.9-1.4S40.2,6.7,40.2,5.9z M41.4,5.9
		c0,0.5,0.1,1,0.2,1.4s0.3,0.8,0.5,1C42.4,8.7,42.7,8.9,43,9s0.7,0.2,1.1,0.2c0.4,0,0.8-0.1,1.1-0.2s0.6-0.4,0.9-0.7
		c0.2-0.3,0.4-0.6,0.5-1s0.2-0.9,0.2-1.4s-0.1-1-0.2-1.4s-0.3-0.8-0.5-1c-0.2-0.3-0.5-0.5-0.9-0.7s-0.7-0.2-1.1-0.2
		c-0.4,0-0.8,0.1-1.1,0.2s-0.6,0.4-0.9,0.7c-0.2,0.3-0.4,0.6-0.5,1S41.4,5.4,41.4,5.9z"/>
	<path class="st0" d="M49.5,5.9c0-0.7,0.1-1.3,0.3-1.9c0.2-0.5,0.5-1,0.9-1.4s0.8-0.6,1.3-0.8c0.5-0.2,1-0.3,1.5-0.3
		c0.5,0,1,0.1,1.5,0.3c0.5,0.2,0.9,0.5,1.3,0.8c0.4,0.4,0.6,0.8,0.9,1.4s0.3,1.2,0.3,1.9s-0.1,1.3-0.3,1.9s-0.5,1-0.9,1.4
		C55.9,9.5,55.5,9.8,55,10c-0.5,0.2-1,0.3-1.5,0.3c-0.5,0-1.1-0.1-1.5-0.3c-0.5-0.2-0.9-0.5-1.3-0.8S50,8.4,49.8,7.8
		C49.6,7.3,49.5,6.7,49.5,5.9z M50.7,5.9c0,0.5,0.1,1,0.2,1.4s0.3,0.8,0.5,1S52,8.9,52.3,9c0.3,0.2,0.7,0.2,1.1,0.2s0.8-0.1,1.1-0.2
		s0.6-0.4,0.9-0.7c0.2-0.3,0.4-0.6,0.5-1s0.2-0.9,0.2-1.4S56.2,5,56,4.6s-0.3-0.8-0.5-1C55.2,3.2,55,3,54.6,2.8s-0.7-0.2-1.1-0.2
		s-0.8,0.1-1.1,0.2C52,3,51.7,3.2,51.5,3.5s-0.4,0.6-0.5,1S50.7,5.4,50.7,5.9z"/>
	<path class="st0" d="M62.9,9c-0.1-0.2-0.2-0.4-0.3-0.7s-0.3-0.6-0.4-1c-0.2-0.3-0.3-0.7-0.5-1.1c-0.2-0.4-0.3-0.7-0.5-1
		c-0.2-0.3-0.3-0.6-0.4-0.9s-0.2-0.5-0.3-0.6c-0.1,0.9-0.2,2-0.2,3.1c-0.1,1.1-0.1,2.2-0.1,3.3H59c0-0.7,0.1-1.4,0.1-2.2
		c0-0.7,0.1-1.5,0.1-2.2c0.1-0.7,0.1-1.4,0.2-2.1c0.1-0.7,0.1-1.3,0.2-1.9h1C60.8,2.1,61,2.6,61.3,3c0.2,0.5,0.5,1,0.7,1.5
		c0.2,0.5,0.5,1,0.7,1.6c0.2,0.5,0.4,1,0.6,1.4c0.2-0.4,0.4-0.9,0.6-1.4c0.2-0.5,0.5-1,0.7-1.6C65,4,65.2,3.5,65.5,3
		c0.2-0.5,0.5-0.9,0.7-1.2h1c0.3,2.7,0.5,5.5,0.6,8.3h-1.1c0-1.1-0.1-2.2-0.1-3.3c-0.1-1.1-0.1-2.1-0.2-3.1C66.2,3.8,66.1,4,66,4.3
		c-0.1,0.3-0.3,0.5-0.4,0.9c-0.2,0.3-0.3,0.7-0.5,1c-0.2,0.4-0.3,0.7-0.5,1.1c-0.2,0.3-0.3,0.7-0.4,1S63.9,8.8,63.9,9H62.9z"/>
</g>
<g class="st1">
	<path class="st0" d="M11.1,72.6c1.2,0,1.8-0.4,1.8-1.2c0-0.3-0.1-0.5-0.2-0.7c-0.1-0.2-0.3-0.3-0.4-0.5s-0.4-0.2-0.6-0.3
		c-0.2-0.1-0.5-0.2-0.8-0.3c-0.3-0.1-0.6-0.2-0.9-0.4c-0.3-0.1-0.5-0.3-0.7-0.5c-0.2-0.2-0.4-0.4-0.5-0.6c-0.1-0.2-0.2-0.5-0.2-0.9
		c0-0.7,0.2-1.3,0.7-1.7c0.5-0.4,1.2-0.6,2.1-0.6c0.5,0,1,0.1,1.4,0.2c0.4,0.1,0.7,0.2,0.9,0.4l-0.4,0.9c-0.2-0.1-0.4-0.2-0.8-0.3
		c-0.3-0.1-0.7-0.2-1.2-0.2c-0.2,0-0.4,0-0.6,0.1c-0.2,0-0.4,0.1-0.5,0.2s-0.3,0.2-0.3,0.4c-0.1,0.1-0.1,0.3-0.1,0.5
		c0,0.2,0,0.4,0.1,0.6c0.1,0.2,0.2,0.3,0.4,0.4c0.2,0.1,0.3,0.2,0.6,0.3c0.2,0.1,0.4,0.2,0.7,0.3c0.4,0.1,0.7,0.3,1,0.4
		c0.3,0.1,0.6,0.3,0.8,0.5c0.2,0.2,0.4,0.4,0.5,0.7c0.1,0.3,0.2,0.6,0.2,1c0,0.7-0.3,1.3-0.8,1.7c-0.5,0.4-1.3,0.6-2.2,0.6
		c-0.3,0-0.6,0-0.9-0.1s-0.5-0.1-0.7-0.2c-0.2-0.1-0.4-0.1-0.6-0.2c-0.2-0.1-0.3-0.1-0.4-0.2l0.3-1c0.2,0.1,0.5,0.2,0.8,0.3
		S10.5,72.6,11.1,72.6z"/>
	<path class="st0" d="M17.7,65c1.2,0,2.1,0.2,2.7,0.7c0.6,0.4,0.9,1.1,0.9,2c0,0.5-0.1,0.9-0.3,1.2c-0.2,0.3-0.4,0.6-0.7,0.8
		c-0.3,0.2-0.7,0.4-1.2,0.5c-0.5,0.1-1,0.1-1.6,0.1h-0.9v3.1h-1.2v-8.2c0.3-0.1,0.7-0.1,1.1-0.2C17,65.1,17.4,65,17.7,65z
		 M17.8,66.1c-0.5,0-0.9,0-1.1,0v3.3h0.9c0.4,0,0.8,0,1.1-0.1c0.3-0.1,0.6-0.1,0.8-0.3s0.4-0.3,0.5-0.5c0.1-0.2,0.2-0.5,0.2-0.8
		c0-0.3-0.1-0.6-0.2-0.8s-0.3-0.4-0.5-0.5s-0.5-0.2-0.7-0.3C18.4,66.1,18.1,66.1,17.8,66.1z"/>
	<path class="st0" d="M22.8,65.1H24v8.3h-1.2V65.1z"/>
	<path class="st0" d="M31.7,73.4c-0.2-0.3-0.4-0.6-0.6-1s-0.5-0.8-0.7-1.1c-0.3-0.4-0.5-0.8-0.8-1.2c-0.3-0.4-0.6-0.8-0.8-1.2
		c-0.3-0.4-0.6-0.7-0.8-1.1c-0.3-0.3-0.5-0.6-0.7-0.9v6.5H26v-8.3H27c0.4,0.4,0.8,0.9,1.2,1.4c0.4,0.5,0.9,1.1,1.3,1.6
		c0.4,0.6,0.8,1.1,1.2,1.7s0.7,1,0.9,1.5v-6.2h1.1v8.3H31.7z"/>
</g>
<g class="st1">
	<path class="st0" d="M66,72.5c-0.1-0.2-0.2-0.4-0.3-0.7s-0.3-0.6-0.4-1c-0.2-0.3-0.3-0.7-0.5-1.1c-0.2-0.4-0.3-0.7-0.5-1
		c-0.2-0.3-0.3-0.6-0.4-0.9s-0.2-0.5-0.3-0.6c-0.1,0.9-0.2,2-0.2,3.1c-0.1,1.1-0.1,2.2-0.1,3.3H62c0-0.7,0.1-1.4,0.1-2.2
		c0-0.7,0.1-1.5,0.1-2.2c0.1-0.7,0.1-1.4,0.2-2.1c0.1-0.7,0.1-1.3,0.2-1.9h1c0.2,0.4,0.4,0.8,0.7,1.2c0.2,0.5,0.5,1,0.7,1.5
		c0.2,0.5,0.5,1,0.7,1.6c0.2,0.5,0.4,1,0.6,1.4c0.2-0.4,0.4-0.9,0.6-1.4c0.2-0.5,0.5-1,0.7-1.6c0.2-0.5,0.5-1,0.7-1.5
		c0.2-0.5,0.5-0.9,0.7-1.2h1c0.3,2.7,0.5,5.5,0.6,8.3h-1.1c0-1.1-0.1-2.2-0.1-3.3c-0.1-1.1-0.1-2.1-0.2-3.1
		c-0.1,0.1-0.2,0.3-0.3,0.6c-0.1,0.3-0.3,0.5-0.4,0.9c-0.2,0.3-0.3,0.7-0.5,1c-0.2,0.4-0.3,0.7-0.5,1.1c-0.2,0.3-0.3,0.7-0.4,1
		s-0.2,0.5-0.3,0.7H66z"/>
	<path class="st0" d="M72.4,69.5c0-0.7,0.1-1.3,0.3-1.9s0.5-1,0.9-1.4c0.4-0.4,0.8-0.6,1.3-0.8c0.5-0.2,1-0.3,1.5-0.3
		c0.5,0,1,0.1,1.5,0.3c0.5,0.2,0.9,0.5,1.3,0.8s0.6,0.8,0.9,1.4s0.3,1.2,0.3,1.9s-0.1,1.3-0.3,1.9s-0.5,1-0.9,1.4s-0.8,0.6-1.3,0.8
		c-0.5,0.2-1,0.3-1.5,0.3c-0.5,0-1.1-0.1-1.5-0.3c-0.5-0.2-0.9-0.5-1.3-0.8c-0.4-0.4-0.7-0.8-0.9-1.4S72.4,70.2,72.4,69.5z
		 M73.6,69.5c0,0.5,0.1,1,0.2,1.4s0.3,0.8,0.5,1c0.2,0.3,0.5,0.5,0.9,0.7s0.7,0.2,1.1,0.2c0.4,0,0.8-0.1,1.1-0.2s0.6-0.4,0.9-0.7
		c0.2-0.3,0.4-0.6,0.5-1s0.2-0.9,0.2-1.4s-0.1-1-0.2-1.4s-0.3-0.8-0.5-1c-0.2-0.3-0.5-0.5-0.9-0.7s-0.7-0.2-1.1-0.2
		c-0.4,0-0.8,0.1-1.1,0.2s-0.6,0.4-0.9,0.7c-0.2,0.3-0.4,0.6-0.5,1S73.6,69,73.6,69.5z"/>
	<path class="st0" d="M88.6,65.3c-0.3,0.9-0.6,1.7-0.9,2.4c-0.3,0.7-0.5,1.5-0.8,2.1s-0.5,1.3-0.8,1.9c-0.3,0.6-0.5,1.2-0.8,1.8
		h-1.1c-0.3-0.6-0.5-1.2-0.8-1.8c-0.3-0.6-0.5-1.3-0.8-1.9c-0.3-0.7-0.5-1.4-0.8-2.1s-0.6-1.6-0.9-2.4h1.3c0.4,1.3,0.9,2.5,1.3,3.6
		s0.8,2.3,1.3,3.3c0.4-1,0.9-2.1,1.3-3.3s0.8-2.4,1.3-3.7H88.6z"/>
	<path class="st0" d="M89.7,73.6v-8.3h5.1v1h-3.9v2.5h3.5v1h-3.5v2.9h4.2v1H89.7z"/>
</g>
</svg>
