<svg xmlns="http://www.w3.org/2000/svg" viewBox="0 0 100 125" x="0px" y="0px"><path d="M77.631,48.932a6.028,6.028,0,0,0-3.621,1.223,6.093,6.093,0,0,0-6.084-6.076A6.029,6.029,0,0,0,64.3,45.3a6.093,6.093,0,0,0-6.085-6.076A6.029,6.029,0,0,0,54.6,40.447V28.327a6.086,6.086,0,1,0-12.172,0v32.9c-3.251-5.885-7.055-7.559-9.315-8-2.2-.426-4.268.052-5.269,1.217-3.109,3.617.723,8.413,1.982,9.99,3.323,4.162,4.7,8.193,6.024,12.092,1.681,4.938,3.42,10.045,9.027,15.177A23.4,23.4,0,0,0,60.3,97.5c14.228,0,23.42-12.325,23.42-31.4V55.018A6.092,6.092,0,0,0,77.631,48.932ZM81.25,66.1c0,17.847-8.029,28.934-20.954,28.934A20.918,20.918,0,0,1,46.523,89.87c-5.122-4.688-6.684-9.277-8.337-14.135-1.4-4.1-2.839-8.336-6.433-12.836-3.815-4.776-2.477-6.331-2.039-6.842a3.519,3.519,0,0,1,2.929-.4c1.872.363,6.58,2.249,9.85,11.891,0,.016.018.026.023.041a.979.979,0,0,0,.431.542,1.226,1.226,0,0,0,.2.138,1.277,1.277,0,0,0,.2.054,1.151,1.151,0,0,0,.267.054c.015,0,.028.009.043.009a2.612,2.612,0,0,1,.4-.065c.015,0,.025-.017.04-.023a1.193,1.193,0,0,0,.221-.129,1.218,1.218,0,0,0,.187-.125,1.237,1.237,0,0,0,.134-.178,1.161,1.161,0,0,0,.138-.2,3.52,3.52,0,0,0,.108-.467c0-.015.009-.028.009-.043V28.327a3.619,3.619,0,1,1,7.238,0V57.444a1.234,1.234,0,1,0,2.467,0V45.312a3.619,3.619,0,0,1,7.238,0V57.444a1.234,1.234,0,1,0,2.467,0V50.166a3.62,3.62,0,1,1,7.24,0v9.739a1.233,1.233,0,1,0,2.466,0V55.018a3.62,3.62,0,0,1,7.239,0Z"/><path d="M39.041,36.541a1.233,1.233,0,0,0,.991-1.967,10.441,10.441,0,0,1-2.069-6.247,10.551,10.551,0,1,1,21.1,0A10.45,10.45,0,0,1,57,34.574a1.234,1.234,0,1,0,1.985,1.466,13.018,13.018,0,1,0-20.934,0A1.234,1.234,0,0,0,39.041,36.541Z"/><path d="M29.871,69.009a10.549,10.549,0,0,1,2.293-20.846,10.47,10.47,0,0,1,6.154,1.994,1.234,1.234,0,1,0,1.443-2A13.005,13.005,0,0,0,19.146,58.715a13.093,13.093,0,0,0,10.189,12.7,1.233,1.233,0,1,0,.536-2.408Z"/><path d="M55.85,14.692a1.23,1.23,0,0,0,1.67-.5l3.9-7.249.563,1.875a1.235,1.235,0,0,0,1.182.879,1.256,1.256,0,0,0,.355-.052,1.235,1.235,0,0,0,.827-1.537L62.927,3.38c0-.01-.011-.017-.014-.026a1.226,1.226,0,0,0-1.525-.8l-4.725,1.42a1.234,1.234,0,1,0,.711,2.363l1.874-.563-3.9,7.248A1.232,1.232,0,0,0,55.85,14.692Z"/><path d="M24.835,72.338a1.235,1.235,0,0,0-1.671.5l-3.9,7.25L18.7,78.216a1.234,1.234,0,0,0-2.364.711l1.42,4.726a1.239,1.239,0,0,0,.206.391c.025.032.057.055.085.085a1.193,1.193,0,0,0,.254.211c.02.012.032.033.053.044s.043.006.063.016a1.232,1.232,0,0,0,.517.131h0l.014,0a1.236,1.236,0,0,0,.326-.048l.016,0,4.726-1.42a1.234,1.234,0,1,0-.711-2.363l-1.874.563,3.9-7.25A1.233,1.233,0,0,0,24.835,72.338Z"/><text x="0" y="115" fill="#000000" font-size="5px" font-weight="bold" font-family="'Helvetica Neue', Helvetica, Arial-Unicode, Arial, Sans-serif">Created by Robert Birckhead</text><text x="0" y="120" fill="#000000" font-size="5px" font-weight="bold" font-family="'Helvetica Neue', Helvetica, Arial-Unicode, Arial, Sans-serif">from the Noun Project</text></svg>