<svg xmlns="http://www.w3.org/2000/svg" viewBox="0 0 100 125" x="0px" y="0px"><path d="M72.27,45.806a6.353,6.353,0,0,0-3.949,1.4v-.164a6.38,6.38,0,0,0-10.364-5.018v-.164a6.422,6.422,0,0,0-6.416-6.415,6.351,6.351,0,0,0-3.947,1.4V23.721a6.415,6.415,0,1,0-12.83,0v35.45c-3.489-6.488-7.614-8.3-10.047-8.776-2.321-.45-4.5.05-5.547,1.272-3.274,3.809.783,8.891,2.117,10.561,3.559,4.456,5.028,8.767,6.446,12.937,1.793,5.264,3.647,10.707,9.617,16.171A24.907,24.907,0,0,0,53.76,97.5c15.142,0,24.925-13.128,24.925-33.447V52.221A6.423,6.423,0,0,0,72.27,45.806Zm3.948,18.247c0,19.109-8.605,30.98-22.458,30.98A22.418,22.418,0,0,1,39,89.5c-5.485-5.019-7.157-9.929-8.927-15.127-1.488-4.37-3.025-8.889-6.854-13.681-4.116-5.155-2.655-6.855-2.175-7.413a3.833,3.833,0,0,1,3.207-.458c2.014.39,7.075,2.415,10.582,12.753.005.016.017.026.023.041a1.213,1.213,0,0,0,.13.223,1.244,1.244,0,0,0,.123.183,1.153,1.153,0,0,0,.185.14,1.208,1.208,0,0,0,.2.133,1.192,1.192,0,0,0,.207.056,1.209,1.209,0,0,0,.261.053c.015,0,.028.009.043.009a1.119,1.119,0,0,0,.193-.039,1.163,1.163,0,0,0,.2-.026c.016,0,.025-.018.04-.023a1.26,1.26,0,0,0,.222-.129,1.146,1.146,0,0,0,.186-.126,1.118,1.118,0,0,0,.135-.177,1.218,1.218,0,0,0,.138-.2,1.265,1.265,0,0,0,.054-.2,1.167,1.167,0,0,0,.054-.269c0-.014.009-.027.009-.042V23.721a3.948,3.948,0,1,1,7.9,0V54.812a1.234,1.234,0,0,0,2.467,0V41.857a3.948,3.948,0,1,1,7.9,0V54.812a1.234,1.234,0,0,0,2.467,0V47.039a3.949,3.949,0,0,1,7.9,0v10.4a1.234,1.234,0,1,0,2.467,0V52.221a3.949,3.949,0,0,1,7.9,0Z"/><path d="M30.435,41.99a1.233,1.233,0,1,0,1.253-2.125,18.77,18.77,0,1,1,25.418-6.3,1.234,1.234,0,0,0,2.1,1.3A21.212,21.212,0,1,0,30.435,41.99Z"/><path d="M82.077,23.721h0v0a1.247,1.247,0,0,0-.095-.469,1.23,1.23,0,0,0-.267-.4l-3.489-3.49A1.233,1.233,0,1,0,76.482,21.1l1.384,1.385H66.1a1.234,1.234,0,0,0,0,2.467H77.866l-1.384,1.383a1.234,1.234,0,1,0,1.744,1.746l3.49-3.49c.008-.009.011-.021.019-.03a1.218,1.218,0,0,0,.247-.37A1.247,1.247,0,0,0,82.077,23.721Z"/><text x="0" y="115" fill="#000000" font-size="5px" font-weight="bold" font-family="'Helvetica Neue', Helvetica, Arial-Unicode, Arial, Sans-serif">Created by Robert Birckhead</text><text x="0" y="120" fill="#000000" font-size="5px" font-weight="bold" font-family="'Helvetica Neue', Helvetica, Arial-Unicode, Arial, Sans-serif">from the Noun Project</text></svg>