<svg xmlns="http://www.w3.org/2000/svg" viewBox="0 0 100 125" x="0px" y="0px"><path d="M66.873,45.806a6.353,6.353,0,0,0-3.949,1.4v-.164A6.38,6.38,0,0,0,52.56,42.021v-18.3a6.393,6.393,0,0,0-12.047-3.007,6.393,6.393,0,0,0-11.148,4.3V59.17c-3.488-6.487-7.612-8.3-10.045-8.775-2.319-.45-4.5.05-5.547,1.272-3.274,3.809.783,8.891,2.118,10.561,3.558,4.456,5.027,8.767,6.446,12.937,1.792,5.264,3.646,10.707,9.616,16.171A24.907,24.907,0,0,0,48.363,97.5c15.14,0,24.924-13.128,24.924-33.447V52.221A6.422,6.422,0,0,0,66.873,45.806ZM70.82,64.053c0,19.109-8.606,30.98-22.457,30.98A22.418,22.418,0,0,1,33.6,89.5c-5.485-5.019-7.157-9.929-8.927-15.127-1.488-4.37-3.025-8.889-6.854-13.681-4.116-5.155-2.655-6.855-2.174-7.413a3.844,3.844,0,0,1,3.206-.458c2.014.39,7.074,2.415,10.58,12.753,0,.016.018.026.023.041a1.218,1.218,0,0,0,.131.223,1.17,1.17,0,0,0,.123.183,1.191,1.191,0,0,0,.184.14,1.174,1.174,0,0,0,.2.133,1.157,1.157,0,0,0,.206.056,1.221,1.221,0,0,0,.261.053c.016,0,.028.009.044.009a1.158,1.158,0,0,0,.193-.039,1.175,1.175,0,0,0,.2-.026c.015,0,.025-.018.04-.023a1.216,1.216,0,0,0,.221-.129,1.155,1.155,0,0,0,.187-.126,1.252,1.252,0,0,0,.135-.177.7.7,0,0,0,.191-.4,1.224,1.224,0,0,0,.055-.269c0-.014.008-.027.008-.042V25.01a3.949,3.949,0,0,1,7.9,0v29.8a1.234,1.234,0,0,0,2.467,0V23.721a3.948,3.948,0,1,1,7.9,0V54.812a1.234,1.234,0,0,0,2.467,0V47.039a3.949,3.949,0,0,1,7.9,0v10.4a1.234,1.234,0,1,0,2.467,0V52.221a3.948,3.948,0,1,1,7.9,0Z"/><path d="M24.885,49.385a1.234,1.234,0,0,0,1.557-1.914,23.954,23.954,0,1,1,36.439-7.784,1.234,1.234,0,0,0,2.2,1.115,26.1,26.1,0,0,0,2.854-11.9A26.4,26.4,0,1,0,24.885,49.385Z"/><path d="M87.38,29.374a1.21,1.21,0,0,0-.246-1.315c-.009-.009-.011-.021-.02-.03L83.625,24.54a1.234,1.234,0,0,0-1.744,1.745l1.383,1.384H71.639a1.234,1.234,0,0,0,0,2.467H83.264l-1.383,1.383a1.234,1.234,0,0,0,1.744,1.746l3.489-3.49c.009-.009.011-.021.02-.03A1.225,1.225,0,0,0,87.38,29.374Z"/><text x="0" y="115" fill="#000000" font-size="5px" font-weight="bold" font-family="'Helvetica Neue', Helvetica, Arial-Unicode, Arial, Sans-serif">Created by Robert Birckhead</text><text x="0" y="120" fill="#000000" font-size="5px" font-weight="bold" font-family="'Helvetica Neue', Helvetica, Arial-Unicode, Arial, Sans-serif">from the Noun Project</text></svg>