<?xml version="1.0" encoding="UTF-8"?>
<svg id="Layer_1" data-name="Layer 1" xmlns="http://www.w3.org/2000/svg" viewBox="0 0 733.33 733.42">
  <defs>
    <style>
      .cls-1 {
        fill: #ffffff;
        stroke-width: 0px;
      }
    </style>
  </defs>
  <path class="cls-1"
    d="M566.67,133.42h33.33v33.33c0,18.41,14.92,33.33,33.33,33.33s33.33-14.92,33.33-33.33v-33.33h33.33c18.41,0,33.33-14.92,33.33-33.33s-14.92-33.33-33.33-33.33h-33.33v-33.33c0-18.41-14.92-33.33-33.33-33.33s-33.33,14.92-33.33,33.33v33.33h-33.33c-18.41,0-33.33,14.92-33.33,33.33s14.92,33.33,33.33,33.33ZM200,200.09v333.33c0,18.41,14.92,33.33,33.33,33.33s33.33-14.92,33.33-33.33V200.09c0-18.41-14.92-33.33-33.33-33.33s-33.33,14.92-33.33,33.33ZM686.67,266.76c-18.04,3.68-29.68,21.28-26,39.32,0,0,0,0,0,.01,33.41,162.28-71.05,320.92-233.33,354.34-162.28,33.41-320.92-71.05-354.34-233.33C39.58,264.81,144.05,106.17,306.33,72.76c39.92-8.22,81.09-8.22,121,0,18.41,3.68,36.32-8.26,40-26.67s-8.26-36.32-26.67-40C416.27,1.55,391.47-.47,366.67.09,164.16.09,0,164.25,0,366.76s164.16,366.67,366.67,366.67,366.67-164.16,366.67-366.67c.07-24.63-2.39-49.2-7.33-73.33-3.32-18.11-20.7-30.09-38.8-26.77-.18.03-.35.07-.53.1ZM333.33,266.76v33.33c.15,24.67,9.41,48.41,26,66.67-16.59,18.25-25.85,42-26,66.67v33.33c0,55.23,44.77,100,100,100h33.33c55.23,0,100-44.77,100-100v-33.33c-.15-24.67-9.41-48.41-26-66.67,16.59-18.25,25.85-42,26-66.67v-33.33c0-55.23-44.77-100-100-100h-33.33c-55.23,0-100,44.77-100,100ZM500,466.76c0,18.41-14.92,33.33-33.33,33.33h-33.33c-18.41,0-33.33-14.92-33.33-33.33v-33.33c0-18.41,14.92-33.33,33.33-33.33h33.33c18.41,0,33.33,14.92,33.33,33.33v33.33ZM500,266.76v33.33c0,18.41-14.92,33.33-33.33,33.33h-33.33c-18.41,0-33.33-14.92-33.33-33.33v-33.33c0-18.41,14.92-33.33,33.33-33.33h33.33c18.41,0,33.33,14.92,33.33,33.33Z" />
  <rect class="cls-1" x="32.67" y="337.71" width="668" height="58" transform="translate(410.2 -150.03) rotate(49.81)" />
</svg>