<svg width="20" height="20" viewBox="0 0 20 20" fill="none" xmlns="http://www.w3.org/2000/svg">
<path d="M1.66675 8.3333V11.6666C1.66675 13.3333 2.50008 14.1666 4.16675 14.1666H5.35841C5.66675 14.1666 5.97508 14.2583 6.24175 14.4166L8.67508 15.9416C10.7751 17.2583 12.5001 16.3 12.5001 13.825V6.17499C12.5001 3.69165 10.7751 2.74165 8.67508 4.05832L6.24175 5.58332C5.97508 5.74165 5.66675 5.83332 5.35841 5.83332H4.16675C2.50008 5.83332 1.66675 6.66665 1.66675 8.3333Z" stroke="white" stroke-width="1.5"/>
<path d="M15 6.66675C16.4833 8.64175 16.4833 11.3584 15 13.3334" stroke="white" stroke-width="1.5" stroke-linecap="round" stroke-linejoin="round"/>
<path d="M16.5249 4.58325C18.9332 7.79159 18.9332 12.2083 16.5249 15.4166" stroke="white" stroke-width="1.5" stroke-linecap="round" stroke-linejoin="round"/>
</svg>
