<?xml version="1.0" encoding="utf-8"?>
<!-- Generator: Adobe Illustrator 28.4.1, SVG Export Plug-In . SVG Version: 6.00 Build 0)  -->
<svg version="1.1" id="Layer_1" xmlns="http://www.w3.org/2000/svg" xmlns:xlink="http://www.w3.org/1999/xlink" x="0px" y="0px"
	 viewBox="0 0 800 800" style="enable-background:new 0 0 800 800;" xml:space="preserve">
<style type="text/css">
	.st0{fill:#FFFFFF;}
</style>
<path class="st0" d="M338.3,676.6c58.1,0.1,115.2-15,165.8-43.6l140.3,140.3c35.6,35.6,93.3,35.6,128.9,0
	c35.6-35.6,35.6-93.3,0-128.9L633,504.1c91.7-162.7,34-369-128.7-460.6C372.1-31,206.4-8.2,99.1,99.2C-33,231.2-33,445.4,99.1,577.5
	C162.5,641,248.6,676.6,338.3,676.6z M158.6,158.7c99.2-99.2,260.1-99.1,359.3,0.1s99.1,260-0.1,359.2
	c-99.2,99.2-260.1,99.1-359.3-0.1c-47.6-47.6-74.4-112.2-74.4-179.6C84,270.9,110.8,206.2,158.6,158.7z M169.9,338.3
	c0-23.3,18.9-42.1,42.1-42.1h84.2V212c0-23.3,18.9-42.1,42.1-42.1c23.3,0,42.1,18.9,42.1,42.1v84.2h84.2c23.3,0,42.1,18.9,42.1,42.1
	s-18.9,42.1-42.1,42.1h-84.2v84.2c0,23.3-18.9,42.1-42.1,42.1c-23.3,0-42.1-18.9-42.1-42.1v-84.2H212
	C188.7,380.4,169.9,361.6,169.9,338.3L169.9,338.3z"/>
</svg>
