<?xml version="1.0" encoding="utf-8"?>
<!-- Generator: Adobe Illustrator 28.4.1, SVG Export Plug-In . SVG Version: 6.00 Build 0)  -->
<svg version="1.1" id="Layer_1" xmlns="http://www.w3.org/2000/svg" xmlns:xlink="http://www.w3.org/1999/xlink" x="0px"
	y="0px" viewBox="0 0 155.9 149.3" style="enable-background:new 0 0 155.9 149.3;" xml:space="preserve"
	fill="#ffffff">
	<g>
		<ellipse cx="100.4" cy="22.5" rx="22.5" ry="22.5" />
		<path d="M123.1,126c1.7-5.5,3-11.1,4-16.6c3.4,3.4,7,7.5,10.7,12.7c2,2.7,5,4.2,8.1,4.2c2,0,4.1-0.6,5.8-1.9
		c4.5-3.2,5.5-9.5,2.3-14c-8.4-11.7-16.8-19.9-25.3-25.4c-0.2-7-1.1-13.9-2.5-20.7c-3.1-14.3-14.9-20-23.4-14.9
		C96.4,53.2,92.5,59.8,91.6,67c1.6-0.1,3-0.4,4-0.6c0.7-0.1,1.2-0.3,1.5-0.3c0.2-0.2,0.4-0.3,0.5-0.5c4.4-4.4,6.9-8,7.1-8.3h0
		c2.5-3.7,7.4-4.6,11.1-2.2c3.7,2.5,4.6,7.4,2.2,11.1c-0.2,0.3-3.3,4.9-9.1,10.6c0,0,0,0-0.1,0.1c-4,4-9.4,8.6-16,12.6
		c-1.2,0.7-2.4,1.4-3.6,2.1c-1.6,0.9-3.3,1.7-5.1,2.5c-7.1,3.1-15.5,5.3-24.6,5.4c-0.4,0-0.8,0-1.1,0c0.4,1.6,0.8,3,1.3,4.2
		c0.5,1.9,1.6,3.7,3.2,5.1c0.1,0.1,0.2,0.2,0.3,0.3c-1.5-0.1-3-0.1-4.5-0.1c-14.9-0.1-32.5,4.7-49.1,18.2
		c-5.4,4.3-6.2,12.2-1.9,17.6c2.5,3.1,6.1,4.7,9.8,4.7c2.7,0,5.5-0.9,7.8-2.8c12.5-9.9,23.6-12.6,33.5-12.7c8.9,0,16.8,2.4,22.5,5
		c2.8,1.3,5.1,2.5,6.5,3.4c0.7,0.4,1.3,0.8,1.6,1c0.2,0.1,0.3,0.2,0.3,0.2c0,0,0,0,0,0c0,0,0,0,0,0h0c1.4,1.1,3,1.8,4.7,2.1
		C103.6,149.9,118.6,141,123.1,126z M76.7,111c5.8-2.2,11.1-7.3,12.8-12.5c1-0.4,2-0.8,3-1.1c-0.6,5.8-1.8,11.7-3.6,17.5
		C85.4,113.5,81.3,112.1,76.7,111z" />
		<ellipse transform="matrix(0.35 -0.9368 0.9368 0.35 -11.1824 35.5203)" cx="20" cy="25.8" rx="20" ry="20" />
		<path
			d="M47.4,39.8c-2.4-0.3-4.9-0.2-7.5,0.5c-8.1,2-13.3,10.1-8.2,20.6c4,8.3,15.1,7,22.2,22.3c7.2,0.8,13.8-0.2,19.6-2.1
		c-3.9-1.1-7.9-2.8-11.9-5.2C54.7,71.8,47.9,65.7,42,57c-0.4-0.5-0.6-1.1-0.9-1.7c0,0,0-0.1-0.1-0.1c-1.2-3.4,0-7.2,3.1-9.3
		c3.7-2.5,8.6-1.5,11.1,2.1c2.4,3.5,4.8,6.3,7.2,8.6c1,1,2,1.8,3.1,2.6c3.5-3.2,3-8.5-1.6-13.1C59.7,41.9,53.1,39.5,47.4,39.8z" />
		<path d="M116.4,65.1c1.6-2.4,1.3-5.6-0.7-7.6c-0.3-0.3-0.6-0.5-0.9-0.8c-1.3-0.9-2.9-1.2-4.5-0.9c-1.6,0.3-2.9,1.2-3.8,2.6
		c-0.1,0.1-2.2,3.1-5.9,7.1c3.2,0.1,6.2,2.2,7.3,5.4c0.5,1.3,0.5,2.7,0.3,4C113,70,115.8,65.9,116.4,65.1z" />
		<path d="M81.3,82.7c-0.3,0-0.6-0.1-0.9-0.1c-0.9-0.1-1.8-0.3-2.7-0.5c-0.3-0.1-0.6-0.1-0.8-0.2c-7.3,2.9-14.6,4-22.2,3.4
		c-2.2-0.2-4.3-0.5-6.5-1c-1.6-0.3-3.2-0.1-4.5,0.8c-1.3,0.9-2.3,2.2-2.6,3.8c-0.4,2,0.2,4.1,1.6,5.5c0.8,0.8,1.8,1.4,3,1.6
		c4.4,0.9,8.5,1.4,12.4,1.4c0.7,0,1.4,0,2.1,0c9.6-0.2,17.6-2.7,23.3-5.2c1.6-0.7,3.2-1.5,4.8-2.3c1.6-0.8,3.2-1.7,4.7-2.7
		c2.6-1.6,5.1-3.5,7.6-5.4c-1.7,0.4-4.4,1-7.8,1.2C89.5,83.2,85.6,83.2,81.3,82.7z" />
		<path d="M64.8,61.2c-0.3-0.2-0.6-0.5-0.9-0.7c-3.8-3-7.2-6.7-10.3-11.3c-0.9-1.3-2.3-2.2-3.8-2.5c-1.6-0.3-3.2,0-4.5,0.9
		c-2.3,1.5-3.2,4.4-2.3,7c0.2,0.5,0.4,0.9,0.7,1.4c0.7,1.1,1.5,2.1,2.2,3.1c4.8,6.4,10.4,11.5,16.7,15.2c4.4,2.6,9.2,4.5,14.2,5.7
		c0.4,0.1,0.9,0.2,1.3,0.3c0.7,0.1,1.4,0.3,2.2,0.4c0.2,0,0.4,0.1,0.6,0.1c0.2,0,0.5,0.1,0.7,0.1c4.2,0.5,7.9,0.5,11.1,0.3
		c4.7-0.4,8.1-1.3,9.4-1.7c1.5-0.5,2.7-1.5,3.4-2.9c0-0.1,0.1-0.1,0.1-0.2c0.7-1.4,0.8-3.1,0.3-4.6c-1.1-3.2-4.5-4.8-7.6-3.8
		c0,0-0.1,0-0.1,0c-0.1,0-0.2,0.1-0.4,0.1c-0.4,0.1-1,0.3-1.8,0.4c-0.5,0.1-1.1,0.2-1.7,0.3c-0.8,0.1-1.8,0.2-2.9,0.3
		c-0.7,0.1-1.4,0.1-2.1,0.1c-7.4,0.2-14.4-1.6-20.6-5.3C67.3,63,66,62.1,64.8,61.2z" />
	</g>
</svg>