<?xml version="1.0" encoding="utf-8"?>
<!-- Generator: Adobe Illustrator 28.4.1, SVG Export Plug-In . SVG Version: 6.00 Build 0)  -->
<svg version="1.1" id="Layer_1" xmlns="http://www.w3.org/2000/svg" xmlns:xlink="http://www.w3.org/1999/xlink" x="0px"
	y="0px" viewBox="0 0 211.2 88.4" style="enable-background:new 0 0 211.2 88.4;" xml:space="preserve" fill="#ffffff">
	<g>
		<ellipse cx="188.7" cy="46.1" rx="22.5" ry="22.5" />
		<path d="M59.3,60.2c0.5-0.3,1-0.5,1.6-0.6c7.7-2,13.2-4.9,17.4-8.3c0.1-0.1,0.3-0.2,0.4-0.3c-0.7,0-1.3,0-2,0
		c-6-1-13.3-1.7-21.5-1.8c-14.8,0-32.6,2.6-49.4,12C0.3,64.4-1.6,71.4,1.5,77c2.1,3.8,6,5.9,10,5.9c1.9,0,3.8-0.5,5.6-1.5
		c12.2-6.9,26-9.1,38.2-9.1c0.5,0,0.9,0,1.3,0c-0.7-0.9-1.2-1.9-1.5-3C54.2,65.6,56,61.9,59.3,60.2z" />
		<path d="M115.9,17.4c-6.5-2.4-10.6-6.3-16.5-5.8c-11.6,1.1-15.7,9.9-13.2,17.8c0.8,2.6,2,4.8,3.5,6.6c0,0,0,0,0,0
		c0.2-0.6,0.5-1.2,0.7-1.8c0.8-2.5,1.3-4.7,1.5-6.2c0.1-0.7,0.2-1.3,0.2-1.7c0-0.2,0-0.3,0-0.4c0-1.1,0.3-2.1,0.7-3
		c1.3-2.9,4.2-4.9,7.5-4.8c4.4,0.1,7.9,3.8,7.8,8.2h0c0,0,0,0.1,0,0.3c-0.1,1.4-0.4,7.1-3.2,14.6c-0.6,1.7-1.4,3.5-2.4,5.4
		c0.4,0.1,0.9,0.3,1.3,0.4c7,1.7,12.2-1.5,12.2-7.1c0.3,0,0.6,0,0.9-0.1c-1.5-5.4-2.3-11.5-2.2-18.3c0-0.7,0.1-1.4,0.3-2
		C115.2,18.7,115.5,18,115.9,17.4z" />
		<ellipse transform="matrix(0.6149 -0.7886 0.7886 0.6149 8.6814 57.7832)" cx="63.5" cy="20" rx="20" ry="20" />
		<path d="M94.2,55.4c0.3-0.4,0.6-0.7,0.9-1.1c2.1-2.6,3.9-5.4,5.4-8.3c0-0.1,0.1-0.2,0.1-0.2c0.8-1.5,1.4-2.9,2-4.3
		c2.9-7.3,3.4-13.3,3.5-15.2c0-0.4,0-0.8-0.1-1.1c-0.2-1.2-0.7-2.3-1.6-3.2c-1.1-1.2-2.6-1.8-4.2-1.8c-1.9,0-3.6,0.9-4.8,2.2
		c-0.8,1-1.3,2.3-1.4,3.6c0,0.1,0,0.3,0,0.5c0,0.4-0.1,1-0.2,1.8c-0.2,1.5-0.7,3.8-1.6,6.6c-0.3,1-0.7,1.9-1.1,2.8
		c-0.1,0.2-0.1,0.3-0.2,0.5c-2.2,5.1-5.3,9.5-9.4,13.1c-0.2,0.2-0.5,0.4-0.7,0.6c-0.2,0.2-0.4,0.4-0.6,0.6
		c-5.1,4.2-11.3,7.2-18.9,9.2c-0.6,0.2-1.2,0.4-1.7,0.8c-0.8,0.5-1.5,1.2-2,2c-0.8,1.4-1.1,3-0.7,4.5c0.4,1.5,1.4,2.8,2.6,3.6
		c0.9,0.6,2,0.9,3.1,0.9c0.5,0,1-0.1,1.5-0.2c0.4-0.1,0.8-0.2,1.2-0.3c0.3-0.1,0.7-0.2,1-0.3c8.3-2.4,15.5-6,21.4-11
		C90.2,59.7,92.3,57.6,94.2,55.4z" />
		<path d="M180.5,68.4h-14.6c-0.1-2.1-0.8-4.2-2-6.2c-1.7-2.6-3.8-4.8-6.3-6.6l5-15.3c7.3-10.2,4.8-34.4-17.9-25.5
		c-5.7,2.2-10.4,3.4-14.4,3.9c0.3,0.9,0.5,1.8,0.5,2.8c-0.1,7.6,1.2,13.6,3.2,18.4c2.7,0.3,5.1,0.7,7.2,1.2l-2.4,7.3l-0.6,2
		l-0.1,0.3c-0.1-0.1-0.1-0.2-0.2-0.3c-2.1-2.5-3.8-5.3-5.2-8.3c-0.4-0.8-0.7-1.6-1-2.4c-2.1-5.4-3-11.4-2.9-18.2
		c0-0.9-0.2-1.8-0.6-2.6c-0.3-0.6-0.7-1.2-1.1-1.7c-1.1-1.1-2.6-1.8-4.2-1.8c-2,0-3.8,0.9-4.9,2.5c-0.4,0.6-0.7,1.2-0.9,1.9
		c-0.1,0.5-0.2,1-0.2,1.5c-0.1,6.4,0.7,12.5,2.2,18.1c0.7,2.7,1.7,5.2,2.8,7.7c0.9,1.9,1.9,3.8,3,5.5c2.4,3.9,5.4,7.5,8.8,10.7
		c0.1,0.1,0.2,0.2,0.3,0.2l-0.7,2.1c-0.3-0.3-0.6-0.5-0.9-0.8c-3.4-3.1-6.7-7-9.6-11.8c-8.2,1.4-16.8,2.6-25.2,1.5
		c-0.5,0.6-0.9,1.2-1.4,1.8c-1.9,2.3-4.1,4.6-6.7,6.7c-4.9,4.1-11.1,7.7-18.7,10.3c-0.7,0.2-1.4,0.5-2.1,0.7
		c3.5,2.8,8.1,5.4,13.8,7.1c17.6,5.4,35.5,7.3,52.6,6c1.4,0.8,3,1.2,4.7,1.2h41c5.5,0,10-4.5,10-10C190.5,72.9,186,68.4,180.5,68.4z
		 M160.9,68.4h-2c0-2.5-1.4-4.7-3.7-5.7l0.6-1.9C159,62,160.9,65.1,160.9,68.4z" />
	</g>
</svg>