<?xml version="1.0" encoding="utf-8"?>
<!-- Generator: Adobe Illustrator 28.4.1, SVG Export Plug-In . SVG Version: 6.00 Build 0)  -->
<svg version="1.1" id="Layer_1" xmlns="http://www.w3.org/2000/svg" xmlns:xlink="http://www.w3.org/1999/xlink" x="0px"
	y="0px" viewBox="0 0 211.1 100.5" style="enable-background:new 0 0 211.1 100.5;" xml:space="preserve"
	fill="#ffffff">
	<g>
		<path d="M9.4,97.3c2.5,1.6,5.2,2.5,8,2.8c-2.7-1.6-4.2-4.8-3.4-8.1c0.9-4,4.9-6.6,9-5.7c3.5,0.8,6.6,1.1,9.3,1.1
		c2.6,0,4.8-0.3,6.8-0.8c2.9-8.6-0.3-18.4-8.4-23.4c-9.4-5.8-21.7-3-27.5,6.4C-2.8,79.1,0.1,91.5,9.4,97.3z" />
		<path d="M157.5,99.1C157.5,99.1,157.5,99.1,157.5,99.1c7.5,0,15.6-1.1,24.3-3.6c6.1-0.1,12.6-0.9,19.6-2.5c6.7-1.6,10.9-8.3,9.4-15
		c-1.6-6.7-8.3-10.9-15-9.4c-5.8,1.3-10.8,1.9-15,1.9c-8.6,0-14.1-2.1-18.4-4.9c-3.2-2.1-5.7-4.8-7.7-7.9c-1.3-2-2.4-4.2-3.4-6.3
		c4-8.5-1.7-23.2-14.5-30.2C118,10.7,97.3,5.6,77.1,5.7C62.4,5.8,54.5,16.2,57.8,25.6c2.7,7.8,9.4,13.3,17.2,15.2
		c-3.1-8.1-6.5-11.5-6.6-11.7l0,0c-3.1-3-3.3-8-0.3-11.2c3-3.2,8.1-3.4,11.3-0.4c0.9,0.8,8.4,8.4,13,25.3
		c10.4,1.9,20.8,5.8,30.5,11.8c1.2,0.7,2.4,1.4,3.6,1.9c1.1,3.1,2.4,6.4,4.2,9.7c1.5,2.9,3.4,5.9,5.6,8.7c-2.4-1-4.5-2-6.3-3.1
		c-0.8-0.4-1.5-0.9-2.2-1.3c-0.5-10.5-7.9-20.8-24.1-13.7c-3,1.3-5.7,2.4-8.2,3.3c0.3,2.8,0.5,5.6,0.6,8.7c0.1,2.5,0.1,5,0.1,7.7
		c-0.1,4.3-3.5,7.7-7.7,7.8c-0.1,0-0.3,0-0.4,0c-4.4-0.1-7.9-3.7-7.8-8.1c0-2.4,0-4.7,0-6.8c-0.1-1.8-0.2-3.5-0.3-5.2
		c-10.9,1.4-15.8-1.8-23.5-0.1C44.3,66.6,42.1,71,44,78.7c0.4,1.6,1.1,3.1,2.1,4.5c0.3-0.2,0.5-0.4,0.8-0.6c0.2-0.2,0.4-0.3,0.5-0.5
		c2.6-2.5,4-5.3,4.5-6.5c0.1-0.2,0.2-0.4,0.2-0.5c1.2-3.9,5.3-6.2,9.3-5c4,1.2,6.2,5.3,5.1,9.3c-0.2,0.6-1.6,5.2-5.8,10.3
		c-0.4,0.5-0.8,1-1.2,1.4c-0.1,0.1-0.2,0.2-0.2,0.2c0.5,0.2,0.9,0.4,1.4,0.5c6.8,2.3,14-0.3,16.9-5.9c19.7-3.3,32,0,38.3,1
		c0.3,0,0.5,0.1,0.7,0.1c1.2,0.8,2.4,1.5,3.8,2.3C128.9,94.3,141.5,99.1,157.5,99.1z" />
		<polygon points="52,75.2 52,75.2 52,75.2 	" />
		<ellipse cx="30.9" cy="22.5" rx="22.5" ry="22.5" />
		<polygon points="68.5,29.2 68.5,29.2 68.5,29.2 	" />
		<path d="M48.1,84.1c-0.3,0.2-0.5,0.4-0.8,0.7c-2,1.6-4.9,3.3-9.3,4.2c-1.7,0.3-3.6,0.6-5.9,0.6c-3,0-6.3-0.4-9.7-1.2
		c-0.4-0.1-0.8-0.1-1.2-0.1c-2.5,0-4.8,1.8-5.4,4.3c-0.7,3,1.2,5.9,4.2,6.6c1.4,0.3,2.8,0.6,4.1,0.8c2.8,0.4,5.4,0.7,8,0.7h0.3h0
		c13.5,0,21.5-6.5,24.8-10c0.2-0.2,0.4-0.5,0.6-0.7c0,0,0.1-0.1,0.1-0.1c4.1-4.6,5.9-9.1,6.4-10.9c0.4-1.4,0.3-2.9-0.4-4.2
		c-0.7-1.3-1.9-2.2-3.3-2.6c-0.5-0.1-1-0.2-1.6-0.2c-2.4,0-4.6,1.6-5.3,4c0,0.1-0.1,0.3-0.2,0.6c-0.4,1-1.9,4.3-5,7.3
		C48.5,83.7,48.3,83.9,48.1,84.1z" />
		<path d="M69.9,27.7c0.1,0.1,0.2,0.2,0.3,0.4c1.5,1.7,4.5,5.8,7.1,13.1c2,5.6,3.8,13,4.6,22.7c0.1,1.7,0.2,3.5,0.3,5.4
		c0.1,2.2,0.1,4.6,0,6.9c0,1.6,0.6,3.1,1.7,4.3c1.1,1.2,2.6,1.8,4.2,1.8c0.1,0,0.2,0,0.3,0c3.2-0.1,5.7-2.7,5.8-5.9
		c0-2.6,0-5.1-0.1-7.6c-0.1-2.8-0.3-5.5-0.5-8.1c-0.7-7.2-1.9-13.3-3.4-18.4C85.6,25.9,78.2,19.1,78.1,19c-1.2-1.1-2.7-1.7-4.3-1.6
		s-3.1,0.7-4.2,1.9C67.4,21.6,67.5,25.4,69.9,27.7L69.9,27.7z" />
	</g>
</svg>