<?xml version="1.0" encoding="utf-8"?>
<!-- Generator: Adobe Illustrator 28.4.1, SVG Export Plug-In . SVG Version: 6.00 Build 0)  -->
<svg version="1.1" id="Layer_1" xmlns="http://www.w3.org/2000/svg" xmlns:xlink="http://www.w3.org/1999/xlink" x="0px"
	y="0px" viewBox="0 0 150.2 228.6" style="enable-background:new 0 0 150.2 228.6;" xml:space="preserve"
	fill="#ffffff">
	<g>
		<ellipse cx="97.9" cy="22.5" rx="22.5" ry="22.5" />
		<path d="M107.4,47.8c-7,7.2-8.2,18.1-4.1,27.1c0.9,1.8,1.6,3.7,2.4,5.6c1.2-3.1,2.2-6.1,2.8-8.8c1.5-6,1.9-10.4,1.9-10.7h0
		c0.2-4.4,4-7.8,8.4-7.6c4.4,0.2,7.8,4,7.6,8.4c0,0.4-0.3,5.9-2.3,13.8c-2,7.7-5.6,17.8-12.4,27.3c-0.2,0.3-0.4,0.6-0.6,0.8
		c0.4,5,0.5,10.1,0,15.3c-0.6,7.6,1.4,15.3,6,19.8c-1.1,7-2,15.6-2,25.2c0,16.4,2.6,36,11.3,55.6c2.1,4.6,6.6,7.4,11.4,7.4
		c1.7,0,3.4-0.4,5.1-1.1c6.3-2.8,9.1-10.2,6.3-16.5c-7-15.6-9.2-31.6-9.2-45.4c0-10.6,1.3-19.9,2.6-26.4c0.6-3.3,1.3-5.8,1.8-7.5
		c0.2-0.8,0.4-1.5,0.5-1.9c0.1-0.2,0.1-0.3,0.1-0.4c0,0,0,0,0,0h0c0,0,0,0,0,0c0.3-1,0.5-1.9,0.6-2.9c0.9-2.7,1.4-5.7,1.5-8.7
		c0.8-21.6-4-42.4-13.2-60.3C127.1,43,114.2,40.7,107.4,47.8z" />
		<path d="M43.6,173.8c1.4,0.9,2.8,1.6,4.2,2.2c-0.1-0.3-0.2-0.6-0.3-0.9c-0.4-1.3-0.9-2.3-1.2-3.2c-0.3-0.7-0.6-1.2-0.7-1.5
		c-0.1-0.2-0.1-0.3-0.2-0.3l0,0c-0.9-1.5-1.3-3.2-1.1-4.8c0.2-2.5,1.5-4.8,3.8-6.2c2.1-1.3,4.5-1.5,6.6-0.8c1.8,0.6,3.3,1.7,4.4,3.4
		l0,0c0.3,0.5,2.8,4.6,4.6,11.4c0.4,1.4,0.7,2.9,1,4.5c1.3-0.3,2.5-0.7,3.6-1.3c6.5-3.1,8.6-8.7,5-13.2c4-3.7,7.8-6.7,11.3-9.1
		c-0.5,4.1-0.9,8.7-0.9,13.9c0,14.6,2.8,33.2,11.8,54.6c1.6,3.8,5.3,6.1,9.2,6.1c1.3,0,2.6-0.3,3.9-0.8c5.1-2.1,7.5-8,5.3-13.1
		c-8-19-10.2-34.7-10.2-46.8c0-9.2,1.3-16.2,2.6-20.9c0.6-2.3,1.2-4.1,1.7-5.1c0.2-0.5,0.4-0.9,0.5-1.1c0,0,0,0,0,0
		c4.4-6.7-1.7-20-10.4-23.8c-5.1,3.8-11,7.1-18,9.5c-0.2,0.1-0.3,0.1-0.5,0.1c-15.5,26.5-28.8,17.1-36.9,25.1
		C34.4,159.8,36.7,169.1,43.6,173.8z" />
		<ellipse transform="matrix(0.9999 -1.469988e-02 1.469988e-02 0.9999 -2.6533 0.3134)" cx="20" cy="180.6" rx="20"
			ry="20" />
		<path d="M38.8,216.7c-1.1,1.2-1.7,2.7-1.6,4.3c0.1,1.6,0.7,3.1,1.9,4.2c2,1.9,5,2.1,7.3,0.7c0.4-0.3,0.8-0.6,1.2-1
		c6.5-6.9,11.1-14.5,13.6-22.5c2.1-6.5,2.8-13.2,2.2-20c-0.2-1.6-0.4-3-0.6-4.4c-0.2-1.2-0.5-2.4-0.8-3.5
		c-1.5-6.1-3.8-10.2-4.6-11.6c-0.9-1.4-2.2-2.4-3.7-2.7c-1.6-0.4-3.2-0.1-4.5,0.7c-2.8,1.8-3.7,5.5-2,8.2c0.1,0.1,0.1,0.2,0.2,0.4
		c0.2,0.3,0.5,0.9,0.8,1.6c0.5,1.2,1.3,3.1,2,5.4c0,0,0,0.1,0,0.1c0.1,0.3,0.2,0.6,0.2,0.8c1.8,7.2,1.6,14.4-0.6,21.3
		C47.7,205.1,44.1,211,38.8,216.7z" />
		<path d="M76.1,124.6c1.1,0.3,2.3,0.2,3.4-0.1c0.6-0.2,1.2-0.4,1.8-0.7c5.6-2.1,10.4-4.8,14.5-7.7c6.5-4.7,11.1-9.9,14.2-14.3
		c0.2-0.3,0.5-0.7,0.7-1c5.1-7.4,8.9-16,11.4-25.6c1.8-7.2,2.2-12.5,2.3-13.4c0.2-2.9-1.7-5.4-4.5-6.1c-0.4-0.1-0.8-0.2-1.2-0.2
		c-1.6-0.1-3.1,0.5-4.3,1.5c-1.2,1.1-1.9,2.5-2,4.2c0,0.2-0.3,4.7-1.9,11.1c-0.8,3.1-2,7-3.8,11.1c-1.6,3.8-3.7,7.7-6.5,11.5
		c-6.4,8.8-14.4,14.8-24.5,18.3c-1.5,0.5-2.7,1.6-3.5,3c-0.7,1.4-0.8,3.1-0.3,4.6C72.5,122.7,74.1,124.1,76.1,124.6z" />
	</g>
</svg>