<?xml version="1.0" encoding="utf-8"?>
<!-- Generator: Adobe Illustrator 28.4.1, SVG Export Plug-In . SVG Version: 6.00 Build 0)  -->
<svg version="1.1" id="Layer_1" xmlns="http://www.w3.org/2000/svg" xmlns:xlink="http://www.w3.org/1999/xlink" x="0px"
	y="0px" viewBox="0 0 206.8 89.1" style="enable-background:new 0 0 206.8 89.1;" xml:space="preserve" fill="#ffffff">
	<g>
		<ellipse cx="22.5" cy="22.5" rx="22.5" ry="22.5" />
		<path
			d="M54.4,36.8c1.7-6.7,1.8-11.2,1.9-12.3c0-0.1,0-0.2,0-0.2h0c-0.2-4.4,3.3-8.1,7.7-8.3c4.4-0.2,8.1,3.2,8.3,7.7
		c0,0.1,0,0.4,0,0.9c0,2.4-0.3,9.8-3.4,20c0.5,0.1,1,0.2,1.4,0.2c0.7,0.1,1.3,0.2,2,0.2c0-0.1,0.1-0.1,0.1-0.2
		c1.6-5.3,2.4-11.8,1.2-20.1c-0.6-4.4,2.4-8.4,6.8-9c3.7-0.5,7.1,1.5,8.5,4.8c0.3,0.6,0.4,1.3,0.5,2c1.4,9.9,0.6,18.7-1.5,26.1
		c5.1,1.6,10.1,3.8,14.9,6.4l-0.7,3.9c-5.1,1.7-11.9,3.5-21,4.2c-0.3,0.4-0.6,0.9-0.9,1.3c-0.9,1.2-1.8,2.4-2.7,3.5
		C69.7,77,61.3,80.7,60.7,81v0c-1.1,0.5-2.2,0.7-3.3,0.7c-1.2,0-2.4-0.3-3.4-0.8c-1.2-0.6-2.3-1.5-3.1-2.7c-0.2,0.3-0.4,0.5-0.6,0.8
		c-1.5,1.9-3.1,3.7-4.8,5.6c2.2,2.7,6.5,4.4,12.8,4.6c11.5,0.4,17-5.3,47.3-0.5c16.8,2.7,21.5-8.2,19.7-18.1c1,0.6,2.1,1.3,3.2,2
		c10.5,6.1,25.8,12.2,44.8,12.2c0,0,0,0,0,0c7.6,0,15.8-1,24.4-3.4c6.7-1.8,10.6-8.7,8.7-15.4c-1.8-6.7-8.7-10.6-15.4-8.7
		c-6.4,1.8-12.3,2.5-17.8,2.5c-12.6,0-23-3.8-30.7-8c-0.1-2.7-0.7-5.6-1.8-8.4l10.3-0.9c5.5-0.5,9.6-5.3,9.1-10.8
		c-0.5-5.5-5.3-9.6-10.8-9.1l-26.8,2.4c-16.6-9.5-34.7-14.8-52.7-16c-14.7-0.9-23.2,9-20.6,18.6C50.1,31,51.9,34.2,54.4,36.8z" />
		<path d="M7.8,53.1c-8.2,7.3-9,20-1.6,28.2c6.1,6.8,15.8,8.5,23.6,4.7c-1.7-3-1.4-6.9,1.2-9.5c3.8-4,7.1-7.9,9.8-11.7
		c-0.6-3.6-2.2-7.1-4.8-10.1C28.7,46.5,16.1,45.7,7.8,53.1z" />
		<path d="M64.4,58.5c-0.4,0-0.8,0.1-1.2,0.2c-0.4,0.7-0.7,1.4-1.1,2.2C62.8,60.1,63.6,59.4,64.4,58.5z" />
		<path d="M74.2,45.3c-1.5,4.8-3.9,9.2-7.1,13.1c-1.3,1.5-2.7,3-4.2,4.4c-0.1,0.1-0.3,0.2-0.4,0.4c-1.1,0.9-2.1,1.7-3.1,2.4
		c-2.1,3.5-4.5,7.2-7.3,10.9c0.7,1.3,1.7,2.3,3.1,2.8c1.5,0.6,3.1,0.6,4.6-0.1c2.1-1,9.3-4.7,16.1-12.7c0.9-1.1,1.8-2.2,2.6-3.3
		c0.1-0.2,0.3-0.3,0.4-0.5c2.9-4.2,5.2-8.8,6.7-13.7c0.1-0.3,0.2-0.7,0.3-1c2.2-7.7,2.7-16.2,1.4-25.2c-0.1-0.5-0.2-1-0.4-1.5
		c-1.1-2.5-3.7-4-6.4-3.6c-1.6,0.2-3,1.1-4,2.3c-1,1.3-1.4,2.9-1.1,4.4C76.6,32.1,76.2,38.9,74.2,45.3
		C74.3,45.3,74.3,45.3,74.2,45.3z" />
		<path d="M41.1,67.7c-2.5,3.3-5.4,6.7-8.6,10.1c-1.9,2-2.2,4.9-0.8,7.2c0.3,0.5,0.6,0.9,1,1.3c1.1,1.1,2.6,1.7,4.2,1.7
		c1.6,0,3.2-0.6,4.3-1.8c1.1-1.1,2.2-2.3,3.2-3.4c1.5-1.7,3-3.4,4.4-5.2c0.4-0.5,0.8-1,1.2-1.5c0.6-0.7,1.1-1.5,1.6-2.2
		c1.5-2,2.9-4.1,4.2-6.1c0.8-1.3,1.6-2.5,2.3-3.7c0.3-0.6,0.7-1.1,1-1.7c0.6-1.1,1.2-2.2,1.7-3.3c2.8-5.5,4.8-10.5,6.2-15.1
		c3.3-10.6,3.4-18,3.4-19.6c0-0.4,0-0.7,0-0.8c-0.1-3.2-2.8-5.7-6-5.7c-0.1,0-0.2,0-0.3,0c-3.3,0.1-5.9,2.9-5.7,6.3l0,0.2
		c0,1.8-0.3,6.8-2.2,13.8C53.8,46.3,49.5,56.6,41.1,67.7z" />
	</g>
</svg>