<?xml version="1.0" encoding="utf-8"?>
<!-- Generator: Adobe Illustrator 28.4.1, SVG Export Plug-In . SVG Version: 6.00 Build 0)  -->
<svg version="1.1" id="Layer_1" xmlns="http://www.w3.org/2000/svg" xmlns:xlink="http://www.w3.org/1999/xlink" x="0px"
	y="0px" viewBox="0 0 138 229.2" style="enable-background:new 0 0 138 229.2;" xml:space="preserve" fill="#ffffff">
	<g>
		<ellipse cx="109.6" cy="22.5" rx="22.5" ry="22.5" />
		<path d="M112.1,49.4c-8.6,5.1-12.7,15.3-11.1,25c0.3,2,0.6,4,0.8,6c2-2.7,3.7-5.3,5-7.7c3.1-5.4,4.5-9.5,4.6-9.9
		c1.4-4.2,5.9-6.5,10.1-5.1c4.2,1.4,6.5,5.9,5.1,10.1c-0.1,0.4-1.9,5.6-5.9,12.7c-3.9,6.9-10.1,15.7-19.1,23.1
		c-0.3,0.2-0.5,0.4-0.8,0.6c-0.9,4.9-2.2,9.9-4,14.8c-0.6,1.7-1.1,3.5-1.4,5.3c-1.8,6.7-5.2,21.5-5.2,40.3c0,16.4,2.6,36,11.3,55.6
		c2.1,4.6,6.6,7.4,11.4,7.4c1.7,0,3.4-0.4,5.1-1.1c6.3-2.8,9.1-10.2,6.3-16.5c-7-15.6-9.2-31.6-9.2-45.4c0-7.5,0.7-14.4,1.5-20
		c6.6-3.1,13-9.9,15.6-18.7c6.5-20.7,7.3-41.9,3.1-61.7C132.4,50,120.5,44.4,112.1,49.4z" />
		<path
			d="M61.6,145.7c-1.3,6.1-2.4,13.9-2.4,23.2c0,14.8,2.8,33.3,11.5,54.1c1.6,3.8,5.3,6.1,9.2,6.1c1.3,0,2.6-0.3,3.9-0.8
		c5.1-2.1,7.5-8,5.4-13.1c-7.7-18.4-10-34-10-46.4c0-9.8,1.5-17.5,2.9-22.7c0.1-0.2,0.1-0.4,0.2-0.6c7.9-5.7,11.9-16-1.9-25
		c-2-1.3-3.8-2.6-5.4-3.9c-3.1,0.7-6.4,1.1-9.8,1.3c-1.6,0.1-3.1-0.3-4.4-1c-2.3-1.3-3.9-3.7-4-6.5c-0.2-4,2.5-7.5,6.3-8.3
		c-3.6-8.4-1.5-15.2-6.1-20.4c-7.6-8.8-17.1-7.1-22.2-0.5c-1.6,2.1-2.8,4.4-3.4,6.7c-2.5,5-2.9,12-0.7,17.6c1.1-2,1.9-3.9,2.5-5.7
		c0.1-0.2,0.2-0.4,0.2-0.7c0.8-2.5,1.3-4.7,1.5-6.2c0.1-0.7,0.2-1.3,0.2-1.7c0-0.2,0-0.3,0-0.4l0,0c0.1-4.4,3.7-7.9,8.1-7.9
		c0.4,0,0.8,0.1,1.2,0.1c3.8,0.6,6.8,4,6.7,8h0c0,0.5-0.1,5.4-2.2,12.1c-0.1,0.2-0.1,0.4-0.2,0.6c-0.1,0.3-0.2,0.6-0.3,0.9
		c0,0,0,0,0,0.1c-0.8,2.2-1.7,4.6-3,7c-0.2,0.4-0.4,0.8-0.6,1.1C56,127.5,58.9,138.8,61,144.4C61.2,144.9,61.4,145.3,61.6,145.7z" />
		<ellipse transform="matrix(4.573589e-02 -0.999 0.999 4.573589e-02 -29.442 83.9231)" cx="29.2" cy="57.4" rx="20"
			ry="20" />
		<path d="M49,91.3c0-1.6-0.6-3.1-1.6-4.2c0,0,0,0-0.1-0.1c-1.1-1.2-2.6-1.8-4.2-1.8c-3.3,0-6,2.6-6.1,5.9c0,0.1,0,0.3,0,0.5
		c0,0.4-0.1,1-0.2,1.8c-0.2,1.5-0.6,3.8-1.6,6.6c-0.2,0.7-0.5,1.3-0.7,2c-0.8,2.1-1.8,4.1-2.9,6c-2.2,3.7-5,6.9-8.3,9.7
		c-5.1,4.3-11.3,7.3-18.8,9.3c-1.6,0.4-2.9,1.4-3.7,2.8c-0.8,1.4-1,3-0.6,4.5c0.7,2.6,3.1,4.5,5.8,4.5c0.5,0,1-0.1,1.5-0.2
		c9.2-2.4,17.1-6.3,23.5-11.7c5-4.2,9-9.2,12.1-14.9c0.1-0.1,0.2-0.3,0.2-0.4c0.1-0.1,0.1-0.2,0.2-0.4C48.3,101.7,48.9,93.6,49,91.3
		C49,91.3,49,91.3,49,91.3z" />
		<path d="M58.6,110.4c0.1,2,1.3,3.9,3,4.9c1,0.6,2.1,0.8,3.3,0.8c2.8-0.2,5.4-0.5,7.9-1c12.4-2.3,21.6-8,27.5-12.9
		c0.3-0.3,0.6-0.5,0.9-0.8c6.9-5.8,12.8-13.1,17.7-21.7c3.7-6.5,5.4-11.4,5.7-12.4c0.9-2.7-0.2-5.7-2.7-7.1
		c-0.3-0.2-0.7-0.4-1.1-0.5c-1.5-0.5-3.1-0.4-4.6,0.3c-1.4,0.7-2.5,2-3,3.5c-0.1,0.2-1.5,4.5-4.8,10.2c-1.6,2.8-3.8,6.2-6.5,9.7
		c-2.6,3.2-5.6,6.5-9.3,9.4c-8.5,6.9-17.8,10.5-28.5,11.2c-0.2,0-0.3,0-0.5,0.1c-1.4,0.2-2.7,0.9-3.6,2
		C59.1,107.3,58.5,108.8,58.6,110.4z" />
	</g>
</svg>