<?xml version="1.0" encoding="utf-8"?>
<!-- Generator: Adobe Illustrator 28.4.1, SVG Export Plug-In . SVG Version: 6.00 Build 0)  -->
<svg version="1.1" id="Layer_1" xmlns="http://www.w3.org/2000/svg" xmlns:xlink="http://www.w3.org/1999/xlink" x="0px"
	y="0px" viewBox="0 0 263 82.4" style="enable-background:new 0 0 263 82.4;" xml:space="preserve" fill="#ffffff">
	<g>
		<path d="M223.7,51.2c3.3,2.4,7.3,4,11.7,4.3c4.9,0.4,9.6-0.9,13.5-3.3c-5.5-2-10.4-2.7-14.7-2.7C230.2,49.6,226.7,50.2,223.7,51.2z
		" />
		<path d="M214.6,31.4c-0.2,2,0,4,0.3,5.9c5.3-2.1,11.7-3.7,19.1-3.7c7.5-0.1,15.9,1.5,24.7,5.4c0.4-1.3,0.6-2.7,0.7-4.2
		c0.9-12.4-8.3-23.2-20.7-24.1C226.3,9.7,215.5,19,214.6,31.4z" />
		<path d="M214.7,55.3c-2.3,1.4-4,2.8-5.1,3.9c-0.6,0.5-1,0.9-1.2,1.2c-0.1,0.1-0.2,0.2-0.2,0.3c-2.9,3.3-7.9,3.7-11.3,0.9
		c-3.4-2.9-3.8-7.9-0.9-11.3h0c0.4-0.4,4-4.6,10.6-8.7c-6.3-3-13.8-3.5-20.6-1.5c-14.6,4.5-31,12.5-47.9,9.2
		c-0.4-0.1-0.7-0.1-1.1-0.2c-1-0.2-2-0.4-3-0.4l0,0c-0.1,0-6.6,0.1-16.6,0.4c1.5,0.7,2.9,1.4,4.3,1.9c1.7,0.6,3.4,1.1,4.9,1.4
		c2.6,0.6,4.8,0.8,6.4,0.8c0.8,0,1.3,0,1.7,0c0.2,0,0.3,0,0.4,0l0,0c4.4-0.4,8.3,2.9,8.7,7.3c0.4,4.4-2.9,8.3-7.3,8.7v0
		c-0.7,0-9.8,0.8-21.2-3.5c-1-0.4-2-0.8-3.1-1.3c-4.8-2.2-9.8-5.4-14.5-9.9c-1.4-1.3-2.8-2.8-4.1-4.4c-13.1,0.6-27.6,1.4-40.7,2.5
		l-5.3-11.3c6.8-1.3,15.6-2.3,27-1.4c0.2,5.5,5.2,8.6,12.2,6.9c1.2-0.3,2.3-0.7,3.5-1.2c-0.9-1.3-1.7-2.7-2.6-4.1
		c-1.7-3-3.3-6.3-4.6-9.9c-0.2-0.7-0.4-1.3-0.5-2c-0.1-1.2,0-2.4,0.4-3.5c0.8-2.1,2.4-3.9,4.7-4.8c2.6-1,5.3-0.5,7.4,1
		c1.3,0.9,2.3,2.2,2.9,3.7c1.1,3,2.4,5.7,3.8,8c0.1,0.1,0.1,0.2,0.2,0.3c1-1.5,1.8-3.1,2.4-4.9c2.6-8-1.6-16.7-13.7-17.8
		c-11.9-1.1-16.6,14.9-47.2,3.5C18.8,5.9,16.8,32.4,25.5,41.8l9.7,20.6H10c-5.5,0-10,4.5-10,10c0,5.5,4.5,10,10,10l41,0
		c3.4,0,6.6-1.8,8.4-4.6c0.5-0.8,0.9-1.7,1.2-2.6c14.8-1.1,31.1-1.9,44.6-2.5c5.3-0.2,10.1-0.4,14.2-0.5c4.2,3,10,5.4,17.2,6.4
		c23,3.4,45.7,1.1,66-5.9c11.1-3.9,16-12,14.9-19C216.5,54.2,215.6,54.8,214.7,55.3z" />
		<ellipse transform="matrix(0.7887 -0.6147 0.6147 0.7887 14.5316 82.2942)" cx="127" cy="20" rx="20" ry="20" />
		<path d="M260.9,42.4c-0.4-0.3-0.8-0.6-1.3-0.8c-0.5-0.2-1-0.4-1.5-0.6c-8.1-3.6-16.2-5.4-24.1-5.3c-6.4,0-12.7,1.3-18.6,3.7
		c-0.3,0.1-0.7,0.3-1,0.4c-2.1,0.9-4,1.9-5.7,2.9c-6.2,3.6-9.9,7.5-11.1,8.8c-1.1,1.3-1.6,2.8-1.5,4.4c0.1,1.6,0.9,3.1,2.1,4.1
		c2.6,2.1,6.3,1.8,8.5-0.7c0.1-0.1,0.2-0.2,0.3-0.3c0.3-0.3,0.7-0.7,1.3-1.3c1.1-1,2.9-2.5,5.4-4.1c1.1-0.7,2.2-1.3,3.3-1.9
		c1.6-0.8,3.2-1.5,4.8-2.1c3.9-1.4,8-2.1,12.2-2.1c5.5,0,11,1.1,16.7,3.3c1.2,0.5,2.4,1,3.7,1.6c1.5,0.7,3.1,0.8,4.6,0.2
		c1.5-0.5,2.7-1.6,3.4-3.1C263.6,47.1,263,44.1,260.9,42.4z" />
		<path d="M100.7,36.2c0-0.1-0.1-0.1-0.1-0.2c-1.7-2.8-3.2-5.9-4.5-9.3c-0.6-1.5-1.7-2.7-3.1-3.4c-1.1-0.5-2.2-0.6-3.3-0.5
		c-0.4,0.1-0.8,0.2-1.3,0.3c-0.3,0.1-0.5,0.2-0.8,0.4c-2.1,1.1-3.4,3.4-3.1,5.9c0.1,0.5,0.2,1,0.4,1.5c1.4,3.8,3.1,7.3,5,10.6
		c0.7,1.1,1.3,2.2,2.1,3.2c1.3,1.9,2.6,3.6,4.1,5.3c0.9,1.1,1.9,2.1,2.9,3.1c3.6,3.5,7.6,6.3,11.9,8.6c1.6,0.8,3.3,1.6,5,2.2
		c9.8,3.7,18,3.5,20.2,3.4c1.7-0.1,3.1-0.9,4.1-2.1c1-1.2,1.5-2.8,1.4-4.4c-0.3-3.3-3.3-5.7-6.5-5.4c-0.1,0-0.2,0-0.5,0
		c-0.4,0-1,0-1.8,0c-1.5-0.1-3.9-0.2-6.7-0.9c-2.5-0.5-4.9-1.3-7.2-2.3c-1.9-0.8-3.7-1.7-5.4-2.8c-2.2-1.4-4.3-3-6.2-4.9
		C104.8,42.1,102.6,39.3,100.7,36.2z" />
	</g>
</svg>