<?xml version="1.0" encoding="utf-8"?>
<!-- Generator: Adobe Illustrator 28.4.1, SVG Export Plug-In . SVG Version: 6.00 Build 0)  -->
<svg version="1.1" id="Layer_1" xmlns="http://www.w3.org/2000/svg" xmlns:xlink="http://www.w3.org/1999/xlink" x="0px"
	y="0px" viewBox="0 0 149.6 227.8" style="enable-background:new 0 0 149.6 227.8;" xml:space="preserve"
	fill="#ffffff">
	<g>
		<ellipse cx="28.4" cy="22.5" rx="22.5" ry="22.5" />
		<path d="M21.3,144.8c0.8,5.7,1.5,12.5,1.5,20c0,13.8-2.2,29.8-9.2,45.4c-2.8,6.3,0,13.7,6.3,16.5c1.7,0.7,3.4,1.1,5.1,1.1
		c4.8,0,9.3-2.8,11.4-7.4c8.7-19.5,11.3-39,11.3-55.3c-4.9,0.1-10.2-0.5-15.8-1.9c0,0,0,0-0.1,0c-4.3-1.1-6.9-5.5-5.8-9.7
		c1.1-4.3,5.5-6.9,9.7-5.8c4,1,7.7,1.4,11.1,1.4c-1.1-11.2-3.1-19.9-4.4-24.6c-0.3-1.8-0.8-3.6-1.4-5.3c-1.8-4.9-3.1-9.9-4-14.8
		c-0.3-0.2-0.6-0.4-0.8-0.6c-9.1-7.4-15.2-16.2-19.1-23.1c-4-7.1-5.8-12.4-5.9-12.7c-1.4-4.2,0.9-8.7,5.1-10.1
		c4.2-1.4,8.7,0.9,10.1,5.1l0,0c0.1,0.3,1.6,4.5,4.6,9.9c1.4,2.4,3,5,5,7.7c0.2-2,0.5-4,0.8-6c1.6-9.7-2.5-20-11.1-25
		c-8.5-5-20.3,0.6-23.4,14.9c-4.2,19.7-3.3,41,3.1,61.7C8.4,134.9,14.7,141.6,21.3,144.8z" />
		<path d="M74.5,128.1c-2.4,3.9-3.2,8-2.6,11.8c4.7-3.8,7.5-7.5,7.8-7.9c0,0,0,0,0,0h0c2.5-3.6,7.5-4.6,11.1-2.1
		c3.7,2.5,4.6,7.5,2.1,11.1c-0.1,0.2-0.9,1.2-2.2,2.8c-1.5,1.8-3.8,4.3-6.9,7c-0.7,0.6-1.4,1.2-2.2,1.8c-1.8,1.4-3.9,2.9-6.2,4.3
		c2.4,3.6,7,5.3,11.3,4c0.9-0.3,1.7-0.7,2.4-1.1c7.2,7.6,11.5,14.4,14.4,19.7l-14.7,31.3c-1.4,3.1-1.2,6.7,0.6,9.6
		c1.8,2.9,5,4.6,8.4,4.6h41.7c5.5,0,10-4.5,10-10c0-5.5-4.5-10-10-10h-25.9l6.7-14.4c9.3-4.9,17.4-19.8,3.8-28.6
		c-26.5-17.1-20.6-26.2-29-34C86.7,120.3,78.8,121,74.5,128.1z" />
		<path d="M73.9,102.1c4.4,0.3,7.8,4,7.5,8.5c-0.2,2.8-1.8,5.2-4,6.5c-1.3,0.7-2.8,1.1-4.4,1c-9.7-0.6-18.2-3.2-25.4-7
		c2.8,8.5,11,14.4,20.3,13.8c11-0.7,19.4-10.2,18.7-21.2c-0.7-11-10.2-19.4-21.2-18.7c-6.5,0.4-12,3.9-15.4,8.9
		C56.3,98.3,64.1,101.5,73.9,102.1z" />
		<path d="M82.5,149.3c2.9-2.5,5.1-4.9,6.6-6.7c1.1-1.3,1.8-2.3,2.1-2.7c1.9-2.7,1.2-6.5-1.6-8.3c-0.6-0.4-1.2-0.7-1.9-0.9
		c-2.4-0.6-5,0.3-6.4,2.4c0,0.1-3.2,4.5-8.9,8.9c-1.2,0.9-2.4,1.8-3.8,2.6c-6.9,4.2-14,6.3-21.5,6.4c-3.8,0-7.7-0.4-11.8-1.5
		c-3.2-0.8-6.5,1.1-7.3,4.3c-0.8,3.2,1.1,6.5,4.3,7.3l0.1,0c5.2,1.3,10.3,1.9,15.3,1.8c3.3-0.1,6.5-0.4,9.7-1.1
		c6-1.3,11.6-3.6,16.9-6.8c1.9-1.2,3.8-2.4,5.6-3.9C80.9,150.7,81.7,150,82.5,149.3z" />
		<path d="M76.3,115.3c1.8-1,2.9-2.8,3-4.9c0.1-1.6-0.4-3.1-1.5-4.3c-1.1-1.2-2.5-1.9-4.1-2c-9.2-0.6-17.4-3.3-24.9-8.5
		c-1.2-0.8-2.4-1.7-3.6-2.7c-3.6-3-6.7-6.2-9.3-9.4c-2.8-3.5-5-6.9-6.5-9.7c-3.2-5.7-4.7-10-4.8-10.2c-0.5-1.5-1.6-2.8-3-3.5
		c-1.4-0.7-3.1-0.8-4.6-0.3c-0.4,0.1-0.7,0.3-1.1,0.5c-2.5,1.4-3.6,4.4-2.7,7.1c0.3,0.9,2.1,5.9,5.7,12.4
		c4.9,8.6,10.9,15.9,17.7,21.7c0.3,0.3,0.6,0.5,0.9,0.8c2.5,2,5.5,4.2,9.1,6.2c6.8,3.8,15.5,7,26.2,7.6
		C74.2,116.1,75.3,115.9,76.3,115.3z" />
	</g>
</svg>