<?xml version="1.0" encoding="utf-8"?>
<!-- Generator: Adobe Illustrator 28.4.1, SVG Export Plug-In . SVG Version: 6.00 Build 0)  -->
<svg version="1.1" id="Layer_1" xmlns="http://www.w3.org/2000/svg" xmlns:xlink="http://www.w3.org/1999/xlink" x="0px"
	y="0px" viewBox="0 0 213.5 140.5" style="enable-background:new 0 0 213.5 140.5;" xml:space="preserve"
	fill="#ffffff">
	<g>
		<ellipse transform="matrix(0.9951 -9.929580e-02 9.929580e-02 0.9951 -1.2577 14.7239)" cx="147.3" cy="20" rx="20"
			ry="20" />
		<ellipse cx="191" cy="112" rx="22.5" ry="22.5" />
		<path d="M120,107.2c2.3,0.7,4.6,1.3,6.8,1.8c0-1.1,0.2-2.2,0.6-3.2C124.9,106.3,122.4,106.8,120,107.2z" />
		<path d="M19,132.3c5.7-4.8,11-8.2,16-10.4l-0.7,2.7c-1.4,5.4,1.9,10.8,7.2,12.1c0.8,0.2,1.6,0.3,2.5,0.3c4.5,0,8.5-3,9.7-7.6
		l3-11.7c4.8,0.3,9.1,1.3,12.8,2.6c3.4,6.1,9.8,11.8,18.1,14.3c20.7,6.5,41.9,7.3,61.7,3.1c14.3-3.1,20-14.9,14.9-23.4
		c-3.9-6.6-10.9-10.5-18.3-11.3c-0.8,2.4-1.8,4.8-3,7.3c1.5,0,2.4-0.1,2.6-0.1h0c4.4-0.4,8.3,2.8,8.7,7.2c0.4,4.4-2.8,8.3-7.2,8.7
		c-0.4,0-5.9,0.6-14-0.2c-7.9-0.8-18.4-2.8-28.9-8.1c-1.3-0.6-2.5-1.3-3.8-2.1c-5-3-9.9-6.8-14.3-11.6c-0.9-1-1.8-2.1-2.7-3.2
		c-5.5-2.5-12.5-4.9-20.8-5.9l0.4-1.5l17.9,4.5c0.4,0.4,0.8,0.8,1.1,1.1c-0.2-0.3-0.5-0.7-0.7-1c-1.8-2.4-3.4-5.1-4.9-8
		c-0.7-1.4-1-3-0.9-4.4c0.3-2.6,1.8-5,4.3-6.3c3.9-2,8.8-0.5,10.8,3.4c1.8,3.5,3.9,6.6,6.2,9.2c1.7,2,3.6,3.8,5.5,5.4
		c1-1.4,2-3.1,2.9-5c8.5-18.2,17.3-21.4,24.6-23.6c-0.5-1-1-2-1.5-2.9c-1.3-2.2-2.5-3.9-3.5-5.1c-0.1-0.1-0.1-0.1-0.2-0.2
		c-0.5-0.6-0.9-1-1.1-1.3c-0.1-0.1-0.2-0.2-0.2-0.3v0c-3.2-3-3.4-8.1-0.4-11.3c3-3.2,8.1-3.4,11.3-0.4l0,0c0.2,0.2,1.4,1.3,2.9,3.2
		c1.7,2,3.9,5,5.9,8.9c3.8-7.5,0.7-14.5-5.5-17.9c-2.3-1.3-4.6-2.1-6.9-2.4c-6.6-2.2-15.9-0.5-22.1,4.5c-5.8,4.7-6.8,10.6-3.1,14.6
		C93.6,70.2,83.7,74.3,78.7,77c0,0-0.1,0-0.1,0.1L58,71.9c-2.6-0.7-5.3-0.3-7.6,1.1c-2.3,1.4-3.9,3.6-4.6,6.1l-4.2,16.8
		c-12,2.3-25,8-37.6,19c-4.8,4.1-5.4,11.4-1.2,16.2c2.3,2.6,5.5,4,8.7,4C14.2,135.1,16.8,134.1,19,132.3z" />
		<path d="M147,86.3c0.2-6.8-0.9-13.4-3.3-19.8c-0.6-1.7-1.4-3.2-2.1-4.7c-1.9-3.8-4-6.8-5.7-8.9c-1.5-1.8-2.7-3.1-3.3-3.7
		c-1.2-1.1-2.7-1.7-4.3-1.6c-1.6,0.1-3.1,0.7-4.2,1.9c-2.2,2.5-2.1,6.3,0.3,8.5c0.1,0.1,0.2,0.2,0.3,0.3c0.3,0.3,0.7,0.7,1.2,1.4
		c0.2,0.2,0.4,0.5,0.6,0.7c0.9,1.2,2.1,2.8,3.3,4.8c0.6,1.1,1.2,2.2,1.7,3.3c2.5,5.5,3.7,11.3,3.5,17.3c-0.2,6.4-2,12.8-5.3,19.4
		c-0.1,0.3-0.3,0.5-0.4,0.8c-0.5,1-0.7,2.1-0.6,3.3c2,0.4,4,0.6,5.8,0.8c2.3,0.2,4.4,0.3,6.1,0.3c1.2-2.5,2.3-5,3.2-7.4
		C145.7,97.5,146.9,91.8,147,86.3z" />
		<path d="M110.4,105.5c-3.5-1.8-6.7-3.8-9.5-6.2c-1.8-1.5-3.6-3.2-5.1-4.9c-2.7-3.1-5.1-6.5-7.1-10.4c-0.7-1.4-2-2.5-3.5-3
		c-1.5-0.5-3.2-0.4-4.6,0.4c-1.8,0.9-3,2.7-3.2,4.8c-0.1,1.1,0.1,2.3,0.6,3.3c1.9,3.6,3.9,6.8,6.2,9.7c1,1.3,2.1,2.6,3.2,3.7
		c0.2,0.2,0.4,0.4,0.6,0.6c0.4,0.5,0.9,0.9,1.3,1.3c3.4,3.4,6.9,6,10.2,8.1c2,1.3,3.8,2.3,5.6,3.2c8.4,4.2,17.8,6.9,28.2,7.9
		c7.4,0.7,12.6,0.3,13.6,0.2c2.8-0.3,5.1-2.5,5.4-5.4c0-0.4,0-0.8,0-1.2c-0.2-1.6-0.9-3-2.2-4c-1.2-1-2.8-1.5-4.4-1.3
		c-0.1,0-1.5,0.1-3.8,0.1c-0.7,0-1.5,0-2.4,0c-1.5,0-3.2-0.1-5.1-0.3c-1.5-0.1-3.2-0.4-5-0.7c-0.8-0.1-1.5-0.3-2.3-0.4
		c-3.5-0.7-7.4-1.7-11.3-3.2C113.9,107.2,112.2,106.4,110.4,105.5z" />
	</g>
</svg>