<?xml version="1.0" encoding="utf-8"?>
<!-- Generator: Adobe Illustrator 28.4.1, SVG Export Plug-In . SVG Version: 6.00 Build 0)  -->
<svg version="1.1" id="Layer_1" xmlns="http://www.w3.org/2000/svg" xmlns:xlink="http://www.w3.org/1999/xlink" x="0px"
	y="0px" viewBox="0 0 220.5 153.2" style="enable-background:new 0 0 220.5 153.2;" xml:space="preserve"
	fill="#ffffff">
	<g>
		<ellipse transform="matrix(0.9989 -4.645519e-02 4.645519e-02 0.9989 -0.7909 5.9589)" cx="127.8" cy="20" rx="20"
			ry="20" />
		<ellipse cx="198" cy="124.8" rx="22.5" ry="22.5" />
		<path d="M13.9,146.4c20.9-4.5,40.7-5.7,55.5-5.7c3,0,5.7,0,8.3,0.1c-0.7,3.3,0.3,6.8,3,9.3c1.9,1.8,4.4,2.7,6.8,2.7
		c2.7,0,5.3-1.1,7.3-3.2l1.5-1.6c20.1,6,40.7,6.6,59.9,2.6c14.3-3.1,20-14.9,14.9-23.4c-5.1-8.6-15.3-12.7-25-11.1
		c-6.1,1.1-12.5,2.7-19.1,3.8c5.2,1.7,10.3,2.5,14.6,3c6.2,0.6,10.5,0.3,10.9,0.2h0c4.4-0.4,8.3,2.8,8.7,7.2
		c0.4,4.4-2.8,8.3-7.2,8.7c-0.4,0-5.9,0.6-14-0.2c-7.7-0.8-17.8-2.7-28-7.7c-0.3-0.1-0.6-0.3-0.9-0.4c-1.3-0.6-2.5-1.3-3.8-2.1
		c-4.1-2.4-8.1-5.4-11.9-9c-0.3-0.3-0.5-0.5-0.8-0.8c-0.6-0.6-1.1-1.1-1.7-1.7c-3.6-0.4-7.1-0.1-10.3,0.9c-3.8-0.2-8.3-0.3-13.3-0.3
		c-16,0-37.4,1.2-60.3,6.2c-6.2,1.3-10.2,7.4-8.8,13.7c1.2,5.4,5.9,9.1,11.2,9.1C12.3,146.6,13.1,146.5,13.9,146.4z" />
		<path d="M133.1,99.9c-1.5-3.6-5-6-9-6.1l-22.7-0.6c2.4-5,5.8-10.9,11-17.5c-0.2-0.4-0.4-0.8-0.6-1.1c-5.5-10.8-5.7-20-5.7-20.7h0
		c-0.1-3.4,2.1-6.4,5.1-7.6c0.9-0.3,1.8-0.5,2.8-0.5c4.4-0.1,8,3.4,8.1,7.9h0c0,0.1,0,0.2,0,0.4c0,0.4,0.1,0.9,0.2,1.7
		c0.2,1.5,0.6,3.7,1.5,6.2c0.1,0.2,0.1,0.4,0.2,0.7c0.7,2,1.7,4.3,3,6.5c0.2-0.6,0.5-1.3,0.6-2c1.1-4.6,0.5-9.7-1.3-14
		c-0.3-3.1-1.6-6.2-3.8-9.1c-5-6.6-14.5-8.3-22.2,0.5c-7.5,8.7,2.9,21.5-23.5,38.8c-21.1,13.8-0.7,30.5,11.8,29.2
		c0.2,0.1,0.5,0.1,0.7,0.2c-0.1-0.1-0.1-0.2-0.2-0.3c-2.1-2.8-4.1-5.9-5.8-9.3c-0.6-1.2-0.9-2.6-0.9-3.9c0-0.2,0-0.4,0-0.6
		c0.3-2.6,1.8-5,4.3-6.3c2.8-1.4,6-1.1,8.4,0.7c1,0.7,1.8,1.6,2.4,2.8c0.5,1,1,1.9,1.6,2.8c5.2,8.6,12,14.1,19.3,17.8
		c1.7,0.9,3.5,1.6,5.3,2.3l7.6-8.1C133.8,107.7,134.6,103.5,133.1,99.9z" />
		<path d="M117.4,118.2c-8.2-4.2-14.5-9.9-19.3-17.2c-0.9-1.4-1.7-2.8-2.5-4.3c-0.7-1.4-2-2.5-3.5-3c-1.5-0.5-3.2-0.4-4.6,0.4
		c-1.8,0.9-3,2.7-3.2,4.8c-0.1,1.1,0.1,2.3,0.6,3.3c1.9,3.6,3.9,6.8,6.2,9.6c0.3,0.4,0.6,0.7,0.9,1.1c1.4,1.7,2.8,3.2,4.2,4.6
		c0.2,0.2,0.4,0.4,0.6,0.5c0.4,0.4,0.8,0.7,1.1,1.1c2.8,2.6,5.7,4.8,8.5,6.5c2,1.3,3.8,2.3,5.6,3.2c0.5,0.2,1,0.5,1.5,0.7
		c8,3.8,17,6.3,26.7,7.2c7.4,0.7,12.6,0.3,13.6,0.2c2.8-0.3,5.1-2.5,5.4-5.4c0-0.4,0-0.8,0-1.2c-0.2-1.6-0.9-3-2.2-4
		c-1.2-1-2.8-1.5-4.4-1.3c-0.2,0-4.7,0.4-11.3-0.2c-4.9-0.5-11.6-1.6-18.6-4.3c-0.2-0.1-0.4-0.2-0.6-0.2
		C120.5,119.7,119,119,117.4,118.2z" />
		<path d="M151,101.3c2.7,0,5.1-1.8,5.8-4.5c0.4-1.6,0.2-3.2-0.6-4.5c-0.8-1.4-2.1-2.4-3.7-2.8c-7.6-2-13.7-5-18.8-9.3
		c-3.1-2.6-5.7-5.6-7.8-9c-1.3-2.1-2.4-4.3-3.4-6.7c-0.2-0.6-0.5-1.3-0.7-2c-0.9-2.8-1.3-5.1-1.6-6.6c-0.1-0.8-0.2-1.4-0.2-1.8
		c0-0.2,0-0.3,0-0.5c-0.1-3.3-2.7-5.9-6.1-5.9c-1.6,0-3.1,0.7-4.2,1.8c-1.1,1.1-1.7,2.7-1.7,4.3c0.1,2.2,0.7,9.9,5,18.9
		c0.1,0.3,0.3,0.6,0.4,0.9c0.1,0.1,0.1,0.2,0.2,0.4c3.1,5.9,7.2,11.1,12.3,15.3c6.4,5.4,14.3,9.3,23.5,11.7
		C150,101.2,150.5,101.3,151,101.3z" />
	</g>
</svg>