<?xml version="1.0" encoding="utf-8"?>
<!-- Generator: Adobe Illustrator 28.4.1, SVG Export Plug-In . SVG Version: 6.00 Build 0)  -->
<svg version="1.1" id="Layer_1" xmlns="http://www.w3.org/2000/svg" xmlns:xlink="http://www.w3.org/1999/xlink" x="0px" y="0px"
	 viewBox="0 0 199 147.3" style="enable-background:new 0 0 199 147.3;" xml:space="preserve">
<style type="text/css">
	.st0{fill:#FFFFFF;}
</style>
<g id="Layer_00000039101796792175250230000008278829796173585305_">
	<path id="Layer" class="st0" d="M38.7,117.6c-4,10.4-15.5,15.5-25.8,11.6c-10.4-4-15.5-15.5-11.6-25.9c4-10.3,15.5-15.5,25.9-11.5
		C37.5,95.8,42.6,107.3,38.7,117.6z"/>
	<path id="Layer_00000156583688266814840440000000526384395157405342_" class="st0" d="M73.6,37.7C65.2,46.9,51,47.5,41.8,39
		c-9.1-8.4-9.7-22.6-1.3-31.8C49-1.9,63.2-2.5,72.3,6C81.5,14.4,82,28.6,73.6,37.7z"/>
	<path id="Layer_00000075133050120717678720000006014994238472650636_" class="st0" d="M158.9,94.4c1.2-2.8,2.5-5.1,3.5-6.9
		c2-1.9,3.4-4.6,4.1-7.7c0.1-0.6,0.2-1.2,0.3-1.9c0.9-7.5-1.7-17-8.5-24.1c-14.7-15.8-32.8-27-52.1-33.1c-14-4.4-24.7,3.1-24.5,12.9
		c0.2,10,7.1,18.7,16.3,22c0.7,0.3,1.3,0.5,2,0.8c-3-11.1-7.3-15.7-7.4-15.9c-3-3.1-3-8.1,0.1-11.2s8.2-3.1,11.3,0
		c1.1,1,11.1,12,14.2,36.8c6,4.3,11.6,9.3,16.6,15.3c0.5,0.6,1.1,1.2,1.7,1.8c-0.1,0.2-0.2,0.4-0.3,0.7c-3.8,8.3-7.9,19.4-8,31.9
		c0,1.1,0,2.1,0.1,3.2h-13.5l8.3-23.4c0.3-0.9,0.5-1.9,0.6-2.9c2.6-6.6,0.7-16.8-5.1-22c0.3,3.3,0.4,6.8,0.4,10.5c0,0.9,0,1.7,0,2.6
		c0,1.7-0.1,3.4-0.2,5.1c-0.2,4.3-3.7,7.6-8,7.6c-0.1,0-0.3,0-0.4,0c-3.2-0.2-5.9-2.3-7-5.1c-0.4-1-0.6-2.2-0.6-3.3
		c0.1-2.4,0.2-4.7,0.2-6.9c0-4.5-0.2-8.5-0.6-12.2c-1.5,0.7-3,1.5-4.5,2.6C70.4,90.5,63.9,83,52.7,87.7c-11.4,4.7-12.7,9.5-9.5,16.7
		c0.5,0.9,1,1.8,1.7,2.6c2.1,3.3,6.1,6.3,10.3,8.3c-0.1-1-0.3-2-0.6-2.9c-0.6-2.6-1.7-4.9-2.4-6.3c-0.4-0.7-0.7-1.2-0.8-1.3l0,0
		c-2.4-3.6-1.5-8.4,1.9-10.9c0.1-0.1,0.2-0.1,0.3-0.2c1.9-1.3,4.1-1.6,6.2-1.2c1.9,0.5,3.7,1.6,4.9,3.4c0.2,0.3,2.1,3.2,3.9,7.8
		c0.5,1.4,1.1,2.9,1.5,4.6c0.7,2.4,1.1,5.2,1.2,8.1c3.9-1.8,6.7-5.2,7.2-9.3c0.1-0.8,0.2-1.6,0.1-2.3c8.6-3.1,15.9-4.5,21.9-5.2
		l-9.3,26.1c-1,3-0.6,6.4,1.3,9.1c1.9,2.6,4.9,4.2,8.2,4.2h38c0.6,0,1.2-0.1,1.8-0.2c0.6,0.1,1.2,0.2,1.8,0.2c20.7,0,44,0,44,0
		c6.9,0,12.5-5.6,12.5-12.5c0-6.9-5.6-12.5-12.5-12.5c0,0-15.9,0-33,0C153.6,107.7,156.1,100.2,158.9,94.4L158.9,94.4z"/>
	<path id="Layer_00000139283593864134363400000013934359481810921883_" class="st0" d="M69.4,117.2c-0.1-2.6-0.4-5.3-1.1-8
		c-0.4-1.6-0.9-3.2-1.5-4.8c-1.6-3.8-3.2-6.5-3.8-7.4c-0.9-1.4-2.5-2.4-4.1-2.6c-1.5-0.2-3,0.2-4.2,1c-2.7,1.8-3.5,5.5-1.7,8.3
		l0.1,0.1c0.1,0.2,0.4,0.6,0.8,1.4c0.9,1.5,2.1,4.3,2.8,7.4c0.3,1.2,0.5,2.4,0.6,3.6c0.1,1.3,0.1,2.6-0.1,3.8
		c-0.4,3.1-1.5,5.5-3.5,7.9c-2.6,3-6.5,5.6-11.6,7.8c-1.5,0.6-2.6,1.7-3.3,3.2c-0.6,1.5-0.6,3.1,0,4.6c0.8,2,2.6,3.4,4.8,3.7
		c1,0.1,2.1,0,3-0.4c7-2.9,12.5-6.7,16.3-11.2c4.3-5.1,5.7-10.4,6.2-13.9C69.3,120.2,69.4,118.7,69.4,117.2L69.4,117.2z"/>
	<path id="Layer_00000129884729520363154790000002817737485984883903_" class="st0" d="M94.1,39.2c0.1,0.1,0.2,0.3,0.3,0.4
		c1.6,2,5.4,7.5,7.9,17.7c0.8,3.2,1.5,6.8,2,11c0.4,3.8,0.7,8.1,0.7,12.9c0,2.1,0,4.2-0.1,6.4c0,0.2,0,0.4-0.1,0.6
		c0,1.6,0.5,3.1,1.6,4.3c1.1,1.2,2.5,1.9,4.1,2c0.1,0,0.2,0,0.3,0c3.2,0,5.9-2.5,6-5.7c0.1-2,0.2-4,0.2-5.9c0-0.6,0-1.2,0-1.7
		c0-4.4-0.2-8.4-0.5-12.2c-0.2-1.5-0.4-2.9-0.6-4.4c-3.3-24-13.1-33.7-13.3-33.9c-1.2-1.1-2.7-1.7-4.3-1.7c-1.6,0-3.1,0.6-4.2,1.7
		C91.8,33,91.8,36.8,94.1,39.2L94.1,39.2z"/>
</g>
</svg>
