<?xml version="1.0" encoding="utf-8"?>
<!-- Generator: Adobe Illustrator 28.4.1, SVG Export Plug-In . SVG Version: 6.00 Build 0)  -->
<svg version="1.1" id="Layer_1" xmlns="http://www.w3.org/2000/svg" xmlns:xlink="http://www.w3.org/1999/xlink" x="0px"
	y="0px" viewBox="0 0 117.2 112.8" style="enable-background:new 0 0 117.2 112.8;" xml:space="preserve"
	fill="#ffffff">
	<g>
		<ellipse transform="matrix(0.7464 -0.6655 0.6655 0.7464 -45.3896 32.5378)" cx="20" cy="75.8" rx="20" ry="20" />
		<path d="M97.6,12.1c1.2-5.4-2.3-10.7-7.7-11.9C84.5-0.9,79.2,2.5,78,7.9l-9.7,45c-0.6,2.8,0,5.8,1.8,8.1l3.9,5.2
		c1.4-4.3,2.2-9.4,2.1-15.6c-0.1-4.4,3.4-8.1,7.8-8.1c2.6,0,4.9,1.1,6.4,3L97.6,12.1z" />
		<path d="M112.8,84.5L92,56.7c-0.5,7.8-2.3,14.5-4.9,20.3c-0.6,1.4-1.3,2.6-2,3.9l2.5,3.4c-1.7,0.4-3.4,0.8-5.4,1.2
		c-2.3,3.3-4.9,6.2-7.4,8.5c-9,8.2-17.7,10.8-18.4,11.1l0,0c-3.9,1.2-8-0.8-9.6-4.4c-0.1-0.3-0.3-0.7-0.4-1
		c-1.3-4.2,1.1-8.7,5.4-9.9l0,0c0.1,0,0.2-0.1,0.3-0.1c0.3-0.1,0.9-0.3,1.6-0.6c1.1-0.5,2.6-1.2,4.3-2.3c0.4-0.3,0.9-0.5,1.3-0.9
		c1.1-0.8,2.3-1.6,3.5-2.6c-0.1,0-0.2-0.1-0.3-0.1c-6.2-2.2-15.1-0.2-20,4.5c-1,0.9-1.7,1.9-2.2,2.9c-2.2,2.2-3.9,5.2-4.7,8.8
		c-2,8.1,2.6,13.2,14.3,13.6c11.5,0.4,17-5.3,47.2-0.5c13.2,2.1,18.9-4.1,19.9-11.7c0.1-0.3,0.6-4-0.4-7.9
		C115.7,88.5,112.8,84.5,112.8,84.5z" />
		<path d="M60.5,87.5c-2.4,1.6-4.5,2.7-5.9,3.3c-0.8,0.3-1.3,0.6-1.7,0.7c-0.2,0.1-0.3,0.1-0.4,0.1c-3.1,0.9-4.9,4.2-4,7.5
		c0.2,0.7,0.5,1.3,1,1.9c0.5,0.7,1.2,1.3,1.9,1.7c1.4,0.8,3,0.9,4.6,0.5c2.2-0.7,9.8-3.5,17.6-10.6c2.2-2,4.2-4.2,6-6.6
		c1.6-2.1,3.1-4.4,4.3-6.8c0.5-1,1-1.9,1.5-2.9c3-6.6,4.6-13.9,4.9-21.9c0-1.3,0.1-2.6,0-3.9c0-0.5-0.1-1-0.2-1.5
		c0-0.1-0.1-0.3-0.1-0.4c-0.9-2.4-3.2-4-5.7-4c-1.6,0-3.1,0.7-4.2,1.8c-1.1,1.2-1.7,2.7-1.7,4.3c0.1,6.5-0.8,12.3-2.6,17.5
		c-0.4,1.1-0.8,2.1-1.2,3.1c-2.2,5-5.4,9.3-9.5,12.9c-1.1,1-2.2,1.8-3.4,2.7C61.1,87,60.8,87.3,60.5,87.5z" />
		<path d="M131.9,91.6" />
	</g>
</svg>