<?xml version="1.0" encoding="utf-8"?>
<!-- Generator: Adobe Illustrator 28.4.1, SVG Export Plug-In . SVG Version: 6.00 Build 0)  -->
<svg version="1.1" xmlns="http://www.w3.org/2000/svg" xmlns:xlink="http://www.w3.org/1999/xlink" x="0px" y="0px"
	 viewBox="0 0 512 512" style="enable-background:new 0 0 512 512;" xml:space="preserve">
<style type="text/css">
	.st0{fill:#FFFFFF;stroke:#FFFFFF;stroke-miterlimit:10;}
	.st1{display:none;}
</style>
<g id="Layer_1">
	<path class="st0" d="M305.47,323.37H204.64c-6.6,0-12-5.4-12-12V150.24c0-6.6,5.4-12,12-12h100.83c6.6,0,12,5.4,12,12v161.14
		C317.47,317.97,312.07,323.37,305.47,323.37z"/>
	<path class="st0" d="M190.95,142.39L69.37,213.02c-13.13,7.63-17.67,24.67-10.09,37.88l0,0c7.58,13.21,24.52,17.78,37.65,10.15
		l121.58-70.63c13.13-7.63,17.67-24.67,10.09-37.88l0,0C221.02,139.34,204.08,134.77,190.95,142.39z"/>
	<path class="st0" d="M442.63,213.11l-121.74-70.72c-13.13-7.63-30.07-3.06-37.65,10.15v0c-7.58,13.21-3.04,30.25,10.09,37.88
		l121.74,70.72c13.13,7.63,30.07,3.06,37.65-10.15l0,0C460.3,237.78,455.76,220.74,442.63,213.11z"/>
	<path class="st0" d="M192.77,308.79l-61.68,155.03c-6.64,16.69,1.5,35.81,18.09,42.5l0,0c16.59,6.68,35.6-1.51,42.24-18.2
		l61.68-155.03c6.64-16.69-1.5-35.81-18.09-42.5l0,0C218.42,283.91,199.41,292.1,192.77,308.79z"/>
	<path class="st0" d="M257.88,332.85l61.07,155.27c6.58,16.72,25.55,24.98,42.17,18.37l0,0c16.62-6.62,24.83-25.71,18.25-42.42
		L318.3,308.79c-6.58-16.72-25.55-24.98-42.17-18.37l0,0C259.51,297.04,251.3,316.13,257.88,332.85z"/>
	<ellipse class="st0" cx="255.9" cy="64.04" rx="61.57" ry="61.95"/>
</g>
<g id="Layer_2" class="st1">
</g>
</svg>
