<?xml version="1.0" encoding="utf-8"?>
<!-- Generator: Adobe Illustrator 28.4.1, SVG Export Plug-In . SVG Version: 6.00 Build 0)  -->
<svg version="1.1" id="Layer_1" xmlns="http://www.w3.org/2000/svg" xmlns:xlink="http://www.w3.org/1999/xlink" x="0px"
	y="0px" viewBox="0 0 77.4 87.8" style="enable-background:new 0 0 77.4 87.8;" xml:space="preserve" fill="#ffffff">
	<path d="M26.5,48.8l-8,10c-0.7,0.9-0.8,2.3-0.2,3.8c0.8,1.9,2,3.5,3.6,4.7c3.4,2.7,7.6,3.4,9.1,1.6l8-10
	C34.1,56.7,29.8,53.2,26.5,48.8z" />
	<path d="M41.5,81.1l0.6-0.8l0,0C41.9,80.5,41.7,80.8,41.5,81.1z" />
	<path
		d="M31.3,85.4c-5.8,0-12.5-2.6-18.1-7.2c-4.7-3.6-8.2-8.5-10.2-14C1.2,59,1.7,54.4,4.3,51c0.2-0.3,0.4-0.5,0.7-0.7H5l-0.6,0.8
	l-1.9,2.3C-3,60.1,1,72.3,11.2,80.6c5.7,4.6,12.3,7.2,18.1,7.2c4.4,0,8-1.5,10.3-4.3l1.9-2.4C39.3,83.9,35.6,85.4,31.3,85.4z" />
	<path d="M13.8,77.4c5.7,4.6,12.1,7,17.5,7c4,0,7.3-1.3,9.5-3.9c3.8-4.7,2.6-12.3-2.4-19.1l-6.6,8.1c-0.9,1-2.2,1.5-3.5,1.5
	c-2.6-0.2-5-1.2-7-2.9c-1.7-1.3-3.1-3.1-3.9-5.2c-0.7-1.9-0.6-3.6,0.4-4.8l6.6-8.1c-3.1-1.4-6.4-2.1-9.7-2.2c-3.9,0-7.3,1.3-9.5,3.9
	C0.1,57.9,3.9,69.5,13.8,77.4z" />
	<path d="M71.5,0c-1.2,0-2.3,0.3-3.2,1L28.2,28c-3.8,2.5-5.7,6.9-4.9,11.4c0.9,4.9,4.2,10.3,9.5,14.5c5,4,10.6,6.1,15.5,6.2h0.2
	c4.7,0,8.8-2.9,10.6-7.2L77,8c1.2-3-0.2-6.4-3.2-7.6C73.1,0.1,72.3,0,71.5,0z M55.2,55.5L55.2,55.5c-6.2-1.2-12-3.8-17-7.7
	c-6.7-5.4-10.5-12.4-11.4-15.8c-0.1-0.3,0.1-0.6,0.4-0.6c0.3-0.1,0.6,0.1,0.6,0.4c0.9,3.3,4.6,10.1,11.1,15.3
	c4.8,3.8,10.5,6.4,16.5,7.5c0.3,0,0.5,0.3,0.5,0.5S55.5,55.5,55.2,55.5L55.2,55.5z M74.2,11c-0.4,0.1-0.8,0.2-1.2,0.1
	c-1.6-0.1-3.1-0.6-4.3-1.7C66.8,8,65.8,5.8,66.2,4c0-0.3,0.3-0.5,0.6-0.4c0.3,0,0.5,0.3,0.4,0.6l0,0c-0.2,1.4,0.6,3.2,2.2,4.5
	c1.2,1.1,2.9,1.6,4.6,1.3c0.3-0.1,0.6,0.1,0.6,0.4C74.6,10.7,74.5,11,74.2,11L74.2,11L74.2,11z" />
</svg>