<?xml version="1.0" encoding="utf-8"?>
<!-- Generator: Adobe Illustrator 28.4.1, SVG Export Plug-In . SVG Version: 6.00 Build 0)  -->
<svg version="1.1" id="Layer_1" xmlns="http://www.w3.org/2000/svg" xmlns:xlink="http://www.w3.org/1999/xlink" x="0px"
	y="0px" viewBox="0 0 172.3 269.1" style="enable-background:new 0 0 172.3 269.1;" xml:space="preserve"
	fill="#ffffff">
	<path d="M169.3,258.8L130,247.2c0,0-13.6-7.9-13.4-22.2c0.2-14.3,7.5-19.5,7.5-19.5s10.2-10.9,3.9-30.9L103.7,21
	c0,0-0.7-22.7-17.3-20.9C69.8-1.7,68.5,21,68.5,21L44.2,174.6c-6.4,20,3.9,30.9,3.9,30.9s7.3,5.2,7.5,19.5s-13.4,22.2-13.4,22.2
	L2.9,258.8c0,0-2.7,0.9-2.9,5.4s5.7,4.9,5.7,4.9H86h0.3h80.3c0,0,5.9-0.4,5.7-4.9C172,259.7,169.3,258.8,169.3,258.8z" />
</svg>