<?xml version="1.0" encoding="utf-8"?>
<!-- Generator: Adobe Illustrator 28.4.1, SVG Export Plug-In . SVG Version: 6.00 Build 0)  -->
<svg version="1.1" id="Layer_1" xmlns="http://www.w3.org/2000/svg" xmlns:xlink="http://www.w3.org/1999/xlink" x="0px"
	y="0px" viewBox="0 0 70.3 82.2" style="enable-background:new 0 0 70.3 82.2;" xml:space="preserve" fill="#ffffff">
	<path d="M53,64.1c-8.3,0-15.4,4.8-17,11.3c-0.1,0.5-0.5,0.7-1,0.6c-0.3-0.1-0.6-0.3-0.6-0.6c-1.6-6.6-8.7-11.3-17-11.3
	C7.8,64.1,0,70.4,0,78.1c0,1.5,11.7,4.1,35.2,4.1s35.2-2.7,35.2-4.1C70.3,70.3,62.5,64.1,53,64.1z" />
	<path d="M35.1,74.5c1.5-5.3,6.5-9.4,12.8-10.9l-1.5-39.2c-1.7,0.8-3.8,0.7-5.4-0.2c-3.2-1.6-4.3-5.1-5-7.5c-0.3-0.8-0.7-2.1-0.9-2.1
	c-0.3,0.1-0.7,1.3-0.9,2.1c-0.7,2.3-1.8,5.9-5,7.5c-1,0.5-2,0.8-3.1,0.8c-0.8,0-1.6-0.2-2.3-0.5l-1.5,39.2
	C28.6,65.1,33.6,69.2,35.1,74.5z" />
	<path d="M28.8,23.2c2.8-1.4,3.8-4.6,4.5-6.9c0.5-1.7,0.9-2.9,1.9-2.9s1.3,1.2,1.9,2.9c0.7,2.3,1.7,5.4,4.5,6.9
	c1.4,0.9,3.2,0.9,4.7,0.2c1.7-1,2.6-3.1,2.7-6.1c0.3-4.9-1.3-9.7-4.6-13.4c-5-5.1-13.2-5.2-18.3-0.3c-0.1,0.1-0.2,0.2-0.3,0.3
	c-3.2,3.7-4.9,8.5-4.6,13.4c0.1,3,1.1,5.2,2.7,6.1C25.5,24.2,27.3,24.1,28.8,23.2z" />
</svg>