<?xml version="1.0" encoding="utf-8"?>
<!-- Generator: Adobe Illustrator 28.4.1, SVG Export Plug-In . SVG Version: 6.00 Build 0)  -->
<svg version="1.1" id="Layer_1" xmlns="http://www.w3.org/2000/svg" xmlns:xlink="http://www.w3.org/1999/xlink" x="0px" y="0px"
	 viewBox="0 0 155.6 219.7" style="enable-background:new 0 0 155.6 219.7;" xml:space="preserve">
<style type="text/css">
	.st0{fill:#FFFFFF;}
</style>
<g>
	<g>
		<path class="st0" d="M5.1,95.1c6-0.8,13.8,5.8,17.9,13.7c4.1,7.7,2.8,13.8,2.8,13.8s2.6,2,3.3,5.9c0.7,4.6,1.2,5.4,1.1,5.3
			l1.3,0.1c0,0,1.9-19.7-2.6-43.6c-1.6-8.5-5.9-19.1-8.8-27.1c-2.7-7.8-4.5-15.7-5.9-23.9c-1.6-9.2-2.7-17.6-2.7-23.8
			c0-7.2,4.4-10.2,6.5-10.2c2.2,0,6.6,0.7,9.2,5.3c1.8,3.1,3.4,7,4.6,11.2c1.5,4.9,2.6,7.4,6.2,15.1c2.7,5.9,2.9,7.9,4,11.3
			c1.6,5.1,4.3,10.6,6.3,14c4.3,7,5.8,11.1,7.3,12.5c2.1,1.9,7.9-0.2-0.1-19.4C39.8,17.2,37.7,14.7,39.4,4.7
			c0.7-3.9,5.4-4.8,7.9-4.7c5.6,0.3,11.3,11.1,17.1,20.7c2.4,4,6.4,7.2,8.3,11.3c5.3,11.5,10,22.9,10.2,23c0,0,5.4-5.3,12-3.3
			c10.5,3.2,12.7,17.7,12.5,17.8c0,0,6.2-6,11.3-4.3c9.9,3.3,8.2,12.4,16.6,26c3.9,6.3,4.6,11.3,5.2,16.7c1.6,15.1,6.6,27.4,9,46.6
			c1.2,9.9,0.4,18.8,3.3,23.6c2.3,3.7,4.2,7.7,1.3,15c-8.8,21.9-54.1,31.2-69.4,24.5c-8-3.5-10.8-11.4-17.8-13.9
			c-2.8-1-11.2-3.7-19.7-8.6c-7.9-4.6-15.5-11.4-22.7-16.8c-4.9-3.7-9.4-6.9-11.5-10.2c-3.2-4.9-2.3-10.7-4-15.9
			c-3.1-9.5-7.2-18.2-8.8-22.5c-1-2.6,1.7-17.4,1.7-17.4S-3.9,96.3,5.1,95.1"/>
	</g>
</g>
</svg>
