<?xml version="1.0" encoding="utf-8"?>
<!-- Generator: Adobe Illustrator 28.4.1, SVG Export Plug-In . SVG Version: 6.00 Build 0)  -->
<svg version="1.1" id="Layer_1" xmlns="http://www.w3.org/2000/svg" xmlns:xlink="http://www.w3.org/1999/xlink" x="0px"
    y="0px" viewBox="0 0 432 462.8" style="enable-background:new 0 0 432 462.8;" xml:space="preserve" fill="#ffffff">
    <g>
        <path d="M348,118.8c-46.4,0.1-83.9,37.6-84,84v96c0,46.4,37.6,84,84,84s84-37.6,84-84v-96C431.9,156.4,394.4,118.8,348,118.8z
		 M320,154.8c0-6.6,5.4-12,12-12h32c6.6,0,12,5.4,12,12v32c0,6.6-5.4,12-12,12h-32c-6.6,0-12-5.4-12-12V154.8z M376,314.8
		c0,6.6-5.4,12-12,12h-32c-6.6,0-12-5.4-12-12v-32c0-6.6,5.4-12,12-12h32c6.6,0,12,5.4,12,12V314.8z M374.8,242.9
		c-4.5,14.8-20.2,23.1-35,18.6s-23.1-20.2-18.6-35s20.2-23.1,35-18.6c7.1,2.2,13.1,7.1,16.5,13.6C376.2,228.2,377,235.8,374.8,242.9
		L374.8,242.9z" />
        <path
            d="M338.2,182.3c2,1,4.4,0.2,5.4-1.8c0,0,0,0,0,0l4.4-8.8l4.4,8.8c1,2,3.4,2.8,5.4,1.8s2.8-3.4,1.8-5.4l-8-16
		c-1-2-3.4-2.8-5.4-1.8c-0.8,0.4-1.4,1-1.8,1.8l-8,16C335.4,179,336.2,181.4,338.2,182.3C338.2,182.3,338.2,182.3,338.2,182.3z" />
        <path
            d="M357.8,287.2c-2-1-4.4-0.2-5.4,1.8c0,0,0,0,0,0l-4.4,8.8l-4.4-8.8c-1-2-3.4-2.8-5.4-1.8s-2.8,3.4-1.8,5.4l8,16
		c1,2,3.4,2.8,5.4,1.8c0.8-0.4,1.4-1,1.8-1.8l8-16C360.6,290.6,359.8,288.2,357.8,287.2C357.8,287.2,357.8,287.2,357.8,287.2z" />
        <path d="M348,229.8c2.2,0,4-1.8,4-4v-3c0-2.2-1.8-4-4-4s-4,1.8-4,4v3C344,228,345.8,229.8,348,229.8z" />
        <path d="M356,230.8c-2.2,0-4,1.8-4,4s-1.8,4-4,4s-4-1.8-4-4s-1.8-4-4-4s-4,1.8-4,4c0,6.6,5.4,12,12,12s12-5.4,12-12
		C360,232.6,358.2,230.8,356,230.8z" />
        <path d="M332,406.8H170c-14.4,0-26-11.6-26-26v-0.4c37.6-9.3,64-42.9,64-81.6v-47c0-59.4-3.3-118.9-9.9-177.9
		c-4-35.1-29.3-64-63.5-72.6c-7-1.7-14.3-1.7-21.2,0l-0.1,0C79.1,10,53.8,38.9,49.8,73.9C43.3,132.9,40,192.3,40,251.8v47
		c0,38.7,26.5,72.3,64,81.6c0.9,45.7,38.2,82.4,84,82.4h144c15.5,0,28-12.5,28-28S347.5,406.8,332,406.8z M48,294.8v-16h152v16H48z
		 M332,454.8H188c-40.7,0-74.2-32.2-75.9-72.9c7.9,1.1,16,1.1,23.9,0c0.6,18.3,15.7,32.8,34,32.9h162c11,0,20,9,20,20
		S343,454.8,332,454.8z" />
        <path d="M38,83.3c-1.9-1.1-4.4-0.5-5.5,1.5c0,0,0,0,0,0l-9,15.5c-0.6,1.1-0.7,2.4-0.2,3.6l6.2,14.7l-8,13.8
		c-0.6,1.1-0.7,2.4-0.2,3.6l7,16.5c0.9,2,3.2,3,5.2,2.1c2-0.9,3-3.2,2.1-5.2l-6.2-14.7l8-13.8c0.6-1.1,0.7-2.4,0.2-3.6l-6.2-14.7
		l8-13.8C40.6,86.9,39.9,84.4,38,83.3z" />
        <path d="M17.6,71.4c-2-0.9-4.4,0-5.3,2L3,94.2c-0.4,0.9-0.5,1.9-0.2,2.8l6.2,20.4l-8.7,19.5c-0.4,0.9-0.5,1.9-0.2,2.8l6.7,21.8
		c0.6,2.1,2.9,3.3,5,2.7c2.1-0.6,3.3-2.9,2.7-5l0,0l-6.2-20.4l8.7-19.5c0.4-0.9,0.5-1.9,0.2-2.8l-6.2-20.4l8.7-19.5
		C20.5,74.6,19.6,72.3,17.6,71.4z" />
        <path d="M216.5,102.5l-6.2,14.7c-0.5,1.2-0.4,2.5,0.2,3.6l8,13.8l-6.2,14.7c-0.9,2,0.1,4.4,2.1,5.2s4.4-0.1,5.2-2.1l7-16.5
		c0.5-1.2,0.4-2.5-0.2-3.6l-8-13.8l6.2-14.7c0.5-1.2,0.4-2.5-0.2-3.6l-9-15.5c-1.1-1.9-3.6-2.6-5.5-1.5c-1.9,1.1-2.6,3.6-1.5,5.5
		L216.5,102.5z" />
        <path d="M237.1,96.1l-6.2,20.4c-0.3,0.9-0.2,1.9,0.2,2.8l8.7,19.5l-6.2,20.4c-0.6,2.1,0.5,4.3,2.7,5s4.3-0.5,5-2.7l6.7-21.8
		c0.3-0.9,0.2-1.9-0.2-2.8l-8.7-19.5l6.2-20.4c0.3-0.9,0.2-1.9-0.2-2.8l-9.3-20.8c-1-2-3.3-2.8-5.3-1.9c-1.9,0.9-2.8,3.2-2,5.1
		L237.1,96.1z" />
    </g>
</svg>