<svg xmlns="http://www.w3.org/2000/svg" xmlns:xlink="http://www.w3.org/1999/xlink" version="1.1" x="0px" y="0px" viewBox="0 0 64 80" style="enable-background:new 0 0 64 64;" xml:space="preserve"><g><g><path d="M41.8,23c-1-6.4-4-12.9-9.4-16.7c-0.2-0.1-0.5-0.1-0.7,0c-5.4,3.8-8.4,10.4-9.4,16.7c-1.7,10.6,1.4,22.6,7.2,31.5    c0.1,0.1,1.4,1.9,2.1,2.8c0.2,0.3,0.7,0.3,0.9,0c0.7-0.9,2-2.7,2.1-2.8C40.3,45.6,43.5,33.6,41.8,23z M32.3,52.1    c-0.2,0-0.4,0-0.6,0c-3.2-0.6-4.8-5.7-4.7-15.2c0-0.2,0.1-4.5,0.5-9.1c0.7-8.8,1.8-10.9,2.8-11.9c0.5-0.5,1.1-0.7,1.8-0.7    c0.7,0,1.3,0.2,1.8,0.7c1,0.9,2.1,3,2.8,11.9c0.4,4.7,0.5,9,0.5,9.1C37.1,46.4,35.5,51.5,32.3,52.1z"/><path d="M35.2,36.9c0,0-0.4-20-3.2-19.9c-2.8-0.1-3.2,19.9-3.2,19.9c-0.1,12.2,2.6,13.3,3.2,13.4C32.6,50.2,35.3,49.1,35.2,36.9z"/></g><path d="M33.8,61.8c-0.7,0-1.3-0.2-1.8-0.5c-1.5,0.8-4.2,1-8.4-3.5c-0.5-0.5-12.8-13.2-8.9-31.6c0.2-1.2,3.6-20.4,17-24   c0.2-0.1,0.4-0.1,0.6,0c13.4,3.7,16.8,22.9,17,24c3.9,18.4-8.4,31.1-8.9,31.6C37.5,60.9,35.3,61.8,33.8,61.8z M32.7,59   c0.1,0,0.1,0.1,0.2,0.1c1.1,1,3.2-0.1,5.8-2.8c0.1-0.1,12-12.4,8.3-29.6c0,0,0,0,0-0.1c0-0.2-3.2-18.6-15-22.1   c-11.8,3.6-15,22-15,22.1c0,0,0,0,0,0.1c-3.7,17.2,8.2,29.4,8.3,29.6c2.6,2.8,4.8,3.8,5.9,2.9c0.1-0.1,0.1-0.1,0.2-0.1c0,0,0,0,0,0   c0.2-0.1,0.4-0.2,0.6-0.2C32.2,58.8,32.5,58.9,32.7,59z"/></g><text x="0" y="79" fill="#000000" font-size="5px" font-weight="bold" font-family="'Helvetica Neue', Helvetica, Arial-Unicode, Arial, Sans-serif">Created by Md Saiful Alam Saif</text><text x="0" y="84" fill="#000000" font-size="5px" font-weight="bold" font-family="'Helvetica Neue', Helvetica, Arial-Unicode, Arial, Sans-serif">from the Noun Project</text></svg>