<?xml version="1.0" encoding="utf-8"?>
<!-- Generator: Adobe Illustrator 28.4.1, SVG Export Plug-In . SVG Version: 6.00 Build 0)  -->
<svg version="1.1" id="Layer_1" xmlns="http://www.w3.org/2000/svg" xmlns:xlink="http://www.w3.org/1999/xlink" x="0px"
	y="0px" viewBox="0 0 20 68" style="enable-background:new 0 0 20 68;" xml:space="preserve" fill="#ffffff">
	<path d="M12,51.7v4.6c2.3,0.8,4,3,4,5.7c0,3.3-2.7,6-6,6s-6-2.7-6-6c0-2.6,1.7-4.8,4-5.7v-4.6c-2.9-0.9-5-3.5-5-6.7s2.1-5.8,5-6.7
	v-4.5c-3.5-0.9-6-4-6-7.7s2.5-6.9,6-7.7V13H6c-3.3,0-6-2.7-6-6V2c0-1.1,0.9-2,2-2h16c1.1,0,2,0.9,2,2v5c0,3.3-2.7,6-6,6h-2v5.3
	c3.5,0.9,6,4,6,7.7s-2.5,6.9-6,7.7v4.5c2.9,0.9,5,3.5,5,6.7S14.9,50.8,12,51.7z" />
</svg>