<?xml version="1.0" encoding="utf-8"?>
<!-- Generator: Adobe Illustrator 28.4.1, SVG Export Plug-In . SVG Version: 6.00 Build 0)  -->
<svg version="1.1" id="Layer_1" xmlns="http://www.w3.org/2000/svg" xmlns:xlink="http://www.w3.org/1999/xlink" x="0px"
	y="0px" viewBox="0 0 90.7 90.7" style="enable-background:new 0 0 90.7 90.7;" xml:space="preserve" fill="#ffffff">
	<path d="M34.4,74.4c-0.1-2.6,1.1-5.5,3.5-7.9c2.5-2.5,5.8-3.7,8.6-3.4c4.7,0.7,10.2-1.4,16-10.2c12-17.8,32.8-45.9,27.3-51.3
	c-5.5-5.5-33.5,15.3-51.3,27.4c-8.5,5.8-10.8,11.1-10.2,15.7l0,0c0.4,2.9-0.8,6.2-3.4,8.9c-2.3,2.3-5.2,3.5-7.9,3.5l0,0
	c-4.1,0.1-8.3,1.7-11.4,4.9c-6.6,6.6-6.6,17.2,0,23.8c6.6,6.6,17.2,6.6,23.8,0C32.6,82.6,34.3,78.5,34.4,74.4L34.4,74.4z M11.1,80.3
	c-3.5-3.5-3.5-9.3,0-12.8c3.5-3.5,9.3-3.5,12.8,0c3.5,3.5,3.5,9.3,0,12.8C20.4,83.8,14.7,83.8,11.1,80.3z" />
</svg>