<?xml version="1.0" encoding="utf-8"?>
<!-- Generator: Adobe Illustrator 28.4.1, SVG Export Plug-In . SVG Version: 6.00 Build 0)  -->
<svg version="1.1" id="Layer_1" xmlns="http://www.w3.org/2000/svg" xmlns:xlink="http://www.w3.org/1999/xlink" x="0px"
	y="0px" viewBox="0 0 90 90" style="enable-background:new 0 0 90 90;" xml:space="preserve" fill="#ffffff">
	<path d="M24.1,79.5c1-1,1.9-1.4,3-1.7c2.7-0.6,5.4-2,7.6-4.1c2.8-2.8,4.3-6.3,4.4-9.7c0.3-1.8,1.3-3.7,2.9-5.3
	c1.5-1.5,3.2-2.4,4.8-2.8c2.3-0.4,4.5-1.5,6.2-3.3c2.2-2.2,3.4-5.2,3.4-8c0.2-2,1.3-4.2,3.1-6.1c1.6-1.6,3.4-2.6,5.1-3
	c0.3,0,0.6-0.1,0.8-0.1c0,0,0,0,0,0l0,0c1.7-0.4,3.4-1.3,4.7-2.6c2.1-2.1,3-4.9,2.8-7.6c0-1.3,0.6-2.9,1.9-4.2
	c1.1-1.1,2.4-1.7,3.5-1.9c2.2-0.1,4.5-1.2,6.4-3c3.6-3.6,6.7-11.7,3.7-14.7C85.7-1.8,77.6,1.3,74,4.9c-1.8,1.8-2.8,4.1-3,6.3
	c-0.1,1.2-0.8,2.5-1.9,3.6c-1.4,1.4-3,2-4.4,1.9l0,0c-2.6-0.2-5.4,0.8-7.4,2.9c-1.4,1.4-2.2,3-2.6,4.7l0,0c0,0.1,0,0.2,0,0.3
	c0,0.2-0.1,0.3-0.1,0.5c-0.4,1.7-1.4,3.6-3,5.2c-1.9,1.9-4.2,3-6.2,3.2l0,0c-2.9,0.1-5.7,1.2-7.9,3.4c-1.7,1.7-2.8,3.9-3.2,6.1l0,0
	c-0.3,1.7-1.3,3.5-2.8,5c-1.6,1.6-3.6,2.6-5.4,2.9l0,0c-3.4,0.2-6.9,1.7-9.7,4.4c-2.1,2.1-3.5,4.8-4.1,7.4l0,0c-0.2,1-1,2.2-1.7,3.1
	L24.1,79.5z" />
	<polygon points="8.3,68 22,81.7 13.7,90 0,76.3 " />
</svg>