<?xml version="1.0" encoding="utf-8"?>
<!-- Generator: Adobe Illustrator 28.4.1, SVG Export Plug-In . SVG Version: 6.00 Build 0)  -->
<svg version="1.1" id="Layer_1" xmlns="http://www.w3.org/2000/svg" xmlns:xlink="http://www.w3.org/1999/xlink" x="0px"
	y="0px" viewBox="0 0 100 99" style="enable-background:new 0 0 100 99;" xml:space="preserve" fill="#ffffff">
	<g>
		<path d="M69.5,18.8c-0.3-0.3-0.6-0.5-1-0.8c-0.4,0.1-0.7,0.3-1,0.5c-0.9,1.1-0.1,3.1,1.7,4.7c1.8,1.5,4,1.9,4.9,0.8
		c0.1-0.1,0.1-0.2,0.2-0.3C72.9,22,71.3,20.4,69.5,18.8z" />
	</g>
	<g>
		<path d="M60.9,12.2c-0.2,0.1-0.3,0.2-0.4,0.4c-0.9,1.1-0.1,3.1,1.7,4.7c1.8,1.5,4,1.9,4.9,0.8c0.3-0.3,0.4-0.7,0.3-1.2
		C65.3,15.2,63.1,13.6,60.9,12.2z" />
	</g>
	<g>
		<path d="M79.7,9.7c2.6,2.6,4.6,5.4,6.1,8.2c0.8,0,1.6,0,2.4,0c-1.5-3.4-3.9-6.7-6.9-9.8C78,4.9,74.4,2.5,70.8,1v2.4
		C73.9,4.8,76.9,6.9,79.7,9.7z" />
		<path d="M76.1,13.3c1.5,1.5,2.8,3.1,3.8,4.7c0.9,0,1.7,0,2.6,0c-1.2-2.1-2.8-4.2-4.8-6.2c-2.2-2.2-4.5-3.9-6.9-5.2v2.5
		C72.6,10.2,74.5,11.6,76.1,13.3z" />
	</g>
	<g>
		<path d="M8.9,75.6c-2.6-2.6-4.6-5.4-6.1-8.2c-0.8,0-1.6,0-2.4,0c1.5,3.4,3.9,6.7,6.9,9.8c3.2,3.2,6.8,5.7,10.4,7.2V82
		C14.7,80.6,11.7,78.4,8.9,75.6z" />
		<path d="M12.5,72.1C11,70.6,9.7,69,8.7,67.4c-0.9,0-1.7,0-2.6,0c1.2,2.1,2.8,4.2,4.8,6.2c2.2,2.2,4.5,3.9,6.9,5.2v-2.5
		C16,75.2,14.2,73.8,12.5,72.1z" />
	</g>
	<path d="M97,59.9c-3.1-9.5-8.9-19.4-16.6-28.6c-1.6-2.3-3.4-4.6-5.3-6.8c0.8,1.9,0.9,3.5,0.1,4.5c-1.9,2.3-8,0.4-13.6-4.2
	C56,20.1,53,14.5,54.9,12.3c0.9-1.1,2.7-1.2,4.9-0.6C48.5,4.8,37.2,3.3,31.5,9c-7.8,7.8-2.2,26,12.4,40.7
	c14.4,14.4,32.2,20,40.2,12.8c3.4,9.3,3.2,16.9-0.5,20.6c-7,7-28.2,1.5-48.2-17.4c0.1-3.7-2.1-8.6-6.1-12.6
	c-5.9-5.9-13.5-7.9-16.9-4.5c-3,3-1.8,9.3,2.5,14.8l0,0c0,0,0.2,0.2,0.5,0.6c0.2,0.2,0.3,0.4,0.5,0.6c3,3.5,12.6,13.9,24.5,21.8
	c0.2,0.1,0.4,0.3,0.6,0.4c6.4,4.3,13,7.5,19.3,9.6c13.7,4.5,25.2,3,32.4-4.1C100,85.2,101.5,73.6,97,59.9z" />
</svg>