<?xml version="1.0" encoding="utf-8"?>
<!-- Generator: Adobe Illustrator 28.4.1, SVG Export Plug-In . SVG Version: 6.00 Build 0)  -->
<svg version="1.1" id="Layer_1" xmlns="http://www.w3.org/2000/svg" xmlns:xlink="http://www.w3.org/1999/xlink" x="0px"
	y="0px" viewBox="0 0 27 97.8" style="enable-background:new 0 0 27 97.8;" xml:space="preserve" fill="#ffffff">
	<path d="M24.7,86.8V22.1c0-3.4-1.2-8.3-3.1-12.2c-2.3-4.9-5.2-7.6-8.1-7.6S7.7,5,5.4,9.9c-1.9,3.9-3.1,8.8-3.1,12.2v64.8
	c-0.9,0.2-1.7,0.9-2.1,1.8H0v1v5.1v2h0.8c0.5,0.6,1.3,1,2.2,1h21c0.9,0,1.7-0.4,2.2-1H27v-2v-5.1v-1h-0.2
	C26.5,87.8,25.7,87.1,24.7,86.8z M2,94.8v-5.1c0-0.6,0.4-1,1-1h0.6v7.1H3C2.5,95.8,2,95.3,2,94.8z M19.9,95.8v-7.1h1.6v7.1H19.9z
	 M5.6,88.7h1.6v7.1H5.6V88.7z M9.1,88.7h1.6v7.1H9.1V88.7z M12.7,88.7h1.6v7.1h-1.6V88.7z M16.3,88.7h1.6v7.1h-1.6V88.7z M23.4,88.7
	H24c0.6,0,1,0.4,1,1v5.1c0,0.6-0.4,1-1,1h-0.6V88.7z" />
</svg>