<?xml version="1.0" encoding="utf-8"?>
<!-- Generator: Adobe Illustrator 28.4.1, SVG Export Plug-In . SVG Version: 6.00 Build 0)  -->
<svg version="1.1" id="Layer_1" xmlns="http://www.w3.org/2000/svg" xmlns:xlink="http://www.w3.org/1999/xlink" x="0px"
	y="0px" viewBox="0 0 45.2 100" style="enable-background:new 0 0 45.2 100;" xml:space="preserve" fill="#ffffff">
	<path d="M44.5,12.9c-0.4-2.2-0.9-4.3-1.6-6.4c-0.3-0.9-2.8-6.7-5.6-6.5c-0.5,0.1-1,0.3-1.4,0.7c-3.2,2.8-6.7,8-6.4,13
	c0.2,4.3,1.3,8.5,3.2,12.3c3.3,7-2.3,13.8-2.3,13.8s-5.2,7.2-5.5,7.8s-1.1-2.7-0.5-5.7s1.3-5.8,0.3-7.6s-2-3.2-2-3.2s-1.4-2.4-3-0.4
	c-2.7,3.2-4.3,7.2-4.6,11.3c-0.1,7.1,4.5,11.9,5.7,13.1c0.3,0.3,0.5,0.7,0.6,1.2c0.1,0.3,0.1,0.7,0,1l-1.2,4.1l-4.9,15.9
	c-0.5,1.5-1.1,3.2-1.6,5.1l0,0l0,0c-0.9,3.3-1.6,6.9-1.3,9.3c0.7,5.8,3.2,7.3,3.2,7.3s4.2,2.8,7.7-0.7c1.7-1.7,3-3.9,5-9
	c0.8-2,1.3-3.7,1.7-4.9l0,0c3.6-10,4.2-16.5,3.9-20.8c-0.3-4.2,0.2-8.4,1.6-12.4c0.8-2.2,1.9-4.3,3.2-6.3c2.5-3.9,5.3-10.5,6.5-21.7
	C45.3,19.7,45.1,16.3,44.5,12.9z" />
	<path d="M13.4,78.5c-1.7-1.9-1.5-4.9,0.4-6.5c0.5-0.5,1.1-0.8,1.8-1L13.4,78.5z" />
	<path
		d="M2.5,46.7c-0.3-0.1-0.5-0.3-0.7-0.5C0,42.3-0.5,37.9,0.5,33.7c1.1-4,3.4-7.5,6.7-10c0.4-0.3,1.1-0.2,1.4,0.2
	C9,24.4,8.9,25,8.5,25.4c-2.9,2.2-5,5.3-6,8.9C1.6,37.9,2,41.9,3.7,45.3c0.2,0.5,0,1.1-0.5,1.3C3,46.7,2.8,46.8,2.5,46.7z" />
	<path d="M6.9,45c-0.3-0.1-0.6-0.3-0.7-0.6c-2.7-5.9-1-12.8,4-16.8c0.4-0.3,1.1-0.3,1.4,0.2c0.3,0.4,0.3,1.1-0.2,1.4
	C7.1,32.6,5.7,38.6,8,43.6c0.2,0.5,0,1.1-0.5,1.3C7.3,45,7.1,45,6.9,45z" />
</svg>