<?xml version="1.0" encoding="utf-8"?>
<!-- Generator: Adobe Illustrator 28.4.1, SVG Export Plug-In . SVG Version: 6.00 Build 0)  -->
<svg version="1.1" id="Layer_1" xmlns="http://www.w3.org/2000/svg" xmlns:xlink="http://www.w3.org/1999/xlink" x="0px"
	y="0px" viewBox="0 0 81.3 73.9" style="enable-background:new 0 0 81.3 73.9;" xml:space="preserve" fill="#ffffff">
	<path d="M80.8,37.3c-0.5-0.3-1.1-0.2-1.4,0.3c-3.6,5.7-3.4,13.5-2.6,19.1c0.3,2.2,0.8,4.3,1.5,6.4c0.6,1.8,1.1,3.6,0.7,5.4
	c-0.3,1.2-1,2.3-2,2.9c-0.9,0.6-2,0.7-3,0.4c-1.7-0.5-3.1-2-3.9-3.2l0.9-0.9l-1.8-1.8c1.8-1.8,1.8-4.7,0.1-6.5L31.1,15.9
	c-0.8-0.8-2-1.3-3.1-1.3s-2.2,0.4-3.1,1.3l-1.6,1.7l-1.2-1.2l2.3-2.3c1.6-1.6,1.6-4.2,0-5.8l-5.1-5c-2.2-2.2-5.1-3.3-8-3.3
	s-5.8,1.1-8,3.3c-4.4,4.4-4.4,11.5,0,15.9l5.1,5.1c0.8,0.8,1.8,1.2,2.9,1.2s2.1-0.4,2.9-1.2l2.3-2.3l1.2,1.2L16,24.9
	c-1.7,1.7-1.7,4.5,0,6.2l43.4,38.2c0.9,0.8,2.1,1.2,3.2,1.2c1.2,0,2.4-0.5,3.3-1.4l1.8,1.8l0.9-0.9c1,1.3,2.6,3.1,4.8,3.7
	c0.5,0.1,1.1,0.2,1.6,0.2c1,0,2.1-0.3,3-0.8c1.5-0.9,2.6-2.4,2.9-4.2c0.5-2.3-0.1-4.5-0.8-6.5c-0.5-1.9-1-3.9-1.3-6
	c-0.6-4.3-1.2-12.3,2.3-17.7C81.4,38.2,81.3,37.6,80.8,37.3z M19,21.6l-1-1l2.7-2.7l1,1L19,21.6z M40.6,43.3c-0.7-0.7-0.7-1.9,0-2.7
	c0.7-0.7,1.9-0.7,2.7,0c0.7,0.7,0.7,1.9,0,2.7C42.6,44,41.4,44,40.6,43.3z M45.6,47.9l-1.7-1.7c-0.4-0.4-0.4-1,0-1.4l1-1
	c0.4-0.4,1-0.4,1.4,0l1.7,1.7c0.4,0.4,0.4,1.1,0,1.4l-1,1C46.6,48.3,46,48.3,45.6,47.9z M51.9,50.9l-1,1c-0.4,0.4-1,0.4-1.4,0
	l-1.7-1.7c-0.4-0.4-0.4-1,0-1.4l1-1c0.4-0.4,1-0.4,1.4,0l1.7,1.7C52.3,49.9,52.3,50.5,51.9,50.9z M67.8,68.5l-0.6-0.6l0.8-0.8
	l0.6,0.6L67.8,68.5z" />
</svg>